solid OpenSCAD_Model
  facet normal -0.995185 0.0980175 0
    outer loop
      vertex -59.34 71.58 -7.26705e-15
      vertex -59.2824 72.1653 75
      vertex -59.2824 72.1653 -7.25999e-15
    endloop
  endfacet
  facet normal -0.995185 0.0980175 0
    outer loop
      vertex -59.2824 72.1653 75
      vertex -59.34 71.58 -7.26705e-15
      vertex -59.34 71.58 75
    endloop
  endfacet
  facet normal 1 -0 0
    outer loop
      vertex 6 -3 75
      vertex 6 71.58 7.34788e-16
      vertex 6 71.58 75
    endloop
  endfacet
  facet normal 1 0 0
    outer loop
      vertex 6 71.58 7.34788e-16
      vertex 6 -3 75
      vertex 6 -3 7.34788e-16
    endloop
  endfacet
  facet normal 0.634397 0.773007 -0
    outer loop
      vertex 5.12132 73.7013 6.27181e-16
      vertex 4.66671 74.0744 75
      vertex 5.12132 73.7013 75
    endloop
  endfacet
  facet normal 0.634397 0.773007 0
    outer loop
      vertex 4.66671 74.0744 75
      vertex 5.12132 73.7013 6.27181e-16
      vertex 4.66671 74.0744 5.71507e-16
    endloop
  endfacet
  facet normal 1.22465e-16 -3.77069e-23 -1
    outer loop
      vertex 3 -6 3.67394e-16
      vertex 6 -3 7.34788e-16
      vertex 5.94236 -3.58527 7.27729e-16
    endloop
  endfacet
  facet normal 1.22465e-16 0 -1
    outer loop
      vertex 6 -3 7.34788e-16
      vertex -59.34 -3 -7.26705e-15
      vertex 6 71.58 7.34788e-16
    endloop
  endfacet
  facet normal 1.22465e-16 1.21704e-23 -1
    outer loop
      vertex 3 -6 3.67394e-16
      vertex 5.94236 -3.58527 7.27729e-16
      vertex 5.77164 -4.14805 7.06822e-16
    endloop
  endfacet
  facet normal 1.22465e-16 -4.75613e-25 -1
    outer loop
      vertex 6 -3 7.34788e-16
      vertex 3 -6 3.67394e-16
      vertex -59.34 -3 -7.26705e-15
    endloop
  endfacet
  facet normal 1.22465e-16 -7.31903e-23 -1
    outer loop
      vertex 3 -6 3.67394e-16
      vertex 5.77164 -4.14805 7.06822e-16
      vertex 5.49441 -4.66671 6.72871e-16
    endloop
  endfacet
  facet normal 1.22465e-16 0 -1
    outer loop
      vertex -59.34 71.58 -7.26705e-15
      vertex 6 71.58 7.34788e-16
      vertex -59.34 -3 -7.26705e-15
    endloop
  endfacet
  facet normal 1.22465e-16 7.28074e-23 -1
    outer loop
      vertex 3 -6 3.67394e-16
      vertex 5.49441 -4.66671 6.72871e-16
      vertex 5.12132 -5.12132 6.27181e-16
    endloop
  endfacet
  facet normal 1.22465e-16 -1.21703e-23 -1
    outer loop
      vertex 5.94236 72.1653 7.27729e-16
      vertex 3 74.58 3.67394e-16
      vertex 5.77164 72.7281 7.06822e-16
    endloop
  endfacet
  facet normal 1.22465e-16 -1.66156e-22 -1
    outer loop
      vertex 3 -6 3.67394e-16
      vertex 5.12132 -5.12132 6.27181e-16
      vertex 4.66671 -5.49441 5.71507e-16
    endloop
  endfacet
  facet normal 1.22465e-16 7.31901e-23 -1
    outer loop
      vertex 5.77164 72.7281 7.06822e-16
      vertex 3 74.58 3.67394e-16
      vertex 5.49441 73.2467 6.72871e-16
    endloop
  endfacet
  facet normal 1.22465e-16 1.31698e-22 -1
    outer loop
      vertex 3 -6 3.67394e-16
      vertex 4.66671 -5.49441 5.71507e-16
      vertex 4.14805 -5.77164 5.0799e-16
    endloop
  endfacet
  facet normal 1.22465e-16 -7.28088e-23 -1
    outer loop
      vertex 5.49441 73.2467 6.72871e-16
      vertex 3 74.58 3.67394e-16
      vertex 5.12132 73.7013 6.27181e-16
    endloop
  endfacet
  facet normal 1.22465e-16 -2.15625e-22 -1
    outer loop
      vertex 3 -6 3.67394e-16
      vertex 4.14805 -5.77164 5.0799e-16
      vertex 3.58527 -5.94236 4.39069e-16
    endloop
  endfacet
  facet normal 1.22465e-16 1.66154e-22 -1
    outer loop
      vertex 5.12132 73.7013 6.27181e-16
      vertex 3 74.58 3.67394e-16
      vertex 4.66671 74.0744 5.71507e-16
    endloop
  endfacet
  facet normal 1.22465e-16 -1.31698e-22 -1
    outer loop
      vertex 4.66671 74.0744 5.71507e-16
      vertex 3 74.58 3.67394e-16
      vertex 4.14805 74.3516 5.0799e-16
    endloop
  endfacet
  facet normal 1.22465e-16 2.15634e-22 -1
    outer loop
      vertex 4.14805 74.3516 5.0799e-16
      vertex 3 74.58 3.67394e-16
      vertex 3.58527 74.5224 4.39069e-16
    endloop
  endfacet
  facet normal 1.22465e-16 -5.50923e-23 -1
    outer loop
      vertex -59.34 -3 -7.26705e-15
      vertex 3 -6 3.67394e-16
      vertex -56.34 -6 -6.89966e-15
    endloop
  endfacet
  facet normal 1.22465e-16 4.75613e-25 -1
    outer loop
      vertex 3 74.58 3.67394e-16
      vertex 6 71.58 7.34788e-16
      vertex -59.34 71.58 -7.26705e-15
    endloop
  endfacet
  facet normal 1.22465e-16 2.9874e-22 -1
    outer loop
      vertex -59.34 -3 -7.26705e-15
      vertex -56.34 -6 -6.89966e-15
      vertex -56.9253 -5.94236 -6.97133e-15
    endloop
  endfacet
  facet normal 1.22465e-16 3.77073e-23 -1
    outer loop
      vertex 6 71.58 7.34788e-16
      vertex 3 74.58 3.67394e-16
      vertex 5.94236 72.1653 7.27729e-16
    endloop
  endfacet
  facet normal 1.22465e-16 1.03243e-22 -1
    outer loop
      vertex -59.34 -3 -7.26705e-15
      vertex -56.9253 -5.94236 -6.97133e-15
      vertex -57.488 -5.77164 -7.04026e-15
    endloop
  endfacet
  facet normal 1.22465e-16 5.50923e-23 -1
    outer loop
      vertex 3 74.58 3.67394e-16
      vertex -59.34 71.58 -7.26705e-15
      vertex -56.34 74.58 -6.89966e-15
    endloop
  endfacet
  facet normal 1.22465e-16 7.77508e-23 -1
    outer loop
      vertex -59.34 -3 -7.26705e-15
      vertex -57.488 -5.77164 -7.04026e-15
      vertex -58.0067 -5.49441 -7.10377e-15
    endloop
  endfacet
  facet normal 1.22465e-16 -2.98741e-22 -1
    outer loop
      vertex -56.34 74.58 -6.89966e-15
      vertex -59.34 71.58 -7.26705e-15
      vertex -56.9253 74.5224 -6.97133e-15
    endloop
  endfacet
  facet normal 1.22466e-16 5.85418e-22 -1
    outer loop
      vertex -59.34 -3 -7.26705e-15
      vertex -58.0067 -5.49441 -7.10377e-15
      vertex -58.4613 -5.12132 -7.15945e-15
    endloop
  endfacet
  facet normal 1.22465e-16 -1.03243e-22 -1
    outer loop
      vertex -56.9253 74.5224 -6.97133e-15
      vertex -59.34 71.58 -7.26705e-15
      vertex -57.488 74.3516 -7.04026e-15
    endloop
  endfacet
  facet normal 1.22463e-16 -5.70747e-22 -1
    outer loop
      vertex -59.34 -3 -7.26705e-15
      vertex -58.4613 -5.12132 -7.15945e-15
      vertex -58.8344 -4.66671 -7.20514e-15
    endloop
  endfacet
  facet normal 1.22465e-16 -7.77509e-23 -1
    outer loop
      vertex -57.488 74.3516 -7.04026e-15
      vertex -59.34 71.58 -7.26705e-15
      vertex -58.0067 74.0744 -7.10377e-15
    endloop
  endfacet
  facet normal 1.22464e-16 -1.3922e-22 -1
    outer loop
      vertex -59.34 -3 -7.26705e-15
      vertex -58.8344 -4.66671 -7.20514e-15
      vertex -59.1116 -4.14805 -7.23909e-15
    endloop
  endfacet
  facet normal 1.22466e-16 -5.85423e-22 -1
    outer loop
      vertex -58.0067 74.0744 -7.10377e-15
      vertex -59.34 71.58 -7.26705e-15
      vertex -58.4613 73.7013 -7.15945e-15
    endloop
  endfacet
  facet normal 1.22468e-16 6.37412e-22 -1
    outer loop
      vertex -59.34 -3 -7.26705e-15
      vertex -59.1116 -4.14805 -7.23909e-15
      vertex -59.2824 -3.58527 -7.25999e-15
    endloop
  endfacet
  facet normal 1.22463e-16 5.70743e-22 -1
    outer loop
      vertex -58.4613 73.7013 -7.15945e-15
      vertex -59.34 71.58 -7.26705e-15
      vertex -58.8344 73.2467 -7.20514e-15
    endloop
  endfacet
  facet normal 1.22464e-16 1.39221e-22 -1
    outer loop
      vertex -58.8344 73.2467 -7.20514e-15
      vertex -59.34 71.58 -7.26705e-15
      vertex -59.1116 72.7281 -7.23909e-15
    endloop
  endfacet
  facet normal 1.22468e-16 -6.37422e-22 -1
    outer loop
      vertex -59.1116 72.7281 -7.23909e-15
      vertex -59.34 71.58 -7.26705e-15
      vertex -59.2824 72.1653 -7.25999e-15
    endloop
  endfacet
  facet normal -0.634394 -0.77301 0
    outer loop
      vertex -58.4613 -5.12132 75
      vertex -58.0067 -5.49441 -7.10377e-15
      vertex -58.0067 -5.49441 75
    endloop
  endfacet
  facet normal -0.634394 -0.77301 0
    outer loop
      vertex -58.0067 -5.49441 -7.10377e-15
      vertex -58.4613 -5.12132 75
      vertex -58.4613 -5.12132 -7.15945e-15
    endloop
  endfacet
  facet normal 0.0980183 -0.995185 0
    outer loop
      vertex 3 -6 75
      vertex 3.58527 -5.94236 4.39069e-16
      vertex 3.58527 -5.94236 75
    endloop
  endfacet
  facet normal 0.0980183 -0.995185 0
    outer loop
      vertex 3.58527 -5.94236 4.39069e-16
      vertex 3 -6 75
      vertex 3 -6 3.67394e-16
    endloop
  endfacet
  facet normal -0.0980233 0.995184 0
    outer loop
      vertex -56.34 74.58 -6.89966e-15
      vertex -56.9253 74.5224 75
      vertex -56.34 74.58 75
    endloop
  endfacet
  facet normal -0.0980233 0.995184 0
    outer loop
      vertex -56.9253 74.5224 75
      vertex -56.34 74.58 -6.89966e-15
      vertex -56.9253 74.5224 -6.97133e-15
    endloop
  endfacet
  facet normal 0 1 -0
    outer loop
      vertex 3 74.58 3.67394e-16
      vertex -56.34 74.58 75
      vertex 3 74.58 75
    endloop
  endfacet
  facet normal 0 1 0
    outer loop
      vertex -56.34 74.58 75
      vertex 3 74.58 3.67394e-16
      vertex -56.34 74.58 -6.89966e-15
    endloop
  endfacet
  facet normal 0.995185 0.0980191 0
    outer loop
      vertex 6 71.58 75
      vertex 5.94236 72.1653 7.27729e-16
      vertex 5.94236 72.1653 75
    endloop
  endfacet
  facet normal 0.995185 0.0980191 0
    outer loop
      vertex 5.94236 72.1653 7.27729e-16
      vertex 6 71.58 75
      vertex 6 71.58 7.34788e-16
    endloop
  endfacet
  facet normal 0.881922 0.471395 0
    outer loop
      vertex 5.77164 72.7281 75
      vertex 5.49441 73.2467 6.72871e-16
      vertex 5.49441 73.2467 75
    endloop
  endfacet
  facet normal 0.881922 0.471395 0
    outer loop
      vertex 5.49441 73.2467 6.72871e-16
      vertex 5.77164 72.7281 75
      vertex 5.77164 72.7281 7.06822e-16
    endloop
  endfacet
  facet normal -1 0 0
    outer loop
      vertex -59.34 -3 -7.26705e-15
      vertex -59.34 71.58 75
      vertex -59.34 71.58 -7.26705e-15
    endloop
  endfacet
  facet normal -1 -0 0
    outer loop
      vertex -59.34 71.58 75
      vertex -59.34 -3 -7.26705e-15
      vertex -59.34 -3 75
    endloop
  endfacet
  facet normal -0.995185 -0.0980167 0
    outer loop
      vertex -59.2824 -3.58527 -7.25999e-15
      vertex -59.34 -3 75
      vertex -59.34 -3 -7.26705e-15
    endloop
  endfacet
  facet normal -0.995185 -0.0980167 0
    outer loop
      vertex -59.34 -3 75
      vertex -59.2824 -3.58527 -7.25999e-15
      vertex -59.2824 -3.58527 75
    endloop
  endfacet
  facet normal 0 -1 0
    outer loop
      vertex -56.34 -6 75
      vertex 3 -6 3.67394e-16
      vertex 3 -6 75
    endloop
  endfacet
  facet normal -0 -1 0
    outer loop
      vertex 3 -6 3.67394e-16
      vertex -56.34 -6 75
      vertex -56.34 -6 -6.89966e-15
    endloop
  endfacet
  facet normal 0.77301 -0.634393 0
    outer loop
      vertex 5.12132 -5.12132 75
      vertex 5.49441 -4.66671 6.72871e-16
      vertex 5.49441 -4.66671 75
    endloop
  endfacet
  facet normal 0.77301 -0.634393 0
    outer loop
      vertex 5.49441 -4.66671 6.72871e-16
      vertex 5.12132 -5.12132 75
      vertex 5.12132 -5.12132 6.27181e-16
    endloop
  endfacet
  facet normal -0.634398 0.773006 0
    outer loop
      vertex -58.0067 74.0744 -7.10377e-15
      vertex -58.4613 73.7013 75
      vertex -58.0067 74.0744 75
    endloop
  endfacet
  facet normal -0.634398 0.773006 0
    outer loop
      vertex -58.4613 73.7013 75
      vertex -58.0067 74.0744 -7.10377e-15
      vertex -58.4613 73.7013 -7.15945e-15
    endloop
  endfacet
  facet normal -0.471395 0.881922 0
    outer loop
      vertex -57.488 74.3516 -7.04026e-15
      vertex -58.0067 74.0744 75
      vertex -57.488 74.3516 75
    endloop
  endfacet
  facet normal -0.471395 0.881922 0
    outer loop
      vertex -58.0067 74.0744 75
      vertex -57.488 74.3516 -7.04026e-15
      vertex -58.0067 74.0744 -7.10377e-15
    endloop
  endfacet
  facet normal 0.956941 0.290283 0
    outer loop
      vertex 5.94236 72.1653 75
      vertex 5.77164 72.7281 7.06822e-16
      vertex 5.77164 72.7281 75
    endloop
  endfacet
  facet normal 0.956941 0.290283 0
    outer loop
      vertex 5.77164 72.7281 7.06822e-16
      vertex 5.94236 72.1653 75
      vertex 5.94236 72.1653 7.27729e-16
    endloop
  endfacet
  facet normal 0.773007 0.634397 0
    outer loop
      vertex 5.49441 73.2467 75
      vertex 5.12132 73.7013 6.27181e-16
      vertex 5.12132 73.7013 75
    endloop
  endfacet
  facet normal 0.773007 0.634397 0
    outer loop
      vertex 5.12132 73.7013 6.27181e-16
      vertex 5.49441 73.2467 75
      vertex 5.49441 73.2467 6.72871e-16
    endloop
  endfacet
  facet normal -0.77301 -0.634393 0
    outer loop
      vertex -58.4613 -5.12132 -7.15945e-15
      vertex -58.8344 -4.66671 75
      vertex -58.8344 -4.66671 -7.20514e-15
    endloop
  endfacet
  facet normal -0.77301 -0.634393 0
    outer loop
      vertex -58.8344 -4.66671 75
      vertex -58.4613 -5.12132 -7.15945e-15
      vertex -58.4613 -5.12132 75
    endloop
  endfacet
  facet normal -0.956939 -0.290288 0
    outer loop
      vertex -59.1116 -4.14805 -7.23909e-15
      vertex -59.2824 -3.58527 75
      vertex -59.2824 -3.58527 -7.25999e-15
    endloop
  endfacet
  facet normal -0.956939 -0.290288 0
    outer loop
      vertex -59.2824 -3.58527 75
      vertex -59.1116 -4.14805 -7.23909e-15
      vertex -59.1116 -4.14805 75
    endloop
  endfacet
  facet normal 0 0 1
    outer loop
      vertex 4 72.5 75
      vertex 6 71.58 75
      vertex 5.94236 72.1653 75
    endloop
  endfacet
  facet normal 0 0 1
    outer loop
      vertex 6 71.58 75
      vertex 4 72.5 75
      vertex 6 -3 75
    endloop
  endfacet
  facet normal -0 0 1
    outer loop
      vertex 4 72.5 75
      vertex 5.94236 72.1653 75
      vertex 5.77164 72.7281 75
    endloop
  endfacet
  facet normal 0 0 1
    outer loop
      vertex 4 -4 75
      vertex 6 -3 75
      vertex 4 72.5 75
    endloop
  endfacet
  facet normal 0 0 1
    outer loop
      vertex 4 72.5 75
      vertex 5.77164 72.7281 75
      vertex 5.49441 73.2467 75
    endloop
  endfacet
  facet normal 0 0 1
    outer loop
      vertex 6 -3 75
      vertex 4 -4 75
      vertex 5.94236 -3.58527 75
    endloop
  endfacet
  facet normal 0 0 1
    outer loop
      vertex 4 72.5 75
      vertex 5.49441 73.2467 75
      vertex 5.12132 73.7013 75
    endloop
  endfacet
  facet normal 0 0 1
    outer loop
      vertex 5.94236 -3.58527 75
      vertex 4 -4 75
      vertex 5.77164 -4.14805 75
    endloop
  endfacet
  facet normal 0 0 1
    outer loop
      vertex 4 72.5 75
      vertex 5.12132 73.7013 75
      vertex 4.66671 74.0744 75
    endloop
  endfacet
  facet normal 0 0 1
    outer loop
      vertex 5.77164 -4.14805 75
      vertex 4 -4 75
      vertex 5.49441 -4.66671 75
    endloop
  endfacet
  facet normal 0 0 1
    outer loop
      vertex 4 72.5 75
      vertex 4.66671 74.0744 75
      vertex 4.14805 74.3516 75
    endloop
  endfacet
  facet normal 0 0 1
    outer loop
      vertex 5.49441 -4.66671 75
      vertex 4 -4 75
      vertex 5.12132 -5.12132 75
    endloop
  endfacet
  facet normal 0 0 1
    outer loop
      vertex 5.12132 -5.12132 75
      vertex 4 -4 75
      vertex 4.66671 -5.49441 75
    endloop
  endfacet
  facet normal 0 0 1
    outer loop
      vertex 3.58527 74.5224 75
      vertex 4 72.5 75
      vertex 4.14805 74.3516 75
    endloop
  endfacet
  facet normal 0 0 1
    outer loop
      vertex 3 74.58 75
      vertex 4 72.5 75
      vertex 3.58527 74.5224 75
    endloop
  endfacet
  facet normal 0 0 1
    outer loop
      vertex 3 74.58 75
      vertex -55.7683 72.5 75
      vertex 4 72.5 75
    endloop
  endfacet
  facet normal 0 -0 1
    outer loop
      vertex -55.7683 72.5 75
      vertex 3 74.58 75
      vertex -56.34 74.58 75
    endloop
  endfacet
  facet normal 0 0 1
    outer loop
      vertex 4.66671 -5.49441 75
      vertex 4 -4 75
      vertex 4.14805 -5.77164 75
    endloop
  endfacet
  facet normal 0 0 1
    outer loop
      vertex 4 -4 75
      vertex 3.58527 -5.94236 75
      vertex 4.14805 -5.77164 75
    endloop
  endfacet
  facet normal -0 0 1
    outer loop
      vertex 2.73098 -4 75
      vertex 3.58527 -5.94236 75
      vertex 4 -4 75
    endloop
  endfacet
  facet normal 0 0 1
    outer loop
      vertex 3.58527 -5.94236 75
      vertex 2.73098 -4 75
      vertex 3 -6 75
    endloop
  endfacet
  facet normal 0 0 1
    outer loop
      vertex -55.7683 72.5 75
      vertex 2.73098 -4 75
      vertex 4 -4 75
    endloop
  endfacet
  facet normal 0 0 1
    outer loop
      vertex -57.0374 72.5 75
      vertex -56.34 74.58 75
      vertex -56.9253 74.5224 75
    endloop
  endfacet
  facet normal 0 0 1
    outer loop
      vertex -55.7683 72.5 75
      vertex -57.0374 72.5 75
      vertex 2.73098 -4 75
    endloop
  endfacet
  facet normal 0 0 1
    outer loop
      vertex -56.34 74.58 75
      vertex -57.0374 72.5 75
      vertex -55.7683 72.5 75
    endloop
  endfacet
  facet normal -0 0 1
    outer loop
      vertex -57.488 74.3516 75
      vertex -57.0374 72.5 75
      vertex -56.9253 74.5224 75
    endloop
  endfacet
  facet normal -0 0 1
    outer loop
      vertex -58.0067 74.0744 75
      vertex -57.2 72.5 75
      vertex -57.488 74.3516 75
    endloop
  endfacet
  facet normal 0 0 1
    outer loop
      vertex -57.0374 72.5 75
      vertex -57.488 74.3516 75
      vertex -57.2 72.5 75
    endloop
  endfacet
  facet normal 0 0 1
    outer loop
      vertex 2.73098 -4 75
      vertex -56.34 -6 75
      vertex 3 -6 75
    endloop
  endfacet
  facet normal -0 0 1
    outer loop
      vertex -57.2 -4 75
      vertex -56.34 -6 75
      vertex 2.73098 -4 75
    endloop
  endfacet
  facet normal 0 0 1
    outer loop
      vertex -56.34 -6 75
      vertex -57.2 -4 75
      vertex -56.9253 -5.94236 75
    endloop
  endfacet
  facet normal 0 0 1
    outer loop
      vertex -57.2 -4 75
      vertex -57.488 -5.77164 75
      vertex -56.9253 -5.94236 75
    endloop
  endfacet
  facet normal 0 0 1
    outer loop
      vertex -59.34 -3 75
      vertex -57.2 72.5 75
      vertex -59.34 71.58 75
    endloop
  endfacet
  facet normal -0 0 1
    outer loop
      vertex -58.4613 73.7013 75
      vertex -57.2 72.5 75
      vertex -58.0067 74.0744 75
    endloop
  endfacet
  facet normal 0 0 1
    outer loop
      vertex -57.2 72.5 75
      vertex -59.34 -3 75
      vertex -57.2 -4 75
    endloop
  endfacet
  facet normal -0 0 1
    outer loop
      vertex -58.8344 73.2467 75
      vertex -57.2 72.5 75
      vertex -58.4613 73.7013 75
    endloop
  endfacet
  facet normal -0 -0 1
    outer loop
      vertex -59.2824 -3.58527 75
      vertex -57.2 -4 75
      vertex -59.34 -3 75
    endloop
  endfacet
  facet normal -0 0 1
    outer loop
      vertex -59.1116 72.7281 75
      vertex -57.2 72.5 75
      vertex -58.8344 73.2467 75
    endloop
  endfacet
  facet normal 0 0 1
    outer loop
      vertex -57.2 -4 75
      vertex -58.0067 -5.49441 75
      vertex -57.488 -5.77164 75
    endloop
  endfacet
  facet normal 0 0 1
    outer loop
      vertex -59.2824 72.1653 75
      vertex -57.2 72.5 75
      vertex -59.1116 72.7281 75
    endloop
  endfacet
  facet normal 0 0 1
    outer loop
      vertex -57.2 -4 75
      vertex -58.4613 -5.12132 75
      vertex -58.0067 -5.49441 75
    endloop
  endfacet
  facet normal 0 0 1
    outer loop
      vertex -57.2 72.5 75
      vertex -59.2824 72.1653 75
      vertex -59.34 71.58 75
    endloop
  endfacet
  facet normal 0 0 1
    outer loop
      vertex -57.2 -4 75
      vertex -58.8344 -4.66671 75
      vertex -58.4613 -5.12132 75
    endloop
  endfacet
  facet normal 0 0 1
    outer loop
      vertex -57.2 -4 75
      vertex -59.1116 -4.14805 75
      vertex -58.8344 -4.66671 75
    endloop
  endfacet
  facet normal 0 0 1
    outer loop
      vertex -57.2 -4 75
      vertex -59.2824 -3.58527 75
      vertex -59.1116 -4.14805 75
    endloop
  endfacet
  facet normal -0.881922 0.471395 0
    outer loop
      vertex -59.1116 72.7281 -7.23909e-15
      vertex -58.8344 73.2467 75
      vertex -58.8344 73.2467 -7.20514e-15
    endloop
  endfacet
  facet normal -0.881922 0.471395 0
    outer loop
      vertex -58.8344 73.2467 75
      vertex -59.1116 72.7281 -7.23909e-15
      vertex -59.1116 72.7281 75
    endloop
  endfacet
  facet normal -0.95694 0.290286 0
    outer loop
      vertex -59.2824 72.1653 -7.25999e-15
      vertex -59.1116 72.7281 75
      vertex -59.1116 72.7281 -7.23909e-15
    endloop
  endfacet
  facet normal -0.95694 0.290286 0
    outer loop
      vertex -59.1116 72.7281 75
      vertex -59.2824 72.1653 -7.25999e-15
      vertex -59.2824 72.1653 75
    endloop
  endfacet
  facet normal -0.773007 0.634397 0
    outer loop
      vertex -58.8344 73.2467 -7.20514e-15
      vertex -58.4613 73.7013 75
      vertex -58.4613 73.7013 -7.15945e-15
    endloop
  endfacet
  facet normal -0.773007 0.634397 0
    outer loop
      vertex -58.4613 73.7013 75
      vertex -58.8344 73.2467 -7.20514e-15
      vertex -58.8344 73.2467 75
    endloop
  endfacet
  facet normal -0.290282 0.956941 0
    outer loop
      vertex -56.9253 74.5224 -6.97133e-15
      vertex -57.488 74.3516 75
      vertex -56.9253 74.5224 75
    endloop
  endfacet
  facet normal -0.290282 0.956941 0
    outer loop
      vertex -57.488 74.3516 75
      vertex -56.9253 74.5224 -6.97133e-15
      vertex -57.488 74.3516 -7.04026e-15
    endloop
  endfacet
  facet normal 0.290282 0.956941 -0
    outer loop
      vertex 4.14805 74.3516 5.0799e-16
      vertex 3.58527 74.5224 75
      vertex 4.14805 74.3516 75
    endloop
  endfacet
  facet normal 0.290282 0.956941 0
    outer loop
      vertex 3.58527 74.5224 75
      vertex 4.14805 74.3516 5.0799e-16
      vertex 3.58527 74.5224 4.39069e-16
    endloop
  endfacet
  facet normal 0.0980231 0.995184 -0
    outer loop
      vertex 3.58527 74.5224 4.39069e-16
      vertex 3 74.58 75
      vertex 3.58527 74.5224 75
    endloop
  endfacet
  facet normal 0.0980231 0.995184 0
    outer loop
      vertex 3 74.58 75
      vertex 3.58527 74.5224 4.39069e-16
      vertex 3 74.58 3.67394e-16
    endloop
  endfacet
  facet normal 0.471396 0.881922 -0
    outer loop
      vertex 4.66671 74.0744 5.71507e-16
      vertex 4.14805 74.3516 75
      vertex 4.66671 74.0744 75
    endloop
  endfacet
  facet normal 0.471396 0.881922 0
    outer loop
      vertex 4.14805 74.3516 75
      vertex 4.66671 74.0744 5.71507e-16
      vertex 4.14805 74.3516 5.0799e-16
    endloop
  endfacet
  facet normal -0.881922 -0.471396 0
    outer loop
      vertex -58.8344 -4.66671 -7.20514e-15
      vertex -59.1116 -4.14805 75
      vertex -59.1116 -4.14805 -7.23909e-15
    endloop
  endfacet
  facet normal -0.881922 -0.471396 0
    outer loop
      vertex -59.1116 -4.14805 75
      vertex -58.8344 -4.66671 -7.20514e-15
      vertex -58.8344 -4.66671 75
    endloop
  endfacet
  facet normal -0.0980185 -0.995185 0
    outer loop
      vertex -56.9253 -5.94236 75
      vertex -56.34 -6 -6.89966e-15
      vertex -56.34 -6 75
    endloop
  endfacet
  facet normal -0.0980185 -0.995185 0
    outer loop
      vertex -56.34 -6 -6.89966e-15
      vertex -56.9253 -5.94236 75
      vertex -56.9253 -5.94236 -6.97133e-15
    endloop
  endfacet
  facet normal -0.471395 -0.881922 0
    outer loop
      vertex -58.0067 -5.49441 75
      vertex -57.488 -5.77164 -7.04026e-15
      vertex -57.488 -5.77164 75
    endloop
  endfacet
  facet normal -0.471395 -0.881922 0
    outer loop
      vertex -57.488 -5.77164 -7.04026e-15
      vertex -58.0067 -5.49441 75
      vertex -58.0067 -5.49441 -7.10377e-15
    endloop
  endfacet
  facet normal 0.634393 -0.77301 0
    outer loop
      vertex 4.66671 -5.49441 75
      vertex 5.12132 -5.12132 6.27181e-16
      vertex 5.12132 -5.12132 75
    endloop
  endfacet
  facet normal 0.634393 -0.77301 0
    outer loop
      vertex 5.12132 -5.12132 6.27181e-16
      vertex 4.66671 -5.49441 75
      vertex 4.66671 -5.49441 5.71507e-16
    endloop
  endfacet
  facet normal 0.290285 -0.95694 0
    outer loop
      vertex 3.58527 -5.94236 75
      vertex 4.14805 -5.77164 5.0799e-16
      vertex 4.14805 -5.77164 75
    endloop
  endfacet
  facet normal 0.290285 -0.95694 0
    outer loop
      vertex 4.14805 -5.77164 5.0799e-16
      vertex 3.58527 -5.94236 75
      vertex 3.58527 -5.94236 4.39069e-16
    endloop
  endfacet
  facet normal 0.881922 -0.471396 0
    outer loop
      vertex 5.49441 -4.66671 75
      vertex 5.77164 -4.14805 7.06822e-16
      vertex 5.77164 -4.14805 75
    endloop
  endfacet
  facet normal 0.881922 -0.471396 0
    outer loop
      vertex 5.77164 -4.14805 7.06822e-16
      vertex 5.49441 -4.66671 75
      vertex 5.49441 -4.66671 6.72871e-16
    endloop
  endfacet
  facet normal 0.995185 -0.0980183 0
    outer loop
      vertex 5.94236 -3.58527 75
      vertex 6 -3 7.34788e-16
      vertex 6 -3 75
    endloop
  endfacet
  facet normal 0.995185 -0.0980183 0
    outer loop
      vertex 6 -3 7.34788e-16
      vertex 5.94236 -3.58527 75
      vertex 5.94236 -3.58527 7.27729e-16
    endloop
  endfacet
  facet normal -0.290285 -0.95694 0
    outer loop
      vertex -57.488 -5.77164 75
      vertex -56.9253 -5.94236 -6.97133e-15
      vertex -56.9253 -5.94236 75
    endloop
  endfacet
  facet normal -0.290285 -0.95694 0
    outer loop
      vertex -56.9253 -5.94236 -6.97133e-15
      vertex -57.488 -5.77164 75
      vertex -57.488 -5.77164 -7.04026e-15
    endloop
  endfacet
  facet normal 0.471396 -0.881922 0
    outer loop
      vertex 4.14805 -5.77164 75
      vertex 4.66671 -5.49441 5.71507e-16
      vertex 4.66671 -5.49441 75
    endloop
  endfacet
  facet normal 0.471396 -0.881922 0
    outer loop
      vertex 4.66671 -5.49441 5.71507e-16
      vertex 4.14805 -5.77164 75
      vertex 4.14805 -5.77164 5.0799e-16
    endloop
  endfacet
  facet normal 0.95694 -0.290285 0
    outer loop
      vertex 5.77164 -4.14805 75
      vertex 5.94236 -3.58527 7.27729e-16
      vertex 5.94236 -3.58527 75
    endloop
  endfacet
  facet normal 0.95694 -0.290285 0
    outer loop
      vertex 5.94236 -3.58527 7.27729e-16
      vertex 5.77164 -4.14805 75
      vertex 5.77164 -4.14805 7.06822e-16
    endloop
  endfacet
  facet normal -1 0 0
    outer loop
      vertex 4 -4 2
      vertex 4 72.5 75
      vertex 4 72.5 2
    endloop
  endfacet
  facet normal -1 -0 0
    outer loop
      vertex 4 72.5 75
      vertex 4 -4 2
      vertex 4 -4 75
    endloop
  endfacet
  facet normal 0 0 1
    outer loop
      vertex 4 72.5 2
      vertex -55.7683 72.5 2
      vertex 4 -4 2
    endloop
  endfacet
  facet normal 0 0 1
    outer loop
      vertex -57.2 -4 2
      vertex -57.0374 72.5 2
      vertex -57.2 72.5 2
    endloop
  endfacet
  facet normal 0 0 1
    outer loop
      vertex -57.0374 72.5 2
      vertex -57.2 -4 2
      vertex 2.73098 -4 2
    endloop
  endfacet
  facet normal 1 -0 0
    outer loop
      vertex -57.2 -4 75
      vertex -57.2 72.5 2
      vertex -57.2 72.5 75
    endloop
  endfacet
  facet normal 1 0 0
    outer loop
      vertex -57.2 72.5 2
      vertex -57.2 -4 75
      vertex -57.2 -4 2
    endloop
  endfacet
  facet normal 0 1 -0
    outer loop
      vertex 2.73098 -4 2
      vertex -57.2 -4 75
      vertex 2.73098 -4 75
    endloop
  endfacet
  facet normal 0 1 0
    outer loop
      vertex -57.2 -4 75
      vertex 2.73098 -4 2
      vertex -57.2 -4 2
    endloop
  endfacet
  facet normal 0 -1 0
    outer loop
      vertex -57.2 72.5 2
      vertex -57.0374 72.5 75
      vertex -57.2 72.5 75
    endloop
  endfacet
  facet normal 0 -1 -0
    outer loop
      vertex -57.0374 72.5 75
      vertex -57.2 72.5 2
      vertex -57.0374 72.5 2
    endloop
  endfacet
  facet normal 0 -1 0
    outer loop
      vertex -55.7683 72.5 2
      vertex 4 72.5 75
      vertex -55.7683 72.5 75
    endloop
  endfacet
  facet normal 0 -1 -0
    outer loop
      vertex 4 72.5 75
      vertex -55.7683 72.5 2
      vertex 4 72.5 2
    endloop
  endfacet
  facet normal 0.788011 0.615661 0
    outer loop
      vertex 4 -4 75
      vertex -55.7683 72.5 2
      vertex -55.7683 72.5 75
    endloop
  endfacet
  facet normal 0.788011 0.615661 0
    outer loop
      vertex -55.7683 72.5 2
      vertex 4 -4 75
      vertex 4 -4 2
    endloop
  endfacet
  facet normal -0.788011 -0.615661 0
    outer loop
      vertex 2.73098 -4 2
      vertex -57.0374 72.5 75
      vertex -57.0374 72.5 2
    endloop
  endfacet
  facet normal -0.788011 -0.615661 0
    outer loop
      vertex -57.0374 72.5 75
      vertex 2.73098 -4 2
      vertex 2.73098 -4 75
    endloop
  endfacet
endsolid OpenSCAD_Model
