solid OpenSCAD_Model
  facet normal -1 0 0
    outer loop
      vertex 0 0 0
      vertex 0 93.75 42.9
      vertex 0 93.75 0
    endloop
  endfacet
  facet normal -1 -0 0
    outer loop
      vertex 0 93.75 42.9
      vertex 0 0 0
      vertex 0 0 42.9
    endloop
  endfacet
  facet normal 0 0 1
    outer loop
      vertex 175.6 93.75 42.9
      vertex 173.7 91.85 42.9
      vertex 175.6 0 42.9
    endloop
  endfacet
  facet normal 0 0 1
    outer loop
      vertex 175.6 93.75 42.9
      vertex 1.9 91.85 42.9
      vertex 173.7 91.85 42.9
    endloop
  endfacet
  facet normal 0 0 1
    outer loop
      vertex 1.9 91.85 42.9
      vertex 0 93.75 42.9
      vertex 1.9 1.9 42.9
    endloop
  endfacet
  facet normal -0 0 1
    outer loop
      vertex 0 93.75 42.9
      vertex 1.9 91.85 42.9
      vertex 175.6 93.75 42.9
    endloop
  endfacet
  facet normal -0 0 1
    outer loop
      vertex 173.7 1.9 42.9
      vertex 175.6 0 42.9
      vertex 173.7 91.85 42.9
    endloop
  endfacet
  facet normal -0 0 1
    outer loop
      vertex 1.9 1.9 42.9
      vertex 175.6 0 42.9
      vertex 173.7 1.9 42.9
    endloop
  endfacet
  facet normal 0 0 1
    outer loop
      vertex 1.9 1.9 42.9
      vertex 0 0 42.9
      vertex 175.6 0 42.9
    endloop
  endfacet
  facet normal 0 0 1
    outer loop
      vertex 0 0 42.9
      vertex 1.9 1.9 42.9
      vertex 0 93.75 42.9
    endloop
  endfacet
  facet normal 1 -0 0
    outer loop
      vertex 175.6 0 42.9
      vertex 175.6 93.75 0
      vertex 175.6 93.75 42.9
    endloop
  endfacet
  facet normal 1 0 0
    outer loop
      vertex 175.6 93.75 0
      vertex 175.6 0 42.9
      vertex 175.6 0 0
    endloop
  endfacet
  facet normal 0 0 -1
    outer loop
      vertex 0 0 0
      vertex 175.6 93.75 0
      vertex 175.6 0 0
    endloop
  endfacet
  facet normal -0 0 -1
    outer loop
      vertex 175.6 93.75 0
      vertex 0 0 0
      vertex 0 93.75 0
    endloop
  endfacet
  facet normal 0 -1 0
    outer loop
      vertex 0 0 0
      vertex 175.6 0 42.9
      vertex 0 0 42.9
    endloop
  endfacet
  facet normal 0 -1 -0
    outer loop
      vertex 175.6 0 42.9
      vertex 0 0 0
      vertex 175.6 0 0
    endloop
  endfacet
  facet normal 0 1 -0
    outer loop
      vertex 175.6 93.75 0
      vertex 0 93.75 42.9
      vertex 175.6 93.75 42.9
    endloop
  endfacet
  facet normal 0 1 0
    outer loop
      vertex 0 93.75 42.9
      vertex 175.6 93.75 0
      vertex 0 93.75 0
    endloop
  endfacet
  facet normal 1 -0 0
    outer loop
      vertex 1.9 1.9 14.3
      vertex 1.9 91.85 2
      vertex 1.9 91.85 14.3
    endloop
  endfacet
  facet normal 1 0 0
    outer loop
      vertex 1.9 91.85 2
      vertex 1.9 1.9 14.3
      vertex 1.9 1.9 2
    endloop
  endfacet
  facet normal 1 -0 0
    outer loop
      vertex 1.9 1.9 42.9
      vertex 1.9 91.85 16.3
      vertex 1.9 91.85 42.9
    endloop
  endfacet
  facet normal 1 0 0
    outer loop
      vertex 1.9 91.85 16.3
      vertex 1.9 1.9 42.9
      vertex 1.9 1.9 16.3
    endloop
  endfacet
  facet normal -1 0 0
    outer loop
      vertex 173.7 1.9 2
      vertex 173.7 91.85 42.9
      vertex 173.7 91.85 2
    endloop
  endfacet
  facet normal -1 -0 0
    outer loop
      vertex 173.7 91.85 42.9
      vertex 173.7 1.9 2
      vertex 173.7 1.9 42.9
    endloop
  endfacet
  facet normal 0 -1 0
    outer loop
      vertex 1.9 91.85 14.3
      vertex 1.9 91.85 2
      vertex 132.6 91.85 14.3
    endloop
  endfacet
  facet normal 0 -1 0
    outer loop
      vertex 132.6 91.85 16.3
      vertex 1.9 91.85 42.9
      vertex 1.9 91.85 16.3
    endloop
  endfacet
  facet normal 0 -1 0
    outer loop
      vertex 1.9 91.85 42.9
      vertex 132.6 91.85 16.3
      vertex 173.7 91.85 42.9
    endloop
  endfacet
  facet normal 0 -1 0
    outer loop
      vertex 173.7 91.85 2
      vertex 132.6 91.85 16.3
      vertex 132.6 91.85 14.3
    endloop
  endfacet
  facet normal 0 -1 0
    outer loop
      vertex 132.6 91.85 16.3
      vertex 173.7 91.85 2
      vertex 173.7 91.85 42.9
    endloop
  endfacet
  facet normal 0 -1 0
    outer loop
      vertex 173.7 91.85 2
      vertex 132.6 91.85 14.3
      vertex 1.9 91.85 2
    endloop
  endfacet
  facet normal -0 0 1
    outer loop
      vertex 1.9 91.85 2
      vertex 173.7 1.9 2
      vertex 173.7 91.85 2
    endloop
  endfacet
  facet normal 0 0 1
    outer loop
      vertex 173.7 1.9 2
      vertex 1.9 91.85 2
      vertex 1.9 1.9 2
    endloop
  endfacet
  facet normal 0 1 0
    outer loop
      vertex 173.7 1.9 42.9
      vertex 132.6 1.9 16.3
      vertex 1.9 1.9 42.9
    endloop
  endfacet
  facet normal 0 1 -0
    outer loop
      vertex 173.7 1.9 2
      vertex 132.6 1.9 16.3
      vertex 173.7 1.9 42.9
    endloop
  endfacet
  facet normal 0 1 0
    outer loop
      vertex 132.6 1.9 16.3
      vertex 173.7 1.9 2
      vertex 132.6 1.9 14.3
    endloop
  endfacet
  facet normal 0 1 0
    outer loop
      vertex 1.9 1.9 2
      vertex 132.6 1.9 14.3
      vertex 173.7 1.9 2
    endloop
  endfacet
  facet normal 0 1 0
    outer loop
      vertex 132.6 1.9 14.3
      vertex 1.9 1.9 2
      vertex 1.9 1.9 14.3
    endloop
  endfacet
  facet normal 0 1 0
    outer loop
      vertex 1.9 1.9 42.9
      vertex 132.6 1.9 16.3
      vertex 1.9 1.9 16.3
    endloop
  endfacet
  facet normal 1 0 0
    outer loop
      vertex 4 89.35 16.3
      vertex 4 5.4 16.3
      vertex 4 89.35 15.3
    endloop
  endfacet
  facet normal 1 -0 0
    outer loop
      vertex 4 89.35 15.3
      vertex 4 89.95 14.3
      vertex 4 89.95 15.3
    endloop
  endfacet
  facet normal 1 0 0
    outer loop
      vertex 4 5.4 15.3
      vertex 4 89.35 15.3
      vertex 4 5.4 16.3
    endloop
  endfacet
  facet normal 1 0 0
    outer loop
      vertex 4 89.35 15.3
      vertex 4 5.4 15.3
      vertex 4 89.95 14.3
    endloop
  endfacet
  facet normal 1 0 0
    outer loop
      vertex 4 4.4 14.3
      vertex 4 5.4 15.3
      vertex 4 4.4 15.3
    endloop
  endfacet
  facet normal 1 0 0
    outer loop
      vertex 4 5.4 15.3
      vertex 4 4.4 14.3
      vertex 4 89.95 14.3
    endloop
  endfacet
  facet normal -1 0 0
    outer loop
      vertex 131.8 6.4 14.3
      vertex 131.8 5.4 15.3
      vertex 131.8 6.4 16.3
    endloop
  endfacet
  facet normal -1 0 0
    outer loop
      vertex 131.8 4.4 14.3
      vertex 131.8 5.4 15.3
      vertex 131.8 6.4 14.3
    endloop
  endfacet
  facet normal -1 -0 0
    outer loop
      vertex 131.8 5.4 15.3
      vertex 131.8 4.4 14.3
      vertex 131.8 4.4 15.3
    endloop
  endfacet
  facet normal -1 -0 0
    outer loop
      vertex 131.8 6.4 16.3
      vertex 131.8 5.4 15.3
      vertex 131.8 5.4 16.3
    endloop
  endfacet
  facet normal -1 0 0
    outer loop
      vertex 131.8 89.95 14.3
      vertex 131.8 89.35 15.3
      vertex 131.8 89.95 15.3
    endloop
  endfacet
  facet normal -1 0 0
    outer loop
      vertex 131.8 88.35 14.3
      vertex 131.8 89.35 15.3
      vertex 131.8 89.95 14.3
    endloop
  endfacet
  facet normal -1 0 0
    outer loop
      vertex 131.8 88.35 16.3
      vertex 131.8 89.35 15.3
      vertex 131.8 88.35 14.3
    endloop
  endfacet
  facet normal -1 0 0
    outer loop
      vertex 131.8 89.35 15.3
      vertex 131.8 88.35 16.3
      vertex 131.8 89.35 16.3
    endloop
  endfacet
  facet normal 0 -1 0
    outer loop
      vertex 4 89.35 15.3
      vertex 131.8 89.35 16.3
      vertex 4 89.35 16.3
    endloop
  endfacet
  facet normal 0 -1 -0
    outer loop
      vertex 131.8 89.35 16.3
      vertex 4 89.35 15.3
      vertex 131.8 89.35 15.3
    endloop
  endfacet
  facet normal 0 0 -1
    outer loop
      vertex 4 89.35 15.3
      vertex 131.8 89.95 15.3
      vertex 131.8 89.35 15.3
    endloop
  endfacet
  facet normal -0 0 -1
    outer loop
      vertex 131.8 89.95 15.3
      vertex 4 89.35 15.3
      vertex 4 89.95 15.3
    endloop
  endfacet
  facet normal 0 0 -1
    outer loop
      vertex 4 4.4 15.3
      vertex 131.8 5.4 15.3
      vertex 131.8 4.4 15.3
    endloop
  endfacet
  facet normal -0 0 -1
    outer loop
      vertex 131.8 5.4 15.3
      vertex 4 4.4 15.3
      vertex 4 5.4 15.3
    endloop
  endfacet
  facet normal 0 1 -0
    outer loop
      vertex 131.8 5.4 15.3
      vertex 4 5.4 16.3
      vertex 131.8 5.4 16.3
    endloop
  endfacet
  facet normal 0 1 0
    outer loop
      vertex 4 5.4 16.3
      vertex 131.8 5.4 15.3
      vertex 4 5.4 15.3
    endloop
  endfacet
  facet normal 0 -1 0
    outer loop
      vertex 131.8 88.35 14.3
      vertex 132.6 88.35 16.3
      vertex 131.8 88.35 16.3
    endloop
  endfacet
  facet normal 0 -1 -0
    outer loop
      vertex 132.6 88.35 16.3
      vertex 131.8 88.35 14.3
      vertex 132.6 88.35 14.3
    endloop
  endfacet
  facet normal 0 1 -0
    outer loop
      vertex 132.6 6.4 14.3
      vertex 131.8 6.4 16.3
      vertex 132.6 6.4 16.3
    endloop
  endfacet
  facet normal 0 1 0
    outer loop
      vertex 131.8 6.4 16.3
      vertex 132.6 6.4 14.3
      vertex 131.8 6.4 14.3
    endloop
  endfacet
  facet normal 0 -1 0
    outer loop
      vertex 4 89.95 14.3
      vertex 131.8 89.95 15.3
      vertex 4 89.95 15.3
    endloop
  endfacet
  facet normal 0 -1 -0
    outer loop
      vertex 131.8 89.95 15.3
      vertex 4 89.95 14.3
      vertex 131.8 89.95 14.3
    endloop
  endfacet
  facet normal 0 1 -0
    outer loop
      vertex 131.8 4.4 14.3
      vertex 4 4.4 15.3
      vertex 131.8 4.4 15.3
    endloop
  endfacet
  facet normal 0 1 0
    outer loop
      vertex 4 4.4 15.3
      vertex 131.8 4.4 14.3
      vertex 4 4.4 14.3
    endloop
  endfacet
  facet normal 0 0 1
    outer loop
      vertex 132.6 91.85 16.3
      vertex 131.8 89.35 16.3
      vertex 132.6 88.35 16.3
    endloop
  endfacet
  facet normal 0 0 1
    outer loop
      vertex 132.6 91.85 16.3
      vertex 4 89.35 16.3
      vertex 131.8 89.35 16.3
    endloop
  endfacet
  facet normal 0 0 1
    outer loop
      vertex 4 89.35 16.3
      vertex 1.9 91.85 16.3
      vertex 4 5.4 16.3
    endloop
  endfacet
  facet normal -0 0 1
    outer loop
      vertex 1.9 91.85 16.3
      vertex 4 89.35 16.3
      vertex 132.6 91.85 16.3
    endloop
  endfacet
  facet normal 0 0 1
    outer loop
      vertex 132.6 88.35 16.3
      vertex 131.8 89.35 16.3
      vertex 131.8 88.35 16.3
    endloop
  endfacet
  facet normal 0 0 1
    outer loop
      vertex 131.8 5.4 16.3
      vertex 132.6 6.4 16.3
      vertex 131.8 6.4 16.3
    endloop
  endfacet
  facet normal 0 0 1
    outer loop
      vertex 132.6 6.4 16.3
      vertex 131.8 5.4 16.3
      vertex 132.6 1.9 16.3
    endloop
  endfacet
  facet normal -0 0 1
    outer loop
      vertex 4 5.4 16.3
      vertex 132.6 1.9 16.3
      vertex 131.8 5.4 16.3
    endloop
  endfacet
  facet normal 0 0 1
    outer loop
      vertex 4 5.4 16.3
      vertex 1.9 1.9 16.3
      vertex 132.6 1.9 16.3
    endloop
  endfacet
  facet normal 0 0 1
    outer loop
      vertex 1.9 1.9 16.3
      vertex 4 5.4 16.3
      vertex 1.9 91.85 16.3
    endloop
  endfacet
  facet normal 1 -0 0
    outer loop
      vertex 132.6 1.9 16.3
      vertex 132.6 6.4 14.3
      vertex 132.6 6.4 16.3
    endloop
  endfacet
  facet normal 1 0 0
    outer loop
      vertex 132.6 6.4 14.3
      vertex 132.6 1.9 16.3
      vertex 132.6 1.9 14.3
    endloop
  endfacet
  facet normal 1 -0 0
    outer loop
      vertex 132.6 88.35 16.3
      vertex 132.6 91.85 14.3
      vertex 132.6 91.85 16.3
    endloop
  endfacet
  facet normal 1 0 0
    outer loop
      vertex 132.6 91.85 14.3
      vertex 132.6 88.35 16.3
      vertex 132.6 88.35 14.3
    endloop
  endfacet
  facet normal 0 0 -1
    outer loop
      vertex 132.6 1.9 14.3
      vertex 131.8 4.4 14.3
      vertex 132.6 6.4 14.3
    endloop
  endfacet
  facet normal 0 0 -1
    outer loop
      vertex 132.6 1.9 14.3
      vertex 4 4.4 14.3
      vertex 131.8 4.4 14.3
    endloop
  endfacet
  facet normal 0 0 -1
    outer loop
      vertex 1.9 91.85 14.3
      vertex 4 4.4 14.3
      vertex 1.9 1.9 14.3
    endloop
  endfacet
  facet normal 0 0 -1
    outer loop
      vertex 1.9 1.9 14.3
      vertex 4 4.4 14.3
      vertex 132.6 1.9 14.3
    endloop
  endfacet
  facet normal -0 0 -1
    outer loop
      vertex 132.6 6.4 14.3
      vertex 131.8 4.4 14.3
      vertex 131.8 6.4 14.3
    endloop
  endfacet
  facet normal 0 0 -1
    outer loop
      vertex 131.8 89.95 14.3
      vertex 132.6 88.35 14.3
      vertex 131.8 88.35 14.3
    endloop
  endfacet
  facet normal 0 0 -1
    outer loop
      vertex 132.6 88.35 14.3
      vertex 131.8 89.95 14.3
      vertex 132.6 91.85 14.3
    endloop
  endfacet
  facet normal 0 0 -1
    outer loop
      vertex 4 89.95 14.3
      vertex 132.6 91.85 14.3
      vertex 131.8 89.95 14.3
    endloop
  endfacet
  facet normal 0 0 -1
    outer loop
      vertex 4 89.95 14.3
      vertex 1.9 91.85 14.3
      vertex 132.6 91.85 14.3
    endloop
  endfacet
  facet normal 0 0 -1
    outer loop
      vertex 4 4.4 14.3
      vertex 1.9 91.85 14.3
      vertex 4 89.95 14.3
    endloop
  endfacet
endsolid OpenSCAD_Model
