solid OpenSCAD_Model
  facet normal -1 0 0
    outer loop
      vertex 0 0 0
      vertex 0 93.75 42.9
      vertex 0 93.75 0
    endloop
  endfacet
  facet normal -1 -0 0
    outer loop
      vertex 0 93.75 42.9
      vertex 0 0 0
      vertex 0 0 42.9
    endloop
  endfacet
  facet normal 0 0 1
    outer loop
      vertex 175.6 93.75 42.9
      vertex 173.4 91.55 42.9
      vertex 175.6 0 42.9
    endloop
  endfacet
  facet normal -0 0 1
    outer loop
      vertex 0 93.75 42.9
      vertex 173.4 91.55 42.9
      vertex 175.6 93.75 42.9
    endloop
  endfacet
  facet normal 0 0 1
    outer loop
      vertex 0 0 42.9
      vertex 2 91.55 42.9
      vertex 0 93.75 42.9
    endloop
  endfacet
  facet normal 0 0 1
    outer loop
      vertex 173.4 91.55 42.9
      vertex 0 93.75 42.9
      vertex 2 91.55 42.9
    endloop
  endfacet
  facet normal -0 0 1
    outer loop
      vertex 173.4 2 42.9
      vertex 175.6 0 42.9
      vertex 173.4 91.55 42.9
    endloop
  endfacet
  facet normal 0 0 1
    outer loop
      vertex 0 0 42.9
      vertex 173.4 2 42.9
      vertex 2 2 42.9
    endloop
  endfacet
  facet normal 0 0 1
    outer loop
      vertex 173.4 2 42.9
      vertex 0 0 42.9
      vertex 175.6 0 42.9
    endloop
  endfacet
  facet normal 0 0 1
    outer loop
      vertex 2 91.55 42.9
      vertex 0 0 42.9
      vertex 2 2 42.9
    endloop
  endfacet
  facet normal 1 -0 0
    outer loop
      vertex 175.6 0 42.9
      vertex 175.6 93.75 0
      vertex 175.6 93.75 42.9
    endloop
  endfacet
  facet normal 1 0 0
    outer loop
      vertex 175.6 93.75 0
      vertex 175.6 0 42.9
      vertex 175.6 0 0
    endloop
  endfacet
  facet normal 0 1 -0
    outer loop
      vertex 175.6 93.75 0
      vertex 0 93.75 42.9
      vertex 175.6 93.75 42.9
    endloop
  endfacet
  facet normal 0 1 0
    outer loop
      vertex 0 93.75 42.9
      vertex 175.6 93.75 0
      vertex 0 93.75 0
    endloop
  endfacet
  facet normal 0 0 -1
    outer loop
      vertex 0 0 0
      vertex 175.6 93.75 0
      vertex 175.6 0 0
    endloop
  endfacet
  facet normal -0 0 -1
    outer loop
      vertex 175.6 93.75 0
      vertex 0 0 0
      vertex 0 93.75 0
    endloop
  endfacet
  facet normal 0 -1 0
    outer loop
      vertex 0 0 0
      vertex 175.6 0 42.9
      vertex 0 0 42.9
    endloop
  endfacet
  facet normal 0 -1 -0
    outer loop
      vertex 175.6 0 42.9
      vertex 0 0 0
      vertex 175.6 0 0
    endloop
  endfacet
  facet normal 1 -0 0
    outer loop
      vertex 2 2 42.9
      vertex 2 91.55 16.3
      vertex 2 91.55 42.9
    endloop
  endfacet
  facet normal 1 0 0
    outer loop
      vertex 2 91.55 16.3
      vertex 2 2 42.9
      vertex 2 2 16.3
    endloop
  endfacet
  facet normal 1 -0 0
    outer loop
      vertex 2 2 14.3
      vertex 2 91.55 2
      vertex 2 91.55 14.3
    endloop
  endfacet
  facet normal 1 0 0
    outer loop
      vertex 2 91.55 2
      vertex 2 2 14.3
      vertex 2 2 2
    endloop
  endfacet
  facet normal -1 0 0
    outer loop
      vertex 173.4 2 2
      vertex 173.4 91.55 42.9
      vertex 173.4 91.55 2
    endloop
  endfacet
  facet normal -1 -0 0
    outer loop
      vertex 173.4 91.55 42.9
      vertex 173.4 2 2
      vertex 173.4 2 42.9
    endloop
  endfacet
  facet normal 0 -1 0
    outer loop
      vertex 2 91.55 14.3
      vertex 2 91.55 2
      vertex 133.4 91.55 14.3
    endloop
  endfacet
  facet normal 0 -1 0
    outer loop
      vertex 133.4 91.55 16.3
      vertex 2 91.55 42.9
      vertex 2 91.55 16.3
    endloop
  endfacet
  facet normal 0 -1 0
    outer loop
      vertex 2 91.55 42.9
      vertex 133.4 91.55 16.3
      vertex 173.4 91.55 42.9
    endloop
  endfacet
  facet normal 0 -1 0
    outer loop
      vertex 173.4 91.55 2
      vertex 133.4 91.55 16.3
      vertex 133.4 91.55 14.3
    endloop
  endfacet
  facet normal 0 -1 0
    outer loop
      vertex 133.4 91.55 16.3
      vertex 173.4 91.55 2
      vertex 173.4 91.55 42.9
    endloop
  endfacet
  facet normal 0 -1 0
    outer loop
      vertex 173.4 91.55 2
      vertex 133.4 91.55 14.3
      vertex 2 91.55 2
    endloop
  endfacet
  facet normal -0 0 1
    outer loop
      vertex 2 91.55 2
      vertex 173.4 2 2
      vertex 173.4 91.55 2
    endloop
  endfacet
  facet normal 0 0 1
    outer loop
      vertex 173.4 2 2
      vertex 2 91.55 2
      vertex 2 2 2
    endloop
  endfacet
  facet normal 0 1 0
    outer loop
      vertex 173.4 2 42.9
      vertex 133.4 2 16.3
      vertex 2 2 42.9
    endloop
  endfacet
  facet normal 0 1 -0
    outer loop
      vertex 173.4 2 2
      vertex 133.4 2 16.3
      vertex 173.4 2 42.9
    endloop
  endfacet
  facet normal 0 1 0
    outer loop
      vertex 133.4 2 16.3
      vertex 173.4 2 2
      vertex 133.4 2 14.3
    endloop
  endfacet
  facet normal 0 1 0
    outer loop
      vertex 2 2 2
      vertex 133.4 2 14.3
      vertex 173.4 2 2
    endloop
  endfacet
  facet normal 0 1 0
    outer loop
      vertex 133.4 2 14.3
      vertex 2 2 2
      vertex 2 2 14.3
    endloop
  endfacet
  facet normal 0 1 0
    outer loop
      vertex 2 2 42.9
      vertex 133.4 2 16.3
      vertex 2 2 16.3
    endloop
  endfacet
  facet normal 1 0 0
    outer loop
      vertex 3.9 88.85 16.3
      vertex 3.9 4.9 16.3
      vertex 3.9 88.85 14.8
    endloop
  endfacet
  facet normal 1 -0 0
    outer loop
      vertex 3.9 88.85 14.8
      vertex 3.9 89.85 14.3
      vertex 3.9 89.85 14.8
    endloop
  endfacet
  facet normal 1 0 0
    outer loop
      vertex 3.9 4.9 14.8
      vertex 3.9 88.85 14.8
      vertex 3.9 4.9 16.3
    endloop
  endfacet
  facet normal 1 0 0
    outer loop
      vertex 3.9 88.85 14.8
      vertex 3.9 4.9 14.8
      vertex 3.9 89.85 14.3
    endloop
  endfacet
  facet normal 1 0 0
    outer loop
      vertex 3.9 3.9 14.3
      vertex 3.9 4.9 14.8
      vertex 3.9 3.9 14.8
    endloop
  endfacet
  facet normal 1 0 0
    outer loop
      vertex 3.9 4.9 14.8
      vertex 3.9 3.9 14.3
      vertex 3.9 89.85 14.3
    endloop
  endfacet
  facet normal -1 0 0
    outer loop
      vertex 131.7 5.9 14.3
      vertex 131.7 4.9 14.8
      vertex 131.7 5.9 16.3
    endloop
  endfacet
  facet normal -1 0 0
    outer loop
      vertex 131.7 3.9 14.3
      vertex 131.7 4.9 14.8
      vertex 131.7 5.9 14.3
    endloop
  endfacet
  facet normal -1 -0 0
    outer loop
      vertex 131.7 4.9 14.8
      vertex 131.7 3.9 14.3
      vertex 131.7 3.9 14.8
    endloop
  endfacet
  facet normal -1 -0 0
    outer loop
      vertex 131.7 5.9 16.3
      vertex 131.7 4.9 14.8
      vertex 131.7 4.9 16.3
    endloop
  endfacet
  facet normal -1 0 0
    outer loop
      vertex 131.7 89.85 14.3
      vertex 131.7 88.85 14.8
      vertex 131.7 89.85 14.8
    endloop
  endfacet
  facet normal -1 0 0
    outer loop
      vertex 131.7 87.85 14.3
      vertex 131.7 88.85 14.8
      vertex 131.7 89.85 14.3
    endloop
  endfacet
  facet normal -1 0 0
    outer loop
      vertex 131.7 87.85 16.3
      vertex 131.7 88.85 14.8
      vertex 131.7 87.85 14.3
    endloop
  endfacet
  facet normal -1 0 0
    outer loop
      vertex 131.7 88.85 14.8
      vertex 131.7 87.85 16.3
      vertex 131.7 88.85 16.3
    endloop
  endfacet
  facet normal 0 -1 0
    outer loop
      vertex 3.9 88.85 14.8
      vertex 131.7 88.85 16.3
      vertex 3.9 88.85 16.3
    endloop
  endfacet
  facet normal 0 -1 -0
    outer loop
      vertex 131.7 88.85 16.3
      vertex 3.9 88.85 14.8
      vertex 131.7 88.85 14.8
    endloop
  endfacet
  facet normal 0 0 -1
    outer loop
      vertex 3.9 88.85 14.8
      vertex 131.7 89.85 14.8
      vertex 131.7 88.85 14.8
    endloop
  endfacet
  facet normal -0 0 -1
    outer loop
      vertex 131.7 89.85 14.8
      vertex 3.9 88.85 14.8
      vertex 3.9 89.85 14.8
    endloop
  endfacet
  facet normal 0 0 -1
    outer loop
      vertex 3.9 3.9 14.8
      vertex 131.7 4.9 14.8
      vertex 131.7 3.9 14.8
    endloop
  endfacet
  facet normal -0 0 -1
    outer loop
      vertex 131.7 4.9 14.8
      vertex 3.9 3.9 14.8
      vertex 3.9 4.9 14.8
    endloop
  endfacet
  facet normal 0 1 -0
    outer loop
      vertex 131.7 4.9 14.8
      vertex 3.9 4.9 16.3
      vertex 131.7 4.9 16.3
    endloop
  endfacet
  facet normal 0 1 0
    outer loop
      vertex 3.9 4.9 16.3
      vertex 131.7 4.9 14.8
      vertex 3.9 4.9 14.8
    endloop
  endfacet
  facet normal 0 1 -0
    outer loop
      vertex 133.4 5.9 14.3
      vertex 131.7 5.9 16.3
      vertex 133.4 5.9 16.3
    endloop
  endfacet
  facet normal 0 1 0
    outer loop
      vertex 131.7 5.9 16.3
      vertex 133.4 5.9 14.3
      vertex 131.7 5.9 14.3
    endloop
  endfacet
  facet normal 0 -1 0
    outer loop
      vertex 131.7 87.85 14.3
      vertex 133.4 87.85 16.3
      vertex 131.7 87.85 16.3
    endloop
  endfacet
  facet normal 0 -1 -0
    outer loop
      vertex 133.4 87.85 16.3
      vertex 131.7 87.85 14.3
      vertex 133.4 87.85 14.3
    endloop
  endfacet
  facet normal 0 0 -1
    outer loop
      vertex 133.4 2 14.3
      vertex 131.7 3.9 14.3
      vertex 133.4 5.9 14.3
    endloop
  endfacet
  facet normal 0 0 -1
    outer loop
      vertex 133.4 2 14.3
      vertex 3.9 3.9 14.3
      vertex 131.7 3.9 14.3
    endloop
  endfacet
  facet normal 0 0 -1
    outer loop
      vertex 2 91.55 14.3
      vertex 3.9 3.9 14.3
      vertex 2 2 14.3
    endloop
  endfacet
  facet normal 0 0 -1
    outer loop
      vertex 2 2 14.3
      vertex 3.9 3.9 14.3
      vertex 133.4 2 14.3
    endloop
  endfacet
  facet normal -0 0 -1
    outer loop
      vertex 133.4 5.9 14.3
      vertex 131.7 3.9 14.3
      vertex 131.7 5.9 14.3
    endloop
  endfacet
  facet normal 0 0 -1
    outer loop
      vertex 131.7 89.85 14.3
      vertex 133.4 87.85 14.3
      vertex 131.7 87.85 14.3
    endloop
  endfacet
  facet normal 0 0 -1
    outer loop
      vertex 133.4 87.85 14.3
      vertex 131.7 89.85 14.3
      vertex 133.4 91.55 14.3
    endloop
  endfacet
  facet normal 0 0 -1
    outer loop
      vertex 3.9 89.85 14.3
      vertex 133.4 91.55 14.3
      vertex 131.7 89.85 14.3
    endloop
  endfacet
  facet normal 0 0 -1
    outer loop
      vertex 3.9 89.85 14.3
      vertex 2 91.55 14.3
      vertex 133.4 91.55 14.3
    endloop
  endfacet
  facet normal 0 0 -1
    outer loop
      vertex 3.9 3.9 14.3
      vertex 2 91.55 14.3
      vertex 3.9 89.85 14.3
    endloop
  endfacet
  facet normal 0 1 -0
    outer loop
      vertex 131.7 3.9 14.3
      vertex 3.9 3.9 14.8
      vertex 131.7 3.9 14.8
    endloop
  endfacet
  facet normal 0 1 0
    outer loop
      vertex 3.9 3.9 14.8
      vertex 131.7 3.9 14.3
      vertex 3.9 3.9 14.3
    endloop
  endfacet
  facet normal 0 -1 0
    outer loop
      vertex 3.9 89.85 14.3
      vertex 131.7 89.85 14.8
      vertex 3.9 89.85 14.8
    endloop
  endfacet
  facet normal 0 -1 -0
    outer loop
      vertex 131.7 89.85 14.8
      vertex 3.9 89.85 14.3
      vertex 131.7 89.85 14.3
    endloop
  endfacet
  facet normal 0 0 1
    outer loop
      vertex 133.4 91.55 16.3
      vertex 131.7 88.85 16.3
      vertex 133.4 87.85 16.3
    endloop
  endfacet
  facet normal 0 0 1
    outer loop
      vertex 133.4 91.55 16.3
      vertex 3.9 88.85 16.3
      vertex 131.7 88.85 16.3
    endloop
  endfacet
  facet normal 0 0 1
    outer loop
      vertex 3.9 88.85 16.3
      vertex 2 91.55 16.3
      vertex 3.9 4.9 16.3
    endloop
  endfacet
  facet normal -0 0 1
    outer loop
      vertex 2 91.55 16.3
      vertex 3.9 88.85 16.3
      vertex 133.4 91.55 16.3
    endloop
  endfacet
  facet normal 0 0 1
    outer loop
      vertex 133.4 87.85 16.3
      vertex 131.7 88.85 16.3
      vertex 131.7 87.85 16.3
    endloop
  endfacet
  facet normal 0 0 1
    outer loop
      vertex 131.7 4.9 16.3
      vertex 133.4 5.9 16.3
      vertex 131.7 5.9 16.3
    endloop
  endfacet
  facet normal 0 0 1
    outer loop
      vertex 133.4 5.9 16.3
      vertex 131.7 4.9 16.3
      vertex 133.4 2 16.3
    endloop
  endfacet
  facet normal -0 0 1
    outer loop
      vertex 3.9 4.9 16.3
      vertex 133.4 2 16.3
      vertex 131.7 4.9 16.3
    endloop
  endfacet
  facet normal 0 0 1
    outer loop
      vertex 3.9 4.9 16.3
      vertex 2 2 16.3
      vertex 133.4 2 16.3
    endloop
  endfacet
  facet normal 0 0 1
    outer loop
      vertex 2 2 16.3
      vertex 3.9 4.9 16.3
      vertex 2 91.55 16.3
    endloop
  endfacet
  facet normal 1 -0 0
    outer loop
      vertex 133.4 2 16.3
      vertex 133.4 5.9 14.3
      vertex 133.4 5.9 16.3
    endloop
  endfacet
  facet normal 1 0 0
    outer loop
      vertex 133.4 5.9 14.3
      vertex 133.4 2 16.3
      vertex 133.4 2 14.3
    endloop
  endfacet
  facet normal 1 -0 0
    outer loop
      vertex 133.4 87.85 16.3
      vertex 133.4 91.55 14.3
      vertex 133.4 91.55 16.3
    endloop
  endfacet
  facet normal 1 0 0
    outer loop
      vertex 133.4 91.55 14.3
      vertex 133.4 87.85 16.3
      vertex 133.4 87.85 14.3
    endloop
  endfacet
endsolid OpenSCAD_Model
