solid OpenSCAD_Model
  facet normal -1 0 0
    outer loop
      vertex 0 89.75 -19.4
      vertex 0 61.6315 -7.1
      vertex 0 89.75 -7.1
    endloop
  endfacet
  facet normal -1 0 0
    outer loop
      vertex 0 89.75 -19.4
      vertex 0 61.2768 -7.50231
      vertex 0 61.6315 -7.1
    endloop
  endfacet
  facet normal -1 0 0
    outer loop
      vertex 0 89.75 -19.4
      vertex 0 60.2773 -8.50179
      vertex 0 61.2768 -7.50231
    endloop
  endfacet
  facet normal -1 0 0
    outer loop
      vertex 0 89.75 -19.4
      vertex 0 59.217 -9.43655
      vertex 0 60.2773 -8.50179
    endloop
  endfacet
  facet normal -1 0 0
    outer loop
      vertex 0 89.75 -19.4
      vertex 0 58.1002 -10.3029
      vertex 0 59.217 -9.43655
    endloop
  endfacet
  facet normal -1 0 0
    outer loop
      vertex 0 89.75 -19.4
      vertex 0 56.9311 -11.0974
      vertex 0 58.1002 -10.3029
    endloop
  endfacet
  facet normal -1 0 0
    outer loop
      vertex 0 89.75 -19.4
      vertex 0 55.7145 -11.8169
      vertex 0 56.9311 -11.0974
    endloop
  endfacet
  facet normal -1 0 0
    outer loop
      vertex 0 89.75 -19.4
      vertex 0 54.455 -12.4586
      vertex 0 55.7145 -11.8169
    endloop
  endfacet
  facet normal -1 0 0
    outer loop
      vertex 0 89.75 -19.4
      vertex 0 53.1578 -13.02
      vertex 0 54.455 -12.4586
    endloop
  endfacet
  facet normal -1 0 0
    outer loop
      vertex 0 89.75 -19.4
      vertex 0 51.8279 -13.4988
      vertex 0 53.1578 -13.02
    endloop
  endfacet
  facet normal -1 0 0
    outer loop
      vertex 0 89.75 -19.4
      vertex 0 50.4705 -13.8931
      vertex 0 51.8279 -13.4988
    endloop
  endfacet
  facet normal -1 0 0
    outer loop
      vertex 0 89.75 -19.4
      vertex 0 49.0911 -14.2015
      vertex 0 50.4705 -13.8931
    endloop
  endfacet
  facet normal -1 0 0
    outer loop
      vertex 0 89.75 -19.4
      vertex 0 47.695 -14.4226
      vertex 0 49.0911 -14.2015
    endloop
  endfacet
  facet normal -1 0 0
    outer loop
      vertex 0 89.75 -19.4
      vertex 0 46.2878 -14.5556
      vertex 0 47.695 -14.4226
    endloop
  endfacet
  facet normal -1 0 0
    outer loop
      vertex 0 89.75 -19.4
      vertex 0 44.875 -14.6
      vertex 0 46.2878 -14.5556
    endloop
  endfacet
  facet normal -1 0 0
    outer loop
      vertex 0 0 -19.4
      vertex 0 44.875 -14.6
      vertex 0 89.75 -19.4
    endloop
  endfacet
  facet normal -1 -0 0
    outer loop
      vertex 0 44.875 -14.6
      vertex 0 0 -19.4
      vertex 0 43.4622 -14.5556
    endloop
  endfacet
  facet normal -1 -0 0
    outer loop
      vertex 0 43.4622 -14.5556
      vertex 0 0 -19.4
      vertex 0 42.055 -14.4226
    endloop
  endfacet
  facet normal -1 0 0
    outer loop
      vertex 0 0 -19.4
      vertex 0 40.6589 -14.2015
      vertex 0 42.055 -14.4226
    endloop
  endfacet
  facet normal -1 0 0
    outer loop
      vertex 0 0 -19.4
      vertex 0 39.2795 -13.8931
      vertex 0 40.6589 -14.2015
    endloop
  endfacet
  facet normal -1 0 0
    outer loop
      vertex 0 0 -19.4
      vertex 0 37.9221 -13.4988
      vertex 0 39.2795 -13.8931
    endloop
  endfacet
  facet normal -1 0 0
    outer loop
      vertex 0 0 -19.4
      vertex 0 36.5922 -13.02
      vertex 0 37.9221 -13.4988
    endloop
  endfacet
  facet normal -1 0 0
    outer loop
      vertex 0 0 -19.4
      vertex 0 35.295 -12.4586
      vertex 0 36.5922 -13.02
    endloop
  endfacet
  facet normal -1 0 0
    outer loop
      vertex 0 0 -19.4
      vertex 0 34.0355 -11.8169
      vertex 0 35.295 -12.4586
    endloop
  endfacet
  facet normal -1 0 0
    outer loop
      vertex 0 0 -19.4
      vertex 0 32.8189 -11.0974
      vertex 0 34.0355 -11.8169
    endloop
  endfacet
  facet normal -1 0 0
    outer loop
      vertex 0 0 -19.4
      vertex 0 31.6498 -10.3029
      vertex 0 32.8189 -11.0974
    endloop
  endfacet
  facet normal -1 0 0
    outer loop
      vertex 0 0 -19.4
      vertex 0 30.533 -9.43655
      vertex 0 31.6498 -10.3029
    endloop
  endfacet
  facet normal -1 0 0
    outer loop
      vertex 0 0 -19.4
      vertex 0 29.4727 -8.50179
      vertex 0 30.533 -9.43655
    endloop
  endfacet
  facet normal -1 0 0
    outer loop
      vertex 0 0 -19.4
      vertex 0 28.4732 -7.50231
      vertex 0 29.4727 -8.50179
    endloop
  endfacet
  facet normal -1 0 0
    outer loop
      vertex 0 0 -19.4
      vertex 0 28.1185 -7.1
      vertex 0 28.4732 -7.50231
    endloop
  endfacet
  facet normal -1 -0 0
    outer loop
      vertex 0 28.1185 -7.1
      vertex 0 0 -19.4
      vertex 0 0 -7.1
    endloop
  endfacet
  facet normal -1 0 0
    outer loop
      vertex 0 0 -50
      vertex 0 89.75 -21.4
      vertex 0 89.75 -50
    endloop
  endfacet
  facet normal -1 -0 0
    outer loop
      vertex 0 89.75 -21.4
      vertex 0 0 -50
      vertex 0 0 -21.4
    endloop
  endfacet
  facet normal 0 0 1
    outer loop
      vertex 2 28.1185 -7.1
      vertex 0 28.1185 -7.1
      vertex 2 2 -7.1
    endloop
  endfacet
  facet normal 0 0 1
    outer loop
      vertex 129.6 2 -7.1
      vertex 131.6 28.1185 -7.1
      vertex 129.6 28.1185 -7.1
    endloop
  endfacet
  facet normal 0 0 1
    outer loop
      vertex 131.6 28.1185 -7.1
      vertex 129.6 2 -7.1
      vertex 131.6 0 -7.1
    endloop
  endfacet
  facet normal -0 0 1
    outer loop
      vertex 2 2 -7.1
      vertex 131.6 0 -7.1
      vertex 129.6 2 -7.1
    endloop
  endfacet
  facet normal 0 0 1
    outer loop
      vertex 2 2 -7.1
      vertex 0 0 -7.1
      vertex 131.6 0 -7.1
    endloop
  endfacet
  facet normal 0 0 1
    outer loop
      vertex 0 0 -7.1
      vertex 2 2 -7.1
      vertex 0 28.1185 -7.1
    endloop
  endfacet
  facet normal 0 0 1
    outer loop
      vertex 131.6 89.75 -7.1
      vertex 129.6 87.75 -7.1
      vertex 131.6 61.6315 -7.1
    endloop
  endfacet
  facet normal 0 0 1
    outer loop
      vertex 131.6 89.75 -7.1
      vertex 2 87.75 -7.1
      vertex 129.6 87.75 -7.1
    endloop
  endfacet
  facet normal -0 0 1
    outer loop
      vertex 0 89.75 -7.1
      vertex 2 87.75 -7.1
      vertex 131.6 89.75 -7.1
    endloop
  endfacet
  facet normal 0 0 1
    outer loop
      vertex 0 61.6315 -7.1
      vertex 2 87.75 -7.1
      vertex 0 89.75 -7.1
    endloop
  endfacet
  facet normal 0 0 1
    outer loop
      vertex 2 87.75 -7.1
      vertex 0 61.6315 -7.1
      vertex 2 61.6315 -7.1
    endloop
  endfacet
  facet normal 0 0 1
    outer loop
      vertex 131.6 61.6315 -7.1
      vertex 129.6 87.75 -7.1
      vertex 129.6 61.6315 -7.1
    endloop
  endfacet
  facet normal 1 -0 0
    outer loop
      vertex 131.6 61.6315 -7.1
      vertex 131.6 89.75 -19.4
      vertex 131.6 89.75 -7.1
    endloop
  endfacet
  facet normal 1 0 -0
    outer loop
      vertex 131.6 69.75 -33
      vertex 131.6 89.75 -19.4
      vertex 131.6 61.6315 -7.1
    endloop
  endfacet
  facet normal 1 0 0
    outer loop
      vertex 131.6 89.75 -21.4
      vertex 131.6 69.75 -33
      vertex 131.6 89.75 -50
    endloop
  endfacet
  facet normal 1 0 0
    outer loop
      vertex 131.6 89.75 -19.4
      vertex 131.6 69.75 -33
      vertex 131.6 89.75 -21.4
    endloop
  endfacet
  facet normal 1 -0 0
    outer loop
      vertex 131.6 61.2768 -7.50231
      vertex 131.6 69.75 -33
      vertex 131.6 61.6315 -7.1
    endloop
  endfacet
  facet normal 1 -0 0
    outer loop
      vertex 131.6 60.2773 -8.50179
      vertex 131.6 69.75 -33
      vertex 131.6 61.2768 -7.50231
    endloop
  endfacet
  facet normal 1 -0 0
    outer loop
      vertex 131.6 59.217 -9.43655
      vertex 131.6 69.75 -33
      vertex 131.6 60.2773 -8.50179
    endloop
  endfacet
  facet normal 1 -0 0
    outer loop
      vertex 131.6 58.1002 -10.3029
      vertex 131.6 69.75 -33
      vertex 131.6 59.217 -9.43655
    endloop
  endfacet
  facet normal 1 -0 0
    outer loop
      vertex 131.6 56.9311 -11.0974
      vertex 131.6 69.75 -33
      vertex 131.6 58.1002 -10.3029
    endloop
  endfacet
  facet normal 1 -0 0
    outer loop
      vertex 131.6 55.7145 -11.8169
      vertex 131.6 69.75 -33
      vertex 131.6 56.9311 -11.0974
    endloop
  endfacet
  facet normal 1 -0 0
    outer loop
      vertex 131.6 54.455 -12.4586
      vertex 131.6 69.75 -33
      vertex 131.6 55.7145 -11.8169
    endloop
  endfacet
  facet normal 1 -0 0
    outer loop
      vertex 131.6 53.1578 -13.02
      vertex 131.6 69.75 -33
      vertex 131.6 54.455 -12.4586
    endloop
  endfacet
  facet normal 1 -0 0
    outer loop
      vertex 131.6 51.8279 -13.4988
      vertex 131.6 69.75 -33
      vertex 131.6 53.1578 -13.02
    endloop
  endfacet
  facet normal 1 -0 0
    outer loop
      vertex 131.6 50.4705 -13.8931
      vertex 131.6 69.75 -33
      vertex 131.6 51.8279 -13.4988
    endloop
  endfacet
  facet normal 1 -0 0
    outer loop
      vertex 131.6 49.0911 -14.2015
      vertex 131.6 69.75 -33
      vertex 131.6 50.4705 -13.8931
    endloop
  endfacet
  facet normal 1 -0 0
    outer loop
      vertex 131.6 47.695 -14.4226
      vertex 131.6 69.75 -33
      vertex 131.6 49.0911 -14.2015
    endloop
  endfacet
  facet normal 1 -0 0
    outer loop
      vertex 131.6 46.2878 -14.5556
      vertex 131.6 69.75 -33
      vertex 131.6 47.695 -14.4226
    endloop
  endfacet
  facet normal 1 -0 0
    outer loop
      vertex 131.6 44.875 -14.6
      vertex 131.6 69.75 -33
      vertex 131.6 46.2878 -14.5556
    endloop
  endfacet
  facet normal 1 0 0
    outer loop
      vertex 131.6 20 -33
      vertex 131.6 44.875 -14.6
      vertex 131.6 43.4622 -14.5556
    endloop
  endfacet
  facet normal 1 0 0
    outer loop
      vertex 131.6 20 -33
      vertex 131.6 43.4622 -14.5556
      vertex 131.6 42.055 -14.4226
    endloop
  endfacet
  facet normal 1 0 0
    outer loop
      vertex 131.6 20 -33
      vertex 131.6 42.055 -14.4226
      vertex 131.6 40.6589 -14.2015
    endloop
  endfacet
  facet normal 1 0 0
    outer loop
      vertex 131.6 20 -33
      vertex 131.6 40.6589 -14.2015
      vertex 131.6 39.2795 -13.8931
    endloop
  endfacet
  facet normal 1 0 0
    outer loop
      vertex 131.6 20 -33
      vertex 131.6 39.2795 -13.8931
      vertex 131.6 37.9221 -13.4988
    endloop
  endfacet
  facet normal 1 0 0
    outer loop
      vertex 131.6 20 -33
      vertex 131.6 37.9221 -13.4988
      vertex 131.6 36.5922 -13.02
    endloop
  endfacet
  facet normal 1 0 0
    outer loop
      vertex 131.6 20 -33
      vertex 131.6 36.5922 -13.02
      vertex 131.6 35.295 -12.4586
    endloop
  endfacet
  facet normal 1 0 0
    outer loop
      vertex 131.6 20 -33
      vertex 131.6 35.295 -12.4586
      vertex 131.6 34.0355 -11.8169
    endloop
  endfacet
  facet normal 1 0 0
    outer loop
      vertex 131.6 20 -33
      vertex 131.6 34.0355 -11.8169
      vertex 131.6 32.8189 -11.0974
    endloop
  endfacet
  facet normal 1 0 0
    outer loop
      vertex 131.6 44.875 -14.6
      vertex 131.6 20 -33
      vertex 131.6 69.75 -33
    endloop
  endfacet
  facet normal 1 0 0
    outer loop
      vertex 131.6 31.6498 -10.3029
      vertex 131.6 20 -33
      vertex 131.6 32.8189 -11.0974
    endloop
  endfacet
  facet normal 1 0 0
    outer loop
      vertex 131.6 30.533 -9.43655
      vertex 131.6 20 -33
      vertex 131.6 31.6498 -10.3029
    endloop
  endfacet
  facet normal 1 0 0
    outer loop
      vertex 131.6 29.4727 -8.50179
      vertex 131.6 20 -33
      vertex 131.6 30.533 -9.43655
    endloop
  endfacet
  facet normal 1 0 0
    outer loop
      vertex 131.6 28.4732 -7.50231
      vertex 131.6 20 -33
      vertex 131.6 29.4727 -8.50179
    endloop
  endfacet
  facet normal 1 0 0
    outer loop
      vertex 131.6 28.1185 -7.1
      vertex 131.6 20 -33
      vertex 131.6 28.4732 -7.50231
    endloop
  endfacet
  facet normal 1 0 0
    outer loop
      vertex 131.6 28.1185 -7.1
      vertex 131.6 0 -19.4
      vertex 131.6 20 -33
    endloop
  endfacet
  facet normal 1 0 0
    outer loop
      vertex 131.6 0 -19.4
      vertex 131.6 28.1185 -7.1
      vertex 131.6 0 -7.1
    endloop
  endfacet
  facet normal 1 -0 0
    outer loop
      vertex 131.6 69.75 -48
      vertex 131.6 89.75 -50
      vertex 131.6 69.75 -33
    endloop
  endfacet
  facet normal 1 -0 0
    outer loop
      vertex 131.6 20 -48
      vertex 131.6 89.75 -50
      vertex 131.6 69.75 -48
    endloop
  endfacet
  facet normal 1 -0 0
    outer loop
      vertex 131.6 0 -21.4
      vertex 131.6 20 -33
      vertex 131.6 0 -19.4
    endloop
  endfacet
  facet normal 1 0 0
    outer loop
      vertex 131.6 0 -50
      vertex 131.6 20 -33
      vertex 131.6 0 -21.4
    endloop
  endfacet
  facet normal 1 0 0
    outer loop
      vertex 131.6 20 -48
      vertex 131.6 0 -50
      vertex 131.6 89.75 -50
    endloop
  endfacet
  facet normal 1 0 0
    outer loop
      vertex 131.6 20 -33
      vertex 131.6 0 -50
      vertex 131.6 20 -48
    endloop
  endfacet
  facet normal 0 1 -0
    outer loop
      vertex 131.6 89.75 -50
      vertex 0 89.75 -21.4
      vertex 131.6 89.75 -21.4
    endloop
  endfacet
  facet normal 0 1 0
    outer loop
      vertex 0 89.75 -21.4
      vertex 131.6 89.75 -50
      vertex 0 89.75 -50
    endloop
  endfacet
  facet normal 0 1 -0
    outer loop
      vertex 131.6 89.75 -19.4
      vertex 0 89.75 -7.1
      vertex 131.6 89.75 -7.1
    endloop
  endfacet
  facet normal 0 1 0
    outer loop
      vertex 0 89.75 -7.1
      vertex 131.6 89.75 -19.4
      vertex 0 89.75 -19.4
    endloop
  endfacet
  facet normal 0 1 -0
    outer loop
      vertex 171.6 89.75 -19.4
      vertex 131.6 89.75 -7.1
      vertex 171.6 89.75 -7.1
    endloop
  endfacet
  facet normal 0 1 0
    outer loop
      vertex 131.6 89.75 -7.1
      vertex 171.6 89.75 -19.4
      vertex 131.6 89.75 -19.4
    endloop
  endfacet
  facet normal 0 1 -0
    outer loop
      vertex 171.6 89.75 -50
      vertex 131.6 89.75 -21.4
      vertex 171.6 89.75 -21.4
    endloop
  endfacet
  facet normal 0 1 0
    outer loop
      vertex 131.6 89.75 -21.4
      vertex 171.6 89.75 -50
      vertex 131.6 89.75 -50
    endloop
  endfacet
  facet normal 0 0 -1
    outer loop
      vertex 0 0 -50
      vertex 131.6 89.75 -50
      vertex 131.6 0 -50
    endloop
  endfacet
  facet normal -0 0 -1
    outer loop
      vertex 131.6 89.75 -50
      vertex 0 0 -50
      vertex 0 89.75 -50
    endloop
  endfacet
  facet normal 0 -1 0
    outer loop
      vertex 0 0 -19.4
      vertex 131.6 0 -7.1
      vertex 0 0 -7.1
    endloop
  endfacet
  facet normal 0 -1 -0
    outer loop
      vertex 131.6 0 -7.1
      vertex 0 0 -19.4
      vertex 131.6 0 -19.4
    endloop
  endfacet
  facet normal 0 -1 0
    outer loop
      vertex 0 0 -50
      vertex 131.6 0 -21.4
      vertex 0 0 -21.4
    endloop
  endfacet
  facet normal 0 -1 -0
    outer loop
      vertex 131.6 0 -21.4
      vertex 0 0 -50
      vertex 131.6 0 -50
    endloop
  endfacet
  facet normal 0 -1 0
    outer loop
      vertex 131.6 0 -19.4
      vertex 171.6 0 -7.1
      vertex 131.6 0 -7.1
    endloop
  endfacet
  facet normal 0 -1 -0
    outer loop
      vertex 171.6 0 -7.1
      vertex 131.6 0 -19.4
      vertex 171.6 0 -19.4
    endloop
  endfacet
  facet normal 0 -1 0
    outer loop
      vertex 131.6 0 -50
      vertex 171.6 0 -21.4
      vertex 131.6 0 -21.4
    endloop
  endfacet
  facet normal 0 -1 -0
    outer loop
      vertex 171.6 0 -21.4
      vertex 131.6 0 -50
      vertex 171.6 0 -50
    endloop
  endfacet
  facet normal 1 -0 0
    outer loop
      vertex 2 61.6315 -7.1
      vertex 2 87.75 -23.4
      vertex 2 87.75 -7.1
    endloop
  endfacet
  facet normal 1 -0 0
    outer loop
      vertex 2 61.2768 -7.50231
      vertex 2 87.75 -23.4
      vertex 2 61.6315 -7.1
    endloop
  endfacet
  facet normal 1 -0 0
    outer loop
      vertex 2 60.2773 -8.50179
      vertex 2 87.75 -23.4
      vertex 2 61.2768 -7.50231
    endloop
  endfacet
  facet normal 1 -0 0
    outer loop
      vertex 2 59.217 -9.43655
      vertex 2 87.75 -23.4
      vertex 2 60.2773 -8.50179
    endloop
  endfacet
  facet normal 1 -0 0
    outer loop
      vertex 2 58.1002 -10.3029
      vertex 2 87.75 -23.4
      vertex 2 59.217 -9.43655
    endloop
  endfacet
  facet normal 1 -0 0
    outer loop
      vertex 2 56.9311 -11.0974
      vertex 2 87.75 -23.4
      vertex 2 58.1002 -10.3029
    endloop
  endfacet
  facet normal 1 -0 0
    outer loop
      vertex 2 55.7145 -11.8169
      vertex 2 87.75 -23.4
      vertex 2 56.9311 -11.0974
    endloop
  endfacet
  facet normal 1 -0 0
    outer loop
      vertex 2 54.455 -12.4586
      vertex 2 87.75 -23.4
      vertex 2 55.7145 -11.8169
    endloop
  endfacet
  facet normal 1 -0 0
    outer loop
      vertex 2 53.1578 -13.02
      vertex 2 87.75 -23.4
      vertex 2 54.455 -12.4586
    endloop
  endfacet
  facet normal 1 -0 0
    outer loop
      vertex 2 51.8279 -13.4988
      vertex 2 87.75 -23.4
      vertex 2 53.1578 -13.02
    endloop
  endfacet
  facet normal 1 -0 0
    outer loop
      vertex 2 50.4705 -13.8931
      vertex 2 87.75 -23.4
      vertex 2 51.8279 -13.4988
    endloop
  endfacet
  facet normal 1 -0 0
    outer loop
      vertex 2 49.0911 -14.2015
      vertex 2 87.75 -23.4
      vertex 2 50.4705 -13.8931
    endloop
  endfacet
  facet normal 1 -0 0
    outer loop
      vertex 2 47.695 -14.4226
      vertex 2 87.75 -23.4
      vertex 2 49.0911 -14.2015
    endloop
  endfacet
  facet normal 1 -0 0
    outer loop
      vertex 2 46.2878 -14.5556
      vertex 2 87.75 -23.4
      vertex 2 47.695 -14.4226
    endloop
  endfacet
  facet normal 1 -0 0
    outer loop
      vertex 2 44.875 -14.6
      vertex 2 87.75 -23.4
      vertex 2 46.2878 -14.5556
    endloop
  endfacet
  facet normal 1 0 0
    outer loop
      vertex 2 2 -23.4
      vertex 2 44.875 -14.6
      vertex 2 43.4622 -14.5556
    endloop
  endfacet
  facet normal 1 0 0
    outer loop
      vertex 2 2 -23.4
      vertex 2 43.4622 -14.5556
      vertex 2 42.055 -14.4226
    endloop
  endfacet
  facet normal 1 0 0
    outer loop
      vertex 2 2 -23.4
      vertex 2 42.055 -14.4226
      vertex 2 40.6589 -14.2015
    endloop
  endfacet
  facet normal 1 0 0
    outer loop
      vertex 2 2 -23.4
      vertex 2 28.1185 -7.1
      vertex 2 2 -7.1
    endloop
  endfacet
  facet normal 1 0 0
    outer loop
      vertex 2 28.1185 -7.1
      vertex 2 2 -23.4
      vertex 2 28.4732 -7.50231
    endloop
  endfacet
  facet normal 1 0 0
    outer loop
      vertex 2 28.4732 -7.50231
      vertex 2 2 -23.4
      vertex 2 29.4727 -8.50179
    endloop
  endfacet
  facet normal 1 0 0
    outer loop
      vertex 2 29.4727 -8.50179
      vertex 2 2 -23.4
      vertex 2 30.533 -9.43655
    endloop
  endfacet
  facet normal 1 0 0
    outer loop
      vertex 2 30.533 -9.43655
      vertex 2 2 -23.4
      vertex 2 31.6498 -10.3029
    endloop
  endfacet
  facet normal 1 0 0
    outer loop
      vertex 2 31.6498 -10.3029
      vertex 2 2 -23.4
      vertex 2 32.8189 -11.0974
    endloop
  endfacet
  facet normal 1 0 0
    outer loop
      vertex 2 32.8189 -11.0974
      vertex 2 2 -23.4
      vertex 2 34.0355 -11.8169
    endloop
  endfacet
  facet normal 1 0 0
    outer loop
      vertex 2 34.0355 -11.8169
      vertex 2 2 -23.4
      vertex 2 35.295 -12.4586
    endloop
  endfacet
  facet normal 1 0 0
    outer loop
      vertex 2 35.295 -12.4586
      vertex 2 2 -23.4
      vertex 2 36.5922 -13.02
    endloop
  endfacet
  facet normal 1 0 0
    outer loop
      vertex 2 36.5922 -13.02
      vertex 2 2 -23.4
      vertex 2 37.9221 -13.4988
    endloop
  endfacet
  facet normal 1 0 0
    outer loop
      vertex 2 37.9221 -13.4988
      vertex 2 2 -23.4
      vertex 2 39.2795 -13.8931
    endloop
  endfacet
  facet normal 1 0 0
    outer loop
      vertex 2 39.2795 -13.8931
      vertex 2 2 -23.4
      vertex 2 40.6589 -14.2015
    endloop
  endfacet
  facet normal 1 0 0
    outer loop
      vertex 2 44.875 -14.6
      vertex 2 2 -23.4
      vertex 2 87.75 -23.4
    endloop
  endfacet
  facet normal -1 0 0
    outer loop
      vertex 129.6 87.75 -23.4
      vertex 129.6 61.6315 -7.1
      vertex 129.6 87.75 -7.1
    endloop
  endfacet
  facet normal -1 0 0
    outer loop
      vertex 129.6 87.75 -23.4
      vertex 129.6 61.2768 -7.50231
      vertex 129.6 61.6315 -7.1
    endloop
  endfacet
  facet normal -1 0 0
    outer loop
      vertex 129.6 87.75 -23.4
      vertex 129.6 60.2773 -8.50179
      vertex 129.6 61.2768 -7.50231
    endloop
  endfacet
  facet normal -1 0 0
    outer loop
      vertex 129.6 87.75 -23.4
      vertex 129.6 59.217 -9.43655
      vertex 129.6 60.2773 -8.50179
    endloop
  endfacet
  facet normal -1 0 0
    outer loop
      vertex 129.6 87.75 -23.4
      vertex 129.6 58.1002 -10.3029
      vertex 129.6 59.217 -9.43655
    endloop
  endfacet
  facet normal -1 0 0
    outer loop
      vertex 129.6 87.75 -23.4
      vertex 129.6 56.9311 -11.0974
      vertex 129.6 58.1002 -10.3029
    endloop
  endfacet
  facet normal -1 0 0
    outer loop
      vertex 129.6 87.75 -23.4
      vertex 129.6 55.7145 -11.8169
      vertex 129.6 56.9311 -11.0974
    endloop
  endfacet
  facet normal -1 0 0
    outer loop
      vertex 129.6 87.75 -23.4
      vertex 129.6 54.455 -12.4586
      vertex 129.6 55.7145 -11.8169
    endloop
  endfacet
  facet normal -1 0 0
    outer loop
      vertex 129.6 87.75 -23.4
      vertex 129.6 53.1578 -13.02
      vertex 129.6 54.455 -12.4586
    endloop
  endfacet
  facet normal -1 0 0
    outer loop
      vertex 129.6 87.75 -23.4
      vertex 129.6 51.8279 -13.4988
      vertex 129.6 53.1578 -13.02
    endloop
  endfacet
  facet normal -1 0 0
    outer loop
      vertex 129.6 87.75 -23.4
      vertex 129.6 50.4705 -13.8931
      vertex 129.6 51.8279 -13.4988
    endloop
  endfacet
  facet normal -1 0 0
    outer loop
      vertex 129.6 87.75 -23.4
      vertex 129.6 49.0911 -14.2015
      vertex 129.6 50.4705 -13.8931
    endloop
  endfacet
  facet normal -1 0 0
    outer loop
      vertex 129.6 87.75 -23.4
      vertex 129.6 47.695 -14.4226
      vertex 129.6 49.0911 -14.2015
    endloop
  endfacet
  facet normal -1 0 0
    outer loop
      vertex 129.6 87.75 -23.4
      vertex 129.6 46.2878 -14.5556
      vertex 129.6 47.695 -14.4226
    endloop
  endfacet
  facet normal -1 0 0
    outer loop
      vertex 129.6 87.75 -23.4
      vertex 129.6 44.875 -14.6
      vertex 129.6 46.2878 -14.5556
    endloop
  endfacet
  facet normal -1 0 0
    outer loop
      vertex 129.6 2 -23.4
      vertex 129.6 44.875 -14.6
      vertex 129.6 87.75 -23.4
    endloop
  endfacet
  facet normal -1 -0 0
    outer loop
      vertex 129.6 44.875 -14.6
      vertex 129.6 2 -23.4
      vertex 129.6 43.4622 -14.5556
    endloop
  endfacet
  facet normal -1 -0 0
    outer loop
      vertex 129.6 43.4622 -14.5556
      vertex 129.6 2 -23.4
      vertex 129.6 42.055 -14.4226
    endloop
  endfacet
  facet normal -1 -0 0
    outer loop
      vertex 129.6 42.055 -14.4226
      vertex 129.6 2 -23.4
      vertex 129.6 40.6589 -14.2015
    endloop
  endfacet
  facet normal -1 0 0
    outer loop
      vertex 129.6 2 -23.4
      vertex 129.6 39.2795 -13.8931
      vertex 129.6 40.6589 -14.2015
    endloop
  endfacet
  facet normal -1 0 0
    outer loop
      vertex 129.6 2 -23.4
      vertex 129.6 37.9221 -13.4988
      vertex 129.6 39.2795 -13.8931
    endloop
  endfacet
  facet normal -1 0 0
    outer loop
      vertex 129.6 2 -23.4
      vertex 129.6 36.5922 -13.02
      vertex 129.6 37.9221 -13.4988
    endloop
  endfacet
  facet normal -1 0 0
    outer loop
      vertex 129.6 2 -23.4
      vertex 129.6 35.295 -12.4586
      vertex 129.6 36.5922 -13.02
    endloop
  endfacet
  facet normal -1 0 0
    outer loop
      vertex 129.6 2 -23.4
      vertex 129.6 34.0355 -11.8169
      vertex 129.6 35.295 -12.4586
    endloop
  endfacet
  facet normal -1 0 0
    outer loop
      vertex 129.6 2 -23.4
      vertex 129.6 32.8189 -11.0974
      vertex 129.6 34.0355 -11.8169
    endloop
  endfacet
  facet normal -1 0 0
    outer loop
      vertex 129.6 2 -23.4
      vertex 129.6 31.6498 -10.3029
      vertex 129.6 32.8189 -11.0974
    endloop
  endfacet
  facet normal -1 0 0
    outer loop
      vertex 129.6 2 -23.4
      vertex 129.6 30.533 -9.43655
      vertex 129.6 31.6498 -10.3029
    endloop
  endfacet
  facet normal -1 0 0
    outer loop
      vertex 129.6 2 -23.4
      vertex 129.6 29.4727 -8.50179
      vertex 129.6 30.533 -9.43655
    endloop
  endfacet
  facet normal -1 0 0
    outer loop
      vertex 129.6 2 -23.4
      vertex 129.6 28.4732 -7.50231
      vertex 129.6 29.4727 -8.50179
    endloop
  endfacet
  facet normal -1 0 0
    outer loop
      vertex 129.6 2 -23.4
      vertex 129.6 28.1185 -7.1
      vertex 129.6 28.4732 -7.50231
    endloop
  endfacet
  facet normal -1 -0 0
    outer loop
      vertex 129.6 28.1185 -7.1
      vertex 129.6 2 -23.4
      vertex 129.6 2 -7.1
    endloop
  endfacet
  facet normal 0 -1 0
    outer loop
      vertex 2 87.75 -23.4
      vertex 129.6 87.75 -7.1
      vertex 2 87.75 -7.1
    endloop
  endfacet
  facet normal 0 -1 -0
    outer loop
      vertex 129.6 87.75 -7.1
      vertex 2 87.75 -23.4
      vertex 129.6 87.75 -23.4
    endloop
  endfacet
  facet normal 0 0 1
    outer loop
      vertex 129.6 87.75 -23.4
      vertex 127.6 85.75 -23.4
      vertex 129.6 2 -23.4
    endloop
  endfacet
  facet normal 0 0 1
    outer loop
      vertex 129.6 87.75 -23.4
      vertex 4 85.75 -23.4
      vertex 127.6 85.75 -23.4
    endloop
  endfacet
  facet normal 0 0 1
    outer loop
      vertex 4 85.75 -23.4
      vertex 2 87.75 -23.4
      vertex 4 4 -23.4
    endloop
  endfacet
  facet normal -0 0 1
    outer loop
      vertex 2 87.75 -23.4
      vertex 4 85.75 -23.4
      vertex 129.6 87.75 -23.4
    endloop
  endfacet
  facet normal -0 0 1
    outer loop
      vertex 127.6 4 -23.4
      vertex 129.6 2 -23.4
      vertex 127.6 85.75 -23.4
    endloop
  endfacet
  facet normal -0 0 1
    outer loop
      vertex 4 4 -23.4
      vertex 129.6 2 -23.4
      vertex 127.6 4 -23.4
    endloop
  endfacet
  facet normal 0 0 1
    outer loop
      vertex 4 4 -23.4
      vertex 2 2 -23.4
      vertex 129.6 2 -23.4
    endloop
  endfacet
  facet normal 0 0 1
    outer loop
      vertex 2 2 -23.4
      vertex 4 4 -23.4
      vertex 2 87.75 -23.4
    endloop
  endfacet
  facet normal 0 1 -0
    outer loop
      vertex 129.6 2 -23.4
      vertex 2 2 -7.1
      vertex 129.6 2 -7.1
    endloop
  endfacet
  facet normal 0 1 0
    outer loop
      vertex 2 2 -7.1
      vertex 129.6 2 -23.4
      vertex 2 2 -23.4
    endloop
  endfacet
  facet normal 1 -0 0
    outer loop
      vertex 4 4 -23.4
      vertex 4 85.75 -48
      vertex 4 85.75 -23.4
    endloop
  endfacet
  facet normal 1 0 0
    outer loop
      vertex 4 85.75 -48
      vertex 4 4 -23.4
      vertex 4 4 -48
    endloop
  endfacet
  facet normal -1 0 0
    outer loop
      vertex 127.6 20 -48
      vertex 127.6 4 -48
      vertex 127.6 20 -33
    endloop
  endfacet
  facet normal -1 0 0
    outer loop
      vertex 127.6 69.75 -33
      vertex 127.6 85.75 -48
      vertex 127.6 69.75 -48
    endloop
  endfacet
  facet normal -1 0 0
    outer loop
      vertex 127.6 85.75 -48
      vertex 127.6 69.75 -33
      vertex 127.6 85.75 -23.4
    endloop
  endfacet
  facet normal -1 0 0
    outer loop
      vertex 127.6 20 -33
      vertex 127.6 85.75 -23.4
      vertex 127.6 69.75 -33
    endloop
  endfacet
  facet normal -1 0 0
    outer loop
      vertex 127.6 20 -33
      vertex 127.6 4 -23.4
      vertex 127.6 85.75 -23.4
    endloop
  endfacet
  facet normal -1 0 0
    outer loop
      vertex 127.6 4 -23.4
      vertex 127.6 20 -33
      vertex 127.6 4 -48
    endloop
  endfacet
  facet normal -0 0 1
    outer loop
      vertex 4 85.75 -48
      vertex 127.6 69.75 -48
      vertex 127.6 85.75 -48
    endloop
  endfacet
  facet normal 0 0 1
    outer loop
      vertex 127.6 69.75 -48
      vertex 4 85.75 -48
      vertex 127.6 20 -48
    endloop
  endfacet
  facet normal 0 0 1
    outer loop
      vertex 4 4 -48
      vertex 127.6 20 -48
      vertex 4 85.75 -48
    endloop
  endfacet
  facet normal 0 0 1
    outer loop
      vertex 127.6 20 -48
      vertex 4 4 -48
      vertex 127.6 4 -48
    endloop
  endfacet
  facet normal -0 0 1
    outer loop
      vertex 127.6 69.75 -48
      vertex 131.6 20 -48
      vertex 131.6 69.75 -48
    endloop
  endfacet
  facet normal 0 0 1
    outer loop
      vertex 131.6 20 -48
      vertex 127.6 69.75 -48
      vertex 127.6 20 -48
    endloop
  endfacet
  facet normal 0 1 -0
    outer loop
      vertex 127.6 4 -48
      vertex 4 4 -23.4
      vertex 127.6 4 -23.4
    endloop
  endfacet
  facet normal 0 1 0
    outer loop
      vertex 4 4 -23.4
      vertex 127.6 4 -48
      vertex 4 4 -48
    endloop
  endfacet
  facet normal 0 -1 0
    outer loop
      vertex 4 85.75 -48
      vertex 127.6 85.75 -23.4
      vertex 4 85.75 -23.4
    endloop
  endfacet
  facet normal 0 -1 -0
    outer loop
      vertex 127.6 85.75 -23.4
      vertex 4 85.75 -48
      vertex 127.6 85.75 -48
    endloop
  endfacet
  facet normal 0 0 -1
    outer loop
      vertex 127.6 20 -33
      vertex 131.6 69.75 -33
      vertex 131.6 20 -33
    endloop
  endfacet
  facet normal -0 0 -1
    outer loop
      vertex 131.6 69.75 -33
      vertex 127.6 20 -33
      vertex 127.6 69.75 -33
    endloop
  endfacet
  facet normal 0 -1 0
    outer loop
      vertex 127.6 69.75 -48
      vertex 131.6 69.75 -33
      vertex 127.6 69.75 -33
    endloop
  endfacet
  facet normal 0 -1 -0
    outer loop
      vertex 131.6 69.75 -33
      vertex 127.6 69.75 -48
      vertex 131.6 69.75 -48
    endloop
  endfacet
  facet normal 0 1 -0
    outer loop
      vertex 131.6 20 -48
      vertex 127.6 20 -33
      vertex 131.6 20 -33
    endloop
  endfacet
  facet normal 0 1 0
    outer loop
      vertex 127.6 20 -33
      vertex 131.6 20 -48
      vertex 127.6 20 -48
    endloop
  endfacet
  facet normal 0 -0.156434 0.987688
    outer loop
      vertex 0 49.0911 -14.2015
      vertex 2 47.695 -14.4226
      vertex 2 49.0911 -14.2015
    endloop
  endfacet
  facet normal 0 -0.156434 0.987688
    outer loop
      vertex 2 47.695 -14.4226
      vertex 0 49.0911 -14.2015
      vertex 0 47.695 -14.4226
    endloop
  endfacet
  facet normal 0 -0.0941084 0.995562
    outer loop
      vertex 0 47.695 -14.4226
      vertex 2 46.2878 -14.5556
      vertex 2 47.695 -14.4226
    endloop
  endfacet
  facet normal 0 -0.0941084 0.995562
    outer loop
      vertex 2 46.2878 -14.5556
      vertex 0 47.695 -14.4226
      vertex 0 46.2878 -14.5556
    endloop
  endfacet
  facet normal 0 -0.45399 0.891007
    outer loop
      vertex 0 55.7145 -11.8169
      vertex 2 54.455 -12.4586
      vertex 2 55.7145 -11.8169
    endloop
  endfacet
  facet normal 0 -0.45399 0.891007
    outer loop
      vertex 2 54.455 -12.4586
      vertex 0 55.7145 -11.8169
      vertex 0 54.455 -12.4586
    endloop
  endfacet
  facet normal 0 -0.661312 0.750111
    outer loop
      vertex 0 60.2773 -8.50179
      vertex 2 59.217 -9.43655
      vertex 2 60.2773 -8.50179
    endloop
  endfacet
  facet normal 0 -0.661312 0.750111
    outer loop
      vertex 2 59.217 -9.43655
      vertex 0 60.2773 -8.50179
      vertex 0 59.217 -9.43655
    endloop
  endfacet
  facet normal 0 -0.750112 0.66131
    outer loop
      vertex 0 61.2768 -7.50231
      vertex 2 61.6315 -7.1
      vertex 0 61.6315 -7.1
    endloop
  endfacet
  facet normal 0 -0.750112 0.66131
    outer loop
      vertex 2 61.6315 -7.1
      vertex 0 61.2768 -7.50231
      vertex 2 61.2768 -7.50231
    endloop
  endfacet
  facet normal 0 -0.509042 0.860742
    outer loop
      vertex 0 56.9311 -11.0974
      vertex 2 55.7145 -11.8169
      vertex 2 56.9311 -11.0974
    endloop
  endfacet
  facet normal 0 -0.509042 0.860742
    outer loop
      vertex 2 55.7145 -11.8169
      vertex 0 56.9311 -11.0974
      vertex 0 55.7145 -11.8169
    endloop
  endfacet
  facet normal -0 0.0314105 0.999507
    outer loop
      vertex 0 44.875 -14.6
      vertex 2 43.4622 -14.5556
      vertex 2 44.875 -14.6
    endloop
  endfacet
  facet normal 0 0.0314105 0.999507
    outer loop
      vertex 2 43.4622 -14.5556
      vertex 0 44.875 -14.6
      vertex 0 43.4622 -14.5556
    endloop
  endfacet
  facet normal -0 0.562083 0.827081
    outer loop
      vertex 0 32.8189 -11.0974
      vertex 2 31.6498 -10.3029
      vertex 2 32.8189 -11.0974
    endloop
  endfacet
  facet normal 0 0.562083 0.827081
    outer loop
      vertex 2 31.6498 -10.3029
      vertex 0 32.8189 -11.0974
      vertex 0 31.6498 -10.3029
    endloop
  endfacet
  facet normal 0 -0.278991 0.960294
    outer loop
      vertex 0 51.8279 -13.4988
      vertex 2 50.4705 -13.8931
      vertex 2 51.8279 -13.4988
    endloop
  endfacet
  facet normal 0 -0.278991 0.960294
    outer loop
      vertex 2 50.4705 -13.8931
      vertex 0 51.8279 -13.4988
      vertex 0 50.4705 -13.8931
    endloop
  endfacet
  facet normal 0 -0.397148 0.917754
    outer loop
      vertex 0 54.455 -12.4586
      vertex 2 53.1578 -13.02
      vertex 2 54.455 -12.4586
    endloop
  endfacet
  facet normal 0 -0.397148 0.917754
    outer loop
      vertex 2 53.1578 -13.02
      vertex 0 54.455 -12.4586
      vertex 0 53.1578 -13.02
    endloop
  endfacet
  facet normal 0 -0.338737 0.940881
    outer loop
      vertex 0 53.1578 -13.02
      vertex 2 51.8279 -13.4988
      vertex 2 53.1578 -13.02
    endloop
  endfacet
  facet normal 0 -0.338737 0.940881
    outer loop
      vertex 2 51.8279 -13.4988
      vertex 0 53.1578 -13.02
      vertex 0 51.8279 -13.4988
    endloop
  endfacet
  facet normal 0 -0.707106 0.707107
    outer loop
      vertex 0 61.2768 -7.50231
      vertex 2 60.2773 -8.50179
      vertex 2 61.2768 -7.50231
    endloop
  endfacet
  facet normal 0 -0.707106 0.707107
    outer loop
      vertex 2 60.2773 -8.50179
      vertex 0 61.2768 -7.50231
      vertex 0 60.2773 -8.50179
    endloop
  endfacet
  facet normal 0 -0.612906 0.790156
    outer loop
      vertex 0 59.217 -9.43655
      vertex 2 58.1002 -10.3029
      vertex 2 59.217 -9.43655
    endloop
  endfacet
  facet normal 0 -0.612906 0.790156
    outer loop
      vertex 2 58.1002 -10.3029
      vertex 0 59.217 -9.43655
      vertex 0 58.1002 -10.3029
    endloop
  endfacet
  facet normal 0 -0.0314105 0.999507
    outer loop
      vertex 0 46.2878 -14.5556
      vertex 2 44.875 -14.6
      vertex 2 46.2878 -14.5556
    endloop
  endfacet
  facet normal 0 -0.0314105 0.999507
    outer loop
      vertex 2 44.875 -14.6
      vertex 0 46.2878 -14.5556
      vertex 0 44.875 -14.6
    endloop
  endfacet
  facet normal -0 0.397148 0.917754
    outer loop
      vertex 0 36.5922 -13.02
      vertex 2 35.295 -12.4586
      vertex 2 36.5922 -13.02
    endloop
  endfacet
  facet normal 0 0.397148 0.917754
    outer loop
      vertex 2 35.295 -12.4586
      vertex 0 36.5922 -13.02
      vertex 0 35.295 -12.4586
    endloop
  endfacet
  facet normal -0 0.218143 0.975917
    outer loop
      vertex 0 40.6589 -14.2015
      vertex 2 39.2795 -13.8931
      vertex 2 40.6589 -14.2015
    endloop
  endfacet
  facet normal 0 0.218143 0.975917
    outer loop
      vertex 2 39.2795 -13.8931
      vertex 0 40.6589 -14.2015
      vertex 0 39.2795 -13.8931
    endloop
  endfacet
  facet normal 0 0.750111 0.661312
    outer loop
      vertex 2 28.4732 -7.50231
      vertex 0 28.1185 -7.1
      vertex 2 28.1185 -7.1
    endloop
  endfacet
  facet normal 0 0.750111 0.661312
    outer loop
      vertex 0 28.1185 -7.1
      vertex 2 28.4732 -7.50231
      vertex 0 28.4732 -7.50231
    endloop
  endfacet
  facet normal 0 -0.218144 0.975917
    outer loop
      vertex 0 50.4705 -13.8931
      vertex 2 49.0911 -14.2015
      vertex 2 50.4705 -13.8931
    endloop
  endfacet
  facet normal 0 -0.218144 0.975917
    outer loop
      vertex 2 49.0911 -14.2015
      vertex 0 50.4705 -13.8931
      vertex 0 49.0911 -14.2015
    endloop
  endfacet
  facet normal 0 -0.562084 0.82708
    outer loop
      vertex 0 58.1002 -10.3029
      vertex 2 56.9311 -11.0974
      vertex 2 58.1002 -10.3029
    endloop
  endfacet
  facet normal 0 -0.562084 0.82708
    outer loop
      vertex 2 56.9311 -11.0974
      vertex 0 58.1002 -10.3029
      vertex 0 56.9311 -11.0974
    endloop
  endfacet
  facet normal -0 0.0941082 0.995562
    outer loop
      vertex 0 43.4622 -14.5556
      vertex 2 42.055 -14.4226
      vertex 2 43.4622 -14.5556
    endloop
  endfacet
  facet normal 0 0.0941082 0.995562
    outer loop
      vertex 2 42.055 -14.4226
      vertex 0 43.4622 -14.5556
      vertex 0 42.055 -14.4226
    endloop
  endfacet
  facet normal -0 0.509042 0.860742
    outer loop
      vertex 0 34.0355 -11.8169
      vertex 2 32.8189 -11.0974
      vertex 2 34.0355 -11.8169
    endloop
  endfacet
  facet normal 0 0.509042 0.860742
    outer loop
      vertex 2 32.8189 -11.0974
      vertex 0 34.0355 -11.8169
      vertex 0 32.8189 -11.0974
    endloop
  endfacet
  facet normal -0 0.338737 0.940881
    outer loop
      vertex 0 37.9221 -13.4988
      vertex 2 36.5922 -13.02
      vertex 2 37.9221 -13.4988
    endloop
  endfacet
  facet normal 0 0.338737 0.940881
    outer loop
      vertex 2 36.5922 -13.02
      vertex 0 37.9221 -13.4988
      vertex 0 36.5922 -13.02
    endloop
  endfacet
  facet normal -0 0.661312 0.750111
    outer loop
      vertex 0 30.533 -9.43655
      vertex 2 29.4727 -8.50179
      vertex 2 30.533 -9.43655
    endloop
  endfacet
  facet normal 0 0.661312 0.750111
    outer loop
      vertex 2 29.4727 -8.50179
      vertex 0 30.533 -9.43655
      vertex 0 29.4727 -8.50179
    endloop
  endfacet
  facet normal -0 0.45399 0.891007
    outer loop
      vertex 0 35.295 -12.4586
      vertex 2 34.0355 -11.8169
      vertex 2 35.295 -12.4586
    endloop
  endfacet
  facet normal 0 0.45399 0.891007
    outer loop
      vertex 2 34.0355 -11.8169
      vertex 0 35.295 -12.4586
      vertex 0 34.0355 -11.8169
    endloop
  endfacet
  facet normal -0 0.278992 0.960293
    outer loop
      vertex 0 39.2795 -13.8931
      vertex 2 37.9221 -13.4988
      vertex 2 39.2795 -13.8931
    endloop
  endfacet
  facet normal 0 0.278992 0.960293
    outer loop
      vertex 2 37.9221 -13.4988
      vertex 0 39.2795 -13.8931
      vertex 0 37.9221 -13.4988
    endloop
  endfacet
  facet normal -0 0.156435 0.987688
    outer loop
      vertex 0 42.055 -14.4226
      vertex 2 40.6589 -14.2015
      vertex 2 42.055 -14.4226
    endloop
  endfacet
  facet normal 0 0.156435 0.987688
    outer loop
      vertex 2 40.6589 -14.2015
      vertex 0 42.055 -14.4226
      vertex 0 40.6589 -14.2015
    endloop
  endfacet
  facet normal -0 0.707106 0.707107
    outer loop
      vertex 0 29.4727 -8.50179
      vertex 2 28.4732 -7.50231
      vertex 2 29.4727 -8.50179
    endloop
  endfacet
  facet normal 0 0.707106 0.707107
    outer loop
      vertex 2 28.4732 -7.50231
      vertex 0 29.4727 -8.50179
      vertex 0 28.4732 -7.50231
    endloop
  endfacet
  facet normal -0 0.612907 0.790155
    outer loop
      vertex 0 31.6498 -10.3029
      vertex 2 30.533 -9.43655
      vertex 2 31.6498 -10.3029
    endloop
  endfacet
  facet normal 0 0.612907 0.790155
    outer loop
      vertex 2 30.533 -9.43655
      vertex 0 31.6498 -10.3029
      vertex 0 30.533 -9.43655
    endloop
  endfacet
  facet normal 0 -0.0314105 0.999507
    outer loop
      vertex 129.6 46.2878 -14.5556
      vertex 131.6 44.875 -14.6
      vertex 131.6 46.2878 -14.5556
    endloop
  endfacet
  facet normal 0 -0.0314105 0.999507
    outer loop
      vertex 131.6 44.875 -14.6
      vertex 129.6 46.2878 -14.5556
      vertex 129.6 44.875 -14.6
    endloop
  endfacet
  facet normal 0 -0.707106 0.707107
    outer loop
      vertex 129.6 61.2768 -7.50231
      vertex 131.6 60.2773 -8.50179
      vertex 131.6 61.2768 -7.50231
    endloop
  endfacet
  facet normal 0 -0.707106 0.707107
    outer loop
      vertex 131.6 60.2773 -8.50179
      vertex 129.6 61.2768 -7.50231
      vertex 129.6 60.2773 -8.50179
    endloop
  endfacet
  facet normal -0 0.509042 0.860742
    outer loop
      vertex 129.6 34.0355 -11.8169
      vertex 131.6 32.8189 -11.0974
      vertex 131.6 34.0355 -11.8169
    endloop
  endfacet
  facet normal 0 0.509042 0.860742
    outer loop
      vertex 131.6 32.8189 -11.0974
      vertex 129.6 34.0355 -11.8169
      vertex 129.6 32.8189 -11.0974
    endloop
  endfacet
  facet normal 0 0.750111 0.661312
    outer loop
      vertex 131.6 28.4732 -7.50231
      vertex 129.6 28.1185 -7.1
      vertex 131.6 28.1185 -7.1
    endloop
  endfacet
  facet normal 0 0.750111 0.661312
    outer loop
      vertex 129.6 28.1185 -7.1
      vertex 131.6 28.4732 -7.50231
      vertex 129.6 28.4732 -7.50231
    endloop
  endfacet
  facet normal 0 -0.0941084 0.995562
    outer loop
      vertex 129.6 47.695 -14.4226
      vertex 131.6 46.2878 -14.5556
      vertex 131.6 47.695 -14.4226
    endloop
  endfacet
  facet normal 0 -0.0941084 0.995562
    outer loop
      vertex 131.6 46.2878 -14.5556
      vertex 129.6 47.695 -14.4226
      vertex 129.6 46.2878 -14.5556
    endloop
  endfacet
  facet normal 0 -0.278991 0.960294
    outer loop
      vertex 129.6 51.8279 -13.4988
      vertex 131.6 50.4705 -13.8931
      vertex 131.6 51.8279 -13.4988
    endloop
  endfacet
  facet normal 0 -0.278991 0.960294
    outer loop
      vertex 131.6 50.4705 -13.8931
      vertex 129.6 51.8279 -13.4988
      vertex 129.6 50.4705 -13.8931
    endloop
  endfacet
  facet normal 0 -0.612906 0.790156
    outer loop
      vertex 129.6 59.217 -9.43655
      vertex 131.6 58.1002 -10.3029
      vertex 131.6 59.217 -9.43655
    endloop
  endfacet
  facet normal 0 -0.612906 0.790156
    outer loop
      vertex 131.6 58.1002 -10.3029
      vertex 129.6 59.217 -9.43655
      vertex 129.6 58.1002 -10.3029
    endloop
  endfacet
  facet normal 0 -0.661312 0.750111
    outer loop
      vertex 129.6 60.2773 -8.50179
      vertex 131.6 59.217 -9.43655
      vertex 131.6 60.2773 -8.50179
    endloop
  endfacet
  facet normal 0 -0.661312 0.750111
    outer loop
      vertex 131.6 59.217 -9.43655
      vertex 129.6 60.2773 -8.50179
      vertex 129.6 59.217 -9.43655
    endloop
  endfacet
  facet normal -0 0.562083 0.827081
    outer loop
      vertex 129.6 32.8189 -11.0974
      vertex 131.6 31.6498 -10.3029
      vertex 131.6 32.8189 -11.0974
    endloop
  endfacet
  facet normal 0 0.562083 0.827081
    outer loop
      vertex 131.6 31.6498 -10.3029
      vertex 129.6 32.8189 -11.0974
      vertex 129.6 31.6498 -10.3029
    endloop
  endfacet
  facet normal -0 0.0941082 0.995562
    outer loop
      vertex 129.6 43.4622 -14.5556
      vertex 131.6 42.055 -14.4226
      vertex 131.6 43.4622 -14.5556
    endloop
  endfacet
  facet normal 0 0.0941082 0.995562
    outer loop
      vertex 131.6 42.055 -14.4226
      vertex 129.6 43.4622 -14.5556
      vertex 129.6 42.055 -14.4226
    endloop
  endfacet
  facet normal 0 -0.156434 0.987688
    outer loop
      vertex 129.6 49.0911 -14.2015
      vertex 131.6 47.695 -14.4226
      vertex 131.6 49.0911 -14.2015
    endloop
  endfacet
  facet normal 0 -0.156434 0.987688
    outer loop
      vertex 131.6 47.695 -14.4226
      vertex 129.6 49.0911 -14.2015
      vertex 129.6 47.695 -14.4226
    endloop
  endfacet
  facet normal 0 -0.397148 0.917754
    outer loop
      vertex 129.6 54.455 -12.4586
      vertex 131.6 53.1578 -13.02
      vertex 131.6 54.455 -12.4586
    endloop
  endfacet
  facet normal 0 -0.397148 0.917754
    outer loop
      vertex 131.6 53.1578 -13.02
      vertex 129.6 54.455 -12.4586
      vertex 129.6 53.1578 -13.02
    endloop
  endfacet
  facet normal 0 -0.509042 0.860742
    outer loop
      vertex 129.6 56.9311 -11.0974
      vertex 131.6 55.7145 -11.8169
      vertex 131.6 56.9311 -11.0974
    endloop
  endfacet
  facet normal 0 -0.509042 0.860742
    outer loop
      vertex 131.6 55.7145 -11.8169
      vertex 129.6 56.9311 -11.0974
      vertex 129.6 55.7145 -11.8169
    endloop
  endfacet
  facet normal -0 0.661312 0.750111
    outer loop
      vertex 129.6 30.533 -9.43655
      vertex 131.6 29.4727 -8.50179
      vertex 131.6 30.533 -9.43655
    endloop
  endfacet
  facet normal 0 0.661312 0.750111
    outer loop
      vertex 131.6 29.4727 -8.50179
      vertex 129.6 30.533 -9.43655
      vertex 129.6 29.4727 -8.50179
    endloop
  endfacet
  facet normal -0 0.45399 0.891007
    outer loop
      vertex 129.6 35.295 -12.4586
      vertex 131.6 34.0355 -11.8169
      vertex 131.6 35.295 -12.4586
    endloop
  endfacet
  facet normal 0 0.45399 0.891007
    outer loop
      vertex 131.6 34.0355 -11.8169
      vertex 129.6 35.295 -12.4586
      vertex 129.6 34.0355 -11.8169
    endloop
  endfacet
  facet normal -0 0.338737 0.940881
    outer loop
      vertex 129.6 37.9221 -13.4988
      vertex 131.6 36.5922 -13.02
      vertex 131.6 37.9221 -13.4988
    endloop
  endfacet
  facet normal 0 0.338737 0.940881
    outer loop
      vertex 131.6 36.5922 -13.02
      vertex 129.6 37.9221 -13.4988
      vertex 129.6 36.5922 -13.02
    endloop
  endfacet
  facet normal -0 0.218143 0.975917
    outer loop
      vertex 129.6 40.6589 -14.2015
      vertex 131.6 39.2795 -13.8931
      vertex 131.6 40.6589 -14.2015
    endloop
  endfacet
  facet normal 0 0.218143 0.975917
    outer loop
      vertex 131.6 39.2795 -13.8931
      vertex 129.6 40.6589 -14.2015
      vertex 129.6 39.2795 -13.8931
    endloop
  endfacet
  facet normal -0 0.0314105 0.999507
    outer loop
      vertex 129.6 44.875 -14.6
      vertex 131.6 43.4622 -14.5556
      vertex 131.6 44.875 -14.6
    endloop
  endfacet
  facet normal 0 0.0314105 0.999507
    outer loop
      vertex 131.6 43.4622 -14.5556
      vertex 129.6 44.875 -14.6
      vertex 129.6 43.4622 -14.5556
    endloop
  endfacet
  facet normal 0 -0.218144 0.975917
    outer loop
      vertex 129.6 50.4705 -13.8931
      vertex 131.6 49.0911 -14.2015
      vertex 131.6 50.4705 -13.8931
    endloop
  endfacet
  facet normal 0 -0.218144 0.975917
    outer loop
      vertex 131.6 49.0911 -14.2015
      vertex 129.6 50.4705 -13.8931
      vertex 129.6 49.0911 -14.2015
    endloop
  endfacet
  facet normal 0 -0.45399 0.891007
    outer loop
      vertex 129.6 55.7145 -11.8169
      vertex 131.6 54.455 -12.4586
      vertex 131.6 55.7145 -11.8169
    endloop
  endfacet
  facet normal 0 -0.45399 0.891007
    outer loop
      vertex 131.6 54.455 -12.4586
      vertex 129.6 55.7145 -11.8169
      vertex 129.6 54.455 -12.4586
    endloop
  endfacet
  facet normal 0 -0.338737 0.940881
    outer loop
      vertex 129.6 53.1578 -13.02
      vertex 131.6 51.8279 -13.4988
      vertex 131.6 53.1578 -13.02
    endloop
  endfacet
  facet normal 0 -0.338737 0.940881
    outer loop
      vertex 131.6 51.8279 -13.4988
      vertex 129.6 53.1578 -13.02
      vertex 129.6 51.8279 -13.4988
    endloop
  endfacet
  facet normal 0 -0.750112 0.66131
    outer loop
      vertex 129.6 61.2768 -7.50231
      vertex 131.6 61.6315 -7.1
      vertex 129.6 61.6315 -7.1
    endloop
  endfacet
  facet normal 0 -0.750112 0.66131
    outer loop
      vertex 131.6 61.6315 -7.1
      vertex 129.6 61.2768 -7.50231
      vertex 131.6 61.2768 -7.50231
    endloop
  endfacet
  facet normal 0 -0.562084 0.82708
    outer loop
      vertex 129.6 58.1002 -10.3029
      vertex 131.6 56.9311 -11.0974
      vertex 131.6 58.1002 -10.3029
    endloop
  endfacet
  facet normal 0 -0.562084 0.82708
    outer loop
      vertex 131.6 56.9311 -11.0974
      vertex 129.6 58.1002 -10.3029
      vertex 129.6 56.9311 -11.0974
    endloop
  endfacet
  facet normal -0 0.707106 0.707107
    outer loop
      vertex 129.6 29.4727 -8.50179
      vertex 131.6 28.4732 -7.50231
      vertex 131.6 29.4727 -8.50179
    endloop
  endfacet
  facet normal 0 0.707106 0.707107
    outer loop
      vertex 131.6 28.4732 -7.50231
      vertex 129.6 29.4727 -8.50179
      vertex 129.6 28.4732 -7.50231
    endloop
  endfacet
  facet normal -0 0.612907 0.790155
    outer loop
      vertex 129.6 31.6498 -10.3029
      vertex 131.6 30.533 -9.43655
      vertex 131.6 31.6498 -10.3029
    endloop
  endfacet
  facet normal 0 0.612907 0.790155
    outer loop
      vertex 131.6 30.533 -9.43655
      vertex 129.6 31.6498 -10.3029
      vertex 129.6 30.533 -9.43655
    endloop
  endfacet
  facet normal -0 0.397148 0.917754
    outer loop
      vertex 129.6 36.5922 -13.02
      vertex 131.6 35.295 -12.4586
      vertex 131.6 36.5922 -13.02
    endloop
  endfacet
  facet normal 0 0.397148 0.917754
    outer loop
      vertex 131.6 35.295 -12.4586
      vertex 129.6 36.5922 -13.02
      vertex 129.6 35.295 -12.4586
    endloop
  endfacet
  facet normal -0 0.278992 0.960293
    outer loop
      vertex 129.6 39.2795 -13.8931
      vertex 131.6 37.9221 -13.4988
      vertex 131.6 39.2795 -13.8931
    endloop
  endfacet
  facet normal 0 0.278992 0.960293
    outer loop
      vertex 131.6 37.9221 -13.4988
      vertex 129.6 39.2795 -13.8931
      vertex 129.6 37.9221 -13.4988
    endloop
  endfacet
  facet normal -0 0.156435 0.987688
    outer loop
      vertex 129.6 42.055 -14.4226
      vertex 131.6 40.6589 -14.2015
      vertex 131.6 42.055 -14.4226
    endloop
  endfacet
  facet normal 0 0.156435 0.987688
    outer loop
      vertex 131.6 40.6589 -14.2015
      vertex 129.6 42.055 -14.4226
      vertex 129.6 40.6589 -14.2015
    endloop
  endfacet
  facet normal -1 0 0
    outer loop
      vertex 131.6 87.75 -48
      vertex 131.6 89.75 -21.4
      vertex 131.6 89.75 -50
    endloop
  endfacet
  facet normal -1 0 0
    outer loop
      vertex 131.6 87.75 -7.1
      vertex 131.6 89.75 -21.4
      vertex 131.6 87.75 -48
    endloop
  endfacet
  facet normal -1 0 0
    outer loop
      vertex 131.6 89.75 -21.4
      vertex 131.6 87.75 -7.1
      vertex 131.6 89.75 -19.4
    endloop
  endfacet
  facet normal -1 0 0
    outer loop
      vertex 131.6 89.75 -50
      vertex 131.6 2 -48
      vertex 131.6 87.75 -48
    endloop
  endfacet
  facet normal -1 0 0
    outer loop
      vertex 131.6 0 -50
      vertex 131.6 2 -48
      vertex 131.6 89.75 -50
    endloop
  endfacet
  facet normal -1 0 0
    outer loop
      vertex 131.6 0 -21.4
      vertex 131.6 2 -48
      vertex 131.6 0 -50
    endloop
  endfacet
  facet normal -1 0 0
    outer loop
      vertex 131.6 2 -48
      vertex 131.6 0 -21.4
      vertex 131.6 2 -7.1
    endloop
  endfacet
  facet normal -1 0 0
    outer loop
      vertex 131.6 0 -19.4
      vertex 131.6 2 -7.1
      vertex 131.6 0 -21.4
    endloop
  endfacet
  facet normal -1 -0 0
    outer loop
      vertex 131.6 2 -7.1
      vertex 131.6 0 -19.4
      vertex 131.6 0 -7.1
    endloop
  endfacet
  facet normal -1 0 0
    outer loop
      vertex 131.6 89.75 -19.4
      vertex 131.6 87.75 -7.1
      vertex 131.6 89.75 -7.1
    endloop
  endfacet
  facet normal 0 0 1
    outer loop
      vertex 171.6 89.75 -7.1
      vertex 169.6 87.75 -7.1
      vertex 171.6 0 -7.1
    endloop
  endfacet
  facet normal -0 0 1
    outer loop
      vertex 131.6 89.75 -7.1
      vertex 169.6 87.75 -7.1
      vertex 171.6 89.75 -7.1
    endloop
  endfacet
  facet normal 0 0 1
    outer loop
      vertex 169.6 87.75 -7.1
      vertex 131.6 89.75 -7.1
      vertex 131.6 87.75 -7.1
    endloop
  endfacet
  facet normal -0 0 1
    outer loop
      vertex 169.6 2 -7.1
      vertex 171.6 0 -7.1
      vertex 169.6 87.75 -7.1
    endloop
  endfacet
  facet normal 0 0 1
    outer loop
      vertex 131.6 0 -7.1
      vertex 169.6 2 -7.1
      vertex 131.6 2 -7.1
    endloop
  endfacet
  facet normal 0 0 1
    outer loop
      vertex 169.6 2 -7.1
      vertex 131.6 0 -7.1
      vertex 171.6 0 -7.1
    endloop
  endfacet
  facet normal 1 -0 0
    outer loop
      vertex 171.6 0 -7.1
      vertex 171.6 89.75 -19.4
      vertex 171.6 89.75 -7.1
    endloop
  endfacet
  facet normal 1 0 0
    outer loop
      vertex 171.6 89.75 -19.4
      vertex 171.6 0 -7.1
      vertex 171.6 0 -19.4
    endloop
  endfacet
  facet normal 1 -0 0
    outer loop
      vertex 171.6 0 -21.4
      vertex 171.6 89.75 -50
      vertex 171.6 89.75 -21.4
    endloop
  endfacet
  facet normal 1 0 0
    outer loop
      vertex 171.6 89.75 -50
      vertex 171.6 0 -21.4
      vertex 171.6 0 -50
    endloop
  endfacet
  facet normal 0 0 -1
    outer loop
      vertex 131.6 0 -50
      vertex 171.6 89.75 -50
      vertex 171.6 0 -50
    endloop
  endfacet
  facet normal -0 0 -1
    outer loop
      vertex 171.6 89.75 -50
      vertex 131.6 0 -50
      vertex 131.6 89.75 -50
    endloop
  endfacet
  facet normal -1 0 0
    outer loop
      vertex 169.6 2 -48
      vertex 169.6 87.75 -7.1
      vertex 169.6 87.75 -48
    endloop
  endfacet
  facet normal -1 -0 0
    outer loop
      vertex 169.6 87.75 -7.1
      vertex 169.6 2 -48
      vertex 169.6 2 -7.1
    endloop
  endfacet
  facet normal 0 -1 0
    outer loop
      vertex 131.6 87.75 -48
      vertex 169.6 87.75 -7.1
      vertex 131.6 87.75 -7.1
    endloop
  endfacet
  facet normal 0 -1 -0
    outer loop
      vertex 169.6 87.75 -7.1
      vertex 131.6 87.75 -48
      vertex 169.6 87.75 -48
    endloop
  endfacet
  facet normal -0 0 1
    outer loop
      vertex 131.6 87.75 -48
      vertex 169.6 2 -48
      vertex 169.6 87.75 -48
    endloop
  endfacet
  facet normal 0 0 1
    outer loop
      vertex 169.6 2 -48
      vertex 131.6 87.75 -48
      vertex 131.6 2 -48
    endloop
  endfacet
  facet normal 0 1 -0
    outer loop
      vertex 169.6 2 -48
      vertex 131.6 2 -7.1
      vertex 169.6 2 -7.1
    endloop
  endfacet
  facet normal 0 1 0
    outer loop
      vertex 131.6 2 -7.1
      vertex 169.6 2 -48
      vertex 131.6 2 -48
    endloop
  endfacet
  facet normal -1 0 0
    outer loop
      vertex -2 -2 -21.4
      vertex -2 91.75 -19.4
      vertex -2 91.75 -21.4
    endloop
  endfacet
  facet normal -1 -0 0
    outer loop
      vertex -2 91.75 -19.4
      vertex -2 -2 -21.4
      vertex -2 -2 -19.4
    endloop
  endfacet
  facet normal 0 0 1
    outer loop
      vertex 173.6 91.75 -19.4
      vertex 171.6 89.75 -19.4
      vertex 173.6 -2 -19.4
    endloop
  endfacet
  facet normal 0 0 1
    outer loop
      vertex 173.6 91.75 -19.4
      vertex 131.6 89.75 -19.4
      vertex 171.6 89.75 -19.4
    endloop
  endfacet
  facet normal -0 0 1
    outer loop
      vertex -2 91.75 -19.4
      vertex 131.6 89.75 -19.4
      vertex 173.6 91.75 -19.4
    endloop
  endfacet
  facet normal 0 0 1
    outer loop
      vertex 0 89.75 -19.4
      vertex -2 91.75 -19.4
      vertex 0 0 -19.4
    endloop
  endfacet
  facet normal 0 0 1
    outer loop
      vertex 131.6 89.75 -19.4
      vertex -2 91.75 -19.4
      vertex 0 89.75 -19.4
    endloop
  endfacet
  facet normal -0 0 1
    outer loop
      vertex 171.6 0 -19.4
      vertex 173.6 -2 -19.4
      vertex 171.6 89.75 -19.4
    endloop
  endfacet
  facet normal -0 0 1
    outer loop
      vertex 131.6 0 -19.4
      vertex 173.6 -2 -19.4
      vertex 171.6 0 -19.4
    endloop
  endfacet
  facet normal 0 0 1
    outer loop
      vertex -2 -2 -19.4
      vertex 131.6 0 -19.4
      vertex 0 0 -19.4
    endloop
  endfacet
  facet normal 0 0 1
    outer loop
      vertex 131.6 0 -19.4
      vertex -2 -2 -19.4
      vertex 173.6 -2 -19.4
    endloop
  endfacet
  facet normal 0 0 1
    outer loop
      vertex -2 -2 -19.4
      vertex 0 0 -19.4
      vertex -2 91.75 -19.4
    endloop
  endfacet
  facet normal 1 -0 0
    outer loop
      vertex 173.6 -2 -19.4
      vertex 173.6 91.75 -21.4
      vertex 173.6 91.75 -19.4
    endloop
  endfacet
  facet normal 1 0 0
    outer loop
      vertex 173.6 91.75 -21.4
      vertex 173.6 -2 -19.4
      vertex 173.6 -2 -21.4
    endloop
  endfacet
  facet normal 0 0 -1
    outer loop
      vertex 173.6 -2 -21.4
      vertex 171.6 0 -21.4
      vertex 173.6 91.75 -21.4
    endloop
  endfacet
  facet normal 0 0 -1
    outer loop
      vertex 173.6 -2 -21.4
      vertex 131.6 0 -21.4
      vertex 171.6 0 -21.4
    endloop
  endfacet
  facet normal 0 0 -1
    outer loop
      vertex -2 -2 -21.4
      vertex 131.6 0 -21.4
      vertex 173.6 -2 -21.4
    endloop
  endfacet
  facet normal -0 0 -1
    outer loop
      vertex 0 0 -21.4
      vertex -2 -2 -21.4
      vertex 0 89.75 -21.4
    endloop
  endfacet
  facet normal -0 0 -1
    outer loop
      vertex 131.6 0 -21.4
      vertex -2 -2 -21.4
      vertex 0 0 -21.4
    endloop
  endfacet
  facet normal 0 0 -1
    outer loop
      vertex 171.6 89.75 -21.4
      vertex 173.6 91.75 -21.4
      vertex 171.6 0 -21.4
    endloop
  endfacet
  facet normal 0 0 -1
    outer loop
      vertex 131.6 89.75 -21.4
      vertex 173.6 91.75 -21.4
      vertex 171.6 89.75 -21.4
    endloop
  endfacet
  facet normal 0 0 -1
    outer loop
      vertex -2 91.75 -21.4
      vertex 131.6 89.75 -21.4
      vertex 0 89.75 -21.4
    endloop
  endfacet
  facet normal 0 0 -1
    outer loop
      vertex 131.6 89.75 -21.4
      vertex -2 91.75 -21.4
      vertex 173.6 91.75 -21.4
    endloop
  endfacet
  facet normal 0 0 -1
    outer loop
      vertex -2 91.75 -21.4
      vertex 0 89.75 -21.4
      vertex -2 -2 -21.4
    endloop
  endfacet
  facet normal 0 -1 0
    outer loop
      vertex -2 -2 -21.4
      vertex 173.6 -2 -19.4
      vertex -2 -2 -19.4
    endloop
  endfacet
  facet normal 0 -1 -0
    outer loop
      vertex 173.6 -2 -19.4
      vertex -2 -2 -21.4
      vertex 173.6 -2 -21.4
    endloop
  endfacet
  facet normal 0 1 -0
    outer loop
      vertex 173.6 91.75 -21.4
      vertex -2 91.75 -19.4
      vertex 173.6 91.75 -19.4
    endloop
  endfacet
  facet normal 0 1 0
    outer loop
      vertex -2 91.75 -19.4
      vertex 173.6 91.75 -21.4
      vertex -2 91.75 -21.4
    endloop
  endfacet
endsolid OpenSCAD_Model
