G04 #@! TF.FileFunction,Legend,Bot*
%FSLAX46Y46*%
G04 Gerber Fmt 4.6, Leading zero omitted, Abs format (unit mm)*
G04 Created by KiCad (PCBNEW 4.0.5-e0-6337~52~ubuntu16.10.1) date Thu Jan 26 22:16:01 2017*
%MOMM*%
%LPD*%
G01*
G04 APERTURE LIST*
%ADD10C,0.100000*%
%ADD11C,0.150000*%
G04 APERTURE END LIST*
D10*
X73427228Y-119275472D02*
X73427228Y-113464180D01*
X73427228Y-113464180D02*
X72143795Y-113437849D01*
X72143795Y-113437849D02*
X72150483Y-104606627D01*
X72150483Y-104606627D02*
X73352736Y-104608603D01*
X73352736Y-104608603D02*
X73326658Y-95527807D01*
X73326658Y-95527807D02*
X42156507Y-95541805D01*
X42156507Y-95541805D02*
X41553714Y-95774616D01*
X41553714Y-95774616D02*
X41008833Y-96058099D01*
X41008833Y-96058099D02*
X40522423Y-96392747D01*
X40522423Y-96392747D02*
X40095048Y-96779047D01*
X40095048Y-96779047D02*
X39727259Y-97217488D01*
X39727259Y-97217488D02*
X39419623Y-97708560D01*
X39419623Y-97708560D02*
X39172690Y-98252750D01*
X39172690Y-98252750D02*
X38987024Y-98850547D01*
X38987024Y-98850547D02*
X38958266Y-117888460D01*
X38958266Y-117888460D02*
X39192259Y-118507824D01*
X39192259Y-118507824D02*
X39476742Y-119096018D01*
X39476742Y-119096018D02*
X39826257Y-119639445D01*
X39826257Y-119639445D02*
X40255342Y-120124503D01*
X40255342Y-120124503D02*
X40778540Y-120537595D01*
X40778540Y-120537595D02*
X41410387Y-120865122D01*
X41410387Y-120865122D02*
X42165425Y-121093482D01*
X42165425Y-121093482D02*
X43058193Y-121209078D01*
X43058193Y-121209078D02*
X65613285Y-121234026D01*
X65613285Y-121234026D02*
X66574181Y-119290480D01*
X66574181Y-119290480D02*
X73382524Y-119260686D01*
X67201451Y-105278350D02*
X67201451Y-112417931D01*
X67201451Y-112417931D02*
X73015188Y-112417931D01*
X73015188Y-112417931D02*
X73015188Y-105278350D01*
X73015188Y-105278350D02*
X67201451Y-105278350D01*
X66552349Y-119201600D02*
X66552349Y-117649378D01*
X66552349Y-117649378D02*
X67081515Y-117120211D01*
X67081515Y-117120211D02*
X67081515Y-115867850D01*
X67081515Y-115867850D02*
X72143876Y-115867850D01*
X72143876Y-115867850D02*
X72143876Y-117155489D01*
X72143876Y-117155489D02*
X72637765Y-117684656D01*
X72637765Y-117684656D02*
X72637765Y-119254517D01*
X72637765Y-119254517D02*
X66552349Y-119201600D01*
X68633738Y-119236878D02*
X68633738Y-119889517D01*
X68633738Y-119889517D02*
X70626932Y-119889517D01*
X70626932Y-119889517D02*
X70626932Y-119272156D01*
D11*
X75412381Y-108966095D02*
X76221905Y-108966095D01*
X76317143Y-109013714D01*
X76364762Y-109061333D01*
X76412381Y-109156571D01*
X76412381Y-109347048D01*
X76364762Y-109442286D01*
X76317143Y-109489905D01*
X76221905Y-109537524D01*
X75412381Y-109537524D01*
X75840952Y-110156571D02*
X75793333Y-110061333D01*
X75745714Y-110013714D01*
X75650476Y-109966095D01*
X75602857Y-109966095D01*
X75507619Y-110013714D01*
X75460000Y-110061333D01*
X75412381Y-110156571D01*
X75412381Y-110347048D01*
X75460000Y-110442286D01*
X75507619Y-110489905D01*
X75602857Y-110537524D01*
X75650476Y-110537524D01*
X75745714Y-110489905D01*
X75793333Y-110442286D01*
X75840952Y-110347048D01*
X75840952Y-110156571D01*
X75888571Y-110061333D01*
X75936190Y-110013714D01*
X76031429Y-109966095D01*
X76221905Y-109966095D01*
X76317143Y-110013714D01*
X76364762Y-110061333D01*
X76412381Y-110156571D01*
X76412381Y-110347048D01*
X76364762Y-110442286D01*
X76317143Y-110489905D01*
X76221905Y-110537524D01*
X76031429Y-110537524D01*
X75936190Y-110489905D01*
X75888571Y-110442286D01*
X75840952Y-110347048D01*
X40267143Y-101600857D02*
X43267143Y-102315143D01*
X41124286Y-102886572D01*
X43267143Y-103458000D01*
X40267143Y-104172286D01*
X43124286Y-106458000D02*
X43267143Y-106172286D01*
X43267143Y-105600857D01*
X43124286Y-105315143D01*
X42838571Y-105172286D01*
X41695714Y-105172286D01*
X41410000Y-105315143D01*
X41267143Y-105600857D01*
X41267143Y-106172286D01*
X41410000Y-106458000D01*
X41695714Y-106600857D01*
X41981429Y-106600857D01*
X42267143Y-105172286D01*
X43267143Y-107886572D02*
X40267143Y-107886572D01*
X42410000Y-108886572D01*
X40267143Y-109886572D01*
X43267143Y-109886572D01*
X43267143Y-111743714D02*
X43124286Y-111458000D01*
X42981429Y-111315143D01*
X42695714Y-111172286D01*
X41838571Y-111172286D01*
X41552857Y-111315143D01*
X41410000Y-111458000D01*
X41267143Y-111743714D01*
X41267143Y-112172286D01*
X41410000Y-112458000D01*
X41552857Y-112600857D01*
X41838571Y-112743714D01*
X42695714Y-112743714D01*
X42981429Y-112600857D01*
X43124286Y-112458000D01*
X43267143Y-112172286D01*
X43267143Y-111743714D01*
X43124286Y-113886572D02*
X43267143Y-114172286D01*
X43267143Y-114743714D01*
X43124286Y-115029429D01*
X42838571Y-115172286D01*
X42695714Y-115172286D01*
X42410000Y-115029429D01*
X42267143Y-114743714D01*
X42267143Y-114315143D01*
X42124286Y-114029429D01*
X41838571Y-113886572D01*
X41695714Y-113886572D01*
X41410000Y-114029429D01*
X41267143Y-114315143D01*
X41267143Y-114743714D01*
X41410000Y-115029429D01*
M02*
