G04 #@! TF.FileFunction,Legend,Top*
%FSLAX46Y46*%
G04 Gerber Fmt 4.6, Leading zero omitted, Abs format (unit mm)*
G04 Created by KiCad (PCBNEW 4.0.5-e0-6337~52~ubuntu16.10.1) date Thu Jan 26 22:16:01 2017*
%MOMM*%
%LPD*%
G01*
G04 APERTURE LIST*
%ADD10C,0.100000*%
%ADD11C,0.150000*%
%ADD12C,0.120000*%
G04 APERTURE END LIST*
D10*
D11*
X60960000Y-102108000D02*
X46990000Y-102108000D01*
X46990000Y-102108000D02*
X46990000Y-114808000D01*
X46990000Y-114808000D02*
X60960000Y-114808000D01*
X60960000Y-114808000D02*
X60960000Y-102108000D01*
X62230000Y-99568000D02*
X62230000Y-117348000D01*
X62230000Y-117348000D02*
X39370000Y-117348000D01*
X39370000Y-117348000D02*
X39370000Y-99568000D01*
X39370000Y-99568000D02*
X62230000Y-99568000D01*
X111252000Y-78994000D02*
X111252000Y-61214000D01*
X111252000Y-61214000D02*
X108712000Y-61214000D01*
X108712000Y-61214000D02*
X108712000Y-78994000D01*
X111532000Y-81814000D02*
X111532000Y-80264000D01*
X111252000Y-78994000D02*
X108712000Y-78994000D01*
X108432000Y-80264000D02*
X108432000Y-81814000D01*
X108432000Y-81814000D02*
X111532000Y-81814000D01*
X104394000Y-78994000D02*
X104394000Y-61214000D01*
X104394000Y-61214000D02*
X101854000Y-61214000D01*
X101854000Y-61214000D02*
X101854000Y-78994000D01*
X104674000Y-81814000D02*
X104674000Y-80264000D01*
X104394000Y-78994000D02*
X101854000Y-78994000D01*
X101574000Y-80264000D02*
X101574000Y-81814000D01*
X101574000Y-81814000D02*
X104674000Y-81814000D01*
X86360000Y-89154000D02*
X86360000Y-51054000D01*
X86360000Y-51054000D02*
X88900000Y-51054000D01*
X88900000Y-51054000D02*
X88900000Y-89154000D01*
X89180000Y-91974000D02*
X89180000Y-90424000D01*
X88900000Y-89154000D02*
X86360000Y-89154000D01*
X86080000Y-90424000D02*
X86080000Y-91974000D01*
X86080000Y-91974000D02*
X89180000Y-91974000D01*
X44196000Y-55372000D02*
G75*
G03X44196000Y-55372000I-762000J0D01*
G01*
X41021000Y-55753000D02*
X41021000Y-53340000D01*
X41021000Y-53340000D02*
X45847000Y-53340000D01*
X45847000Y-53340000D02*
X45847000Y-58166000D01*
X45847000Y-58166000D02*
X41021000Y-58166000D01*
X41021000Y-58166000D02*
X41021000Y-55753000D01*
X53340000Y-55372000D02*
G75*
G03X53340000Y-55372000I-762000J0D01*
G01*
X50165000Y-55753000D02*
X50165000Y-53340000D01*
X50165000Y-53340000D02*
X54991000Y-53340000D01*
X54991000Y-53340000D02*
X54991000Y-58166000D01*
X54991000Y-58166000D02*
X50165000Y-58166000D01*
X50165000Y-58166000D02*
X50165000Y-55753000D01*
X62484000Y-55372000D02*
G75*
G03X62484000Y-55372000I-762000J0D01*
G01*
X59309000Y-55753000D02*
X59309000Y-53340000D01*
X59309000Y-53340000D02*
X64135000Y-53340000D01*
X64135000Y-53340000D02*
X64135000Y-58166000D01*
X64135000Y-58166000D02*
X59309000Y-58166000D01*
X59309000Y-58166000D02*
X59309000Y-55753000D01*
X71374000Y-55372000D02*
G75*
G03X71374000Y-55372000I-762000J0D01*
G01*
X68199000Y-55753000D02*
X68199000Y-53340000D01*
X68199000Y-53340000D02*
X73025000Y-53340000D01*
X73025000Y-53340000D02*
X73025000Y-58166000D01*
X73025000Y-58166000D02*
X68199000Y-58166000D01*
X68199000Y-58166000D02*
X68199000Y-55753000D01*
X44196000Y-64516000D02*
G75*
G03X44196000Y-64516000I-762000J0D01*
G01*
X41021000Y-64897000D02*
X41021000Y-62484000D01*
X41021000Y-62484000D02*
X45847000Y-62484000D01*
X45847000Y-62484000D02*
X45847000Y-67310000D01*
X45847000Y-67310000D02*
X41021000Y-67310000D01*
X41021000Y-67310000D02*
X41021000Y-64897000D01*
X53340000Y-64516000D02*
G75*
G03X53340000Y-64516000I-762000J0D01*
G01*
X50165000Y-64897000D02*
X50165000Y-62484000D01*
X50165000Y-62484000D02*
X54991000Y-62484000D01*
X54991000Y-62484000D02*
X54991000Y-67310000D01*
X54991000Y-67310000D02*
X50165000Y-67310000D01*
X50165000Y-67310000D02*
X50165000Y-64897000D01*
X62484000Y-64516000D02*
G75*
G03X62484000Y-64516000I-762000J0D01*
G01*
X59309000Y-64897000D02*
X59309000Y-62484000D01*
X59309000Y-62484000D02*
X64135000Y-62484000D01*
X64135000Y-62484000D02*
X64135000Y-67310000D01*
X64135000Y-67310000D02*
X59309000Y-67310000D01*
X59309000Y-67310000D02*
X59309000Y-64897000D01*
X71374000Y-64516000D02*
G75*
G03X71374000Y-64516000I-762000J0D01*
G01*
X68199000Y-64897000D02*
X68199000Y-62484000D01*
X68199000Y-62484000D02*
X73025000Y-62484000D01*
X73025000Y-62484000D02*
X73025000Y-67310000D01*
X73025000Y-67310000D02*
X68199000Y-67310000D01*
X68199000Y-67310000D02*
X68199000Y-64897000D01*
X44196000Y-73660000D02*
G75*
G03X44196000Y-73660000I-762000J0D01*
G01*
X41021000Y-74041000D02*
X41021000Y-71628000D01*
X41021000Y-71628000D02*
X45847000Y-71628000D01*
X45847000Y-71628000D02*
X45847000Y-76454000D01*
X45847000Y-76454000D02*
X41021000Y-76454000D01*
X41021000Y-76454000D02*
X41021000Y-74041000D01*
X53340000Y-73660000D02*
G75*
G03X53340000Y-73660000I-762000J0D01*
G01*
X50165000Y-74041000D02*
X50165000Y-71628000D01*
X50165000Y-71628000D02*
X54991000Y-71628000D01*
X54991000Y-71628000D02*
X54991000Y-76454000D01*
X54991000Y-76454000D02*
X50165000Y-76454000D01*
X50165000Y-76454000D02*
X50165000Y-74041000D01*
X62484000Y-73660000D02*
G75*
G03X62484000Y-73660000I-762000J0D01*
G01*
X59309000Y-74041000D02*
X59309000Y-71628000D01*
X59309000Y-71628000D02*
X64135000Y-71628000D01*
X64135000Y-71628000D02*
X64135000Y-76454000D01*
X64135000Y-76454000D02*
X59309000Y-76454000D01*
X59309000Y-76454000D02*
X59309000Y-74041000D01*
X71374000Y-73660000D02*
G75*
G03X71374000Y-73660000I-762000J0D01*
G01*
X68199000Y-74041000D02*
X68199000Y-71628000D01*
X68199000Y-71628000D02*
X73025000Y-71628000D01*
X73025000Y-71628000D02*
X73025000Y-76454000D01*
X73025000Y-76454000D02*
X68199000Y-76454000D01*
X68199000Y-76454000D02*
X68199000Y-74041000D01*
X44196000Y-82804000D02*
G75*
G03X44196000Y-82804000I-762000J0D01*
G01*
X41021000Y-83185000D02*
X41021000Y-80772000D01*
X41021000Y-80772000D02*
X45847000Y-80772000D01*
X45847000Y-80772000D02*
X45847000Y-85598000D01*
X45847000Y-85598000D02*
X41021000Y-85598000D01*
X41021000Y-85598000D02*
X41021000Y-83185000D01*
X53340000Y-82804000D02*
G75*
G03X53340000Y-82804000I-762000J0D01*
G01*
X50165000Y-83185000D02*
X50165000Y-80772000D01*
X50165000Y-80772000D02*
X54991000Y-80772000D01*
X54991000Y-80772000D02*
X54991000Y-85598000D01*
X54991000Y-85598000D02*
X50165000Y-85598000D01*
X50165000Y-85598000D02*
X50165000Y-83185000D01*
X62484000Y-82804000D02*
G75*
G03X62484000Y-82804000I-762000J0D01*
G01*
X59309000Y-83185000D02*
X59309000Y-80772000D01*
X59309000Y-80772000D02*
X64135000Y-80772000D01*
X64135000Y-80772000D02*
X64135000Y-85598000D01*
X64135000Y-85598000D02*
X59309000Y-85598000D01*
X59309000Y-85598000D02*
X59309000Y-83185000D01*
X71374000Y-82804000D02*
G75*
G03X71374000Y-82804000I-762000J0D01*
G01*
X68199000Y-83185000D02*
X68199000Y-80772000D01*
X68199000Y-80772000D02*
X73025000Y-80772000D01*
X73025000Y-80772000D02*
X73025000Y-85598000D01*
X73025000Y-85598000D02*
X68199000Y-85598000D01*
X68199000Y-85598000D02*
X68199000Y-83185000D01*
D12*
X37758000Y-60714000D02*
X37758000Y-61714000D01*
X39458000Y-61714000D02*
X39458000Y-60714000D01*
X37758000Y-69858000D02*
X37758000Y-70858000D01*
X39458000Y-70858000D02*
X39458000Y-69858000D01*
X37758000Y-79002000D02*
X37758000Y-80002000D01*
X39458000Y-80002000D02*
X39458000Y-79002000D01*
X37758000Y-88146000D02*
X37758000Y-89146000D01*
X39458000Y-89146000D02*
X39458000Y-88146000D01*
X47664000Y-60714000D02*
X47664000Y-61714000D01*
X49364000Y-61714000D02*
X49364000Y-60714000D01*
X47664000Y-69858000D02*
X47664000Y-70858000D01*
X49364000Y-70858000D02*
X49364000Y-69858000D01*
X56808000Y-60714000D02*
X56808000Y-61714000D01*
X58508000Y-61714000D02*
X58508000Y-60714000D01*
X65698000Y-60714000D02*
X65698000Y-61714000D01*
X67398000Y-61714000D02*
X67398000Y-60714000D01*
X56808000Y-69858000D02*
X56808000Y-70858000D01*
X58508000Y-70858000D02*
X58508000Y-69858000D01*
X65698000Y-69858000D02*
X65698000Y-70858000D01*
X67398000Y-70858000D02*
X67398000Y-69858000D01*
X47664000Y-79002000D02*
X47664000Y-80002000D01*
X49364000Y-80002000D02*
X49364000Y-79002000D01*
X56808000Y-79002000D02*
X56808000Y-80002000D01*
X58508000Y-80002000D02*
X58508000Y-79002000D01*
X65698000Y-79002000D02*
X65698000Y-80002000D01*
X67398000Y-80002000D02*
X67398000Y-79002000D01*
X47664000Y-88146000D02*
X47664000Y-89146000D01*
X49364000Y-89146000D02*
X49364000Y-88146000D01*
X56808000Y-88146000D02*
X56808000Y-89146000D01*
X58508000Y-89146000D02*
X58508000Y-88146000D01*
X65698000Y-88146000D02*
X65698000Y-89146000D01*
X67398000Y-89146000D02*
X67398000Y-88146000D01*
D11*
X87462360Y-113243360D02*
X88224360Y-113243360D01*
X87462360Y-113751360D02*
X88224360Y-113751360D01*
X85430360Y-113243360D02*
G75*
G03X86827360Y-115148360I1651000J-254000D01*
G01*
X86954360Y-111846360D02*
G75*
G03X85430360Y-113624360I127000J-1651000D01*
G01*
X86192360Y-114894360D02*
G75*
G03X88478360Y-114386360I889000J1397000D01*
G01*
X88478360Y-112608360D02*
G75*
G03X86192360Y-112100360I-1397000J-889000D01*
G01*
X83271360Y-110195360D02*
X83398360Y-110195360D01*
X87081360Y-110195360D02*
X85684360Y-110195360D01*
X83271360Y-116799360D02*
X83398360Y-116799360D01*
X87081360Y-116799360D02*
X85684360Y-116799360D01*
X84160360Y-112354360D02*
X84033360Y-112735360D01*
X84033360Y-112735360D02*
X83906360Y-113497360D01*
X83906360Y-113497360D02*
X84033360Y-114259360D01*
X84033360Y-114259360D02*
X84160360Y-114640360D01*
X85049360Y-112227360D02*
X85049360Y-114767360D01*
X85811360Y-116418360D02*
G75*
G03X90002360Y-114767360I1270000J2921000D01*
G01*
X90002360Y-112227360D02*
G75*
G03X85811360Y-110576360I-2921000J-1270000D01*
G01*
X90383360Y-115529360D02*
X90383360Y-114640360D01*
X90383360Y-112354360D02*
X90383360Y-111465360D01*
X87462360Y-115148360D02*
X87462360Y-115656360D01*
X87462360Y-115656360D02*
X86700360Y-115656360D01*
X86700360Y-115656360D02*
X86700360Y-115148360D01*
X87462360Y-111846360D02*
X87462360Y-111338360D01*
X87462360Y-111338360D02*
X86700360Y-111338360D01*
X86700360Y-111338360D02*
X86700360Y-111846360D01*
X86827360Y-114005360D02*
X86827360Y-115148360D01*
X87335360Y-114005360D02*
X87335360Y-115148360D01*
X86827360Y-112989360D02*
X86827360Y-111846360D01*
X87335360Y-112989360D02*
X87335360Y-111846360D01*
X86700360Y-113751360D02*
X85430360Y-113751360D01*
X86700360Y-113243360D02*
X85430360Y-113243360D01*
X87462360Y-112989360D02*
X86700360Y-112989360D01*
X86700360Y-112989360D02*
X86700360Y-114005360D01*
X86700360Y-114005360D02*
X87462360Y-114005360D01*
X87462360Y-114005360D02*
X87462360Y-112989360D01*
X90383360Y-111465360D02*
X88986360Y-110195360D01*
X88986360Y-110195360D02*
X87081360Y-110195360D01*
X90383360Y-115529360D02*
X88986360Y-116799360D01*
X88986360Y-116799360D02*
X87081360Y-116799360D01*
X83271360Y-116545360D02*
X83017360Y-116545360D01*
X83017360Y-116545360D02*
X83017360Y-115402360D01*
X83017360Y-115402360D02*
X83271360Y-115402360D01*
X83271360Y-110449360D02*
X83017360Y-110449360D01*
X83017360Y-110449360D02*
X83017360Y-111592360D01*
X83017360Y-111592360D02*
X83271360Y-111592360D01*
X83271360Y-110195360D02*
X83271360Y-116799360D01*
X49466667Y-59761381D02*
X49133333Y-59285190D01*
X48895238Y-59761381D02*
X48895238Y-58761381D01*
X49276191Y-58761381D01*
X49371429Y-58809000D01*
X49419048Y-58856619D01*
X49466667Y-58951857D01*
X49466667Y-59094714D01*
X49419048Y-59189952D01*
X49371429Y-59237571D01*
X49276191Y-59285190D01*
X48895238Y-59285190D01*
X49895238Y-59237571D02*
X50228572Y-59237571D01*
X50371429Y-59761381D02*
X49895238Y-59761381D01*
X49895238Y-58761381D01*
X50371429Y-58761381D01*
X51133334Y-59237571D02*
X50800000Y-59237571D01*
X50800000Y-59761381D02*
X50800000Y-58761381D01*
X51276191Y-58761381D01*
X51800000Y-58761381D02*
X51800000Y-58999476D01*
X51561905Y-58904238D02*
X51800000Y-58999476D01*
X52038096Y-58904238D01*
X51657143Y-59189952D02*
X51800000Y-58999476D01*
X51942858Y-59189952D01*
X52561905Y-58761381D02*
X52561905Y-58999476D01*
X52323810Y-58904238D02*
X52561905Y-58999476D01*
X52800001Y-58904238D01*
X52419048Y-59189952D02*
X52561905Y-58999476D01*
X52704763Y-59189952D01*
X58610667Y-59761381D02*
X58277333Y-59285190D01*
X58039238Y-59761381D02*
X58039238Y-58761381D01*
X58420191Y-58761381D01*
X58515429Y-58809000D01*
X58563048Y-58856619D01*
X58610667Y-58951857D01*
X58610667Y-59094714D01*
X58563048Y-59189952D01*
X58515429Y-59237571D01*
X58420191Y-59285190D01*
X58039238Y-59285190D01*
X59039238Y-59237571D02*
X59372572Y-59237571D01*
X59515429Y-59761381D02*
X59039238Y-59761381D01*
X59039238Y-58761381D01*
X59515429Y-58761381D01*
X60277334Y-59237571D02*
X59944000Y-59237571D01*
X59944000Y-59761381D02*
X59944000Y-58761381D01*
X60420191Y-58761381D01*
X60944000Y-58761381D02*
X60944000Y-58999476D01*
X60705905Y-58904238D02*
X60944000Y-58999476D01*
X61182096Y-58904238D01*
X60801143Y-59189952D02*
X60944000Y-58999476D01*
X61086858Y-59189952D01*
X61705905Y-58761381D02*
X61705905Y-58999476D01*
X61467810Y-58904238D02*
X61705905Y-58999476D01*
X61944001Y-58904238D01*
X61563048Y-59189952D02*
X61705905Y-58999476D01*
X61848763Y-59189952D01*
X59118667Y-87701381D02*
X58785333Y-87225190D01*
X58547238Y-87701381D02*
X58547238Y-86701381D01*
X58928191Y-86701381D01*
X59023429Y-86749000D01*
X59071048Y-86796619D01*
X59118667Y-86891857D01*
X59118667Y-87034714D01*
X59071048Y-87129952D01*
X59023429Y-87177571D01*
X58928191Y-87225190D01*
X58547238Y-87225190D01*
X59547238Y-87177571D02*
X59880572Y-87177571D01*
X60023429Y-87701381D02*
X59547238Y-87701381D01*
X59547238Y-86701381D01*
X60023429Y-86701381D01*
X60785334Y-87177571D02*
X60452000Y-87177571D01*
X60452000Y-87701381D02*
X60452000Y-86701381D01*
X60928191Y-86701381D01*
X61452000Y-86701381D02*
X61452000Y-86939476D01*
X61213905Y-86844238D02*
X61452000Y-86939476D01*
X61690096Y-86844238D01*
X61309143Y-87129952D02*
X61452000Y-86939476D01*
X61594858Y-87129952D01*
X62213905Y-86701381D02*
X62213905Y-86939476D01*
X61975810Y-86844238D02*
X62213905Y-86939476D01*
X62452001Y-86844238D01*
X62071048Y-87129952D02*
X62213905Y-86939476D01*
X62356763Y-87129952D01*
X49974667Y-78049381D02*
X49641333Y-77573190D01*
X49403238Y-78049381D02*
X49403238Y-77049381D01*
X49784191Y-77049381D01*
X49879429Y-77097000D01*
X49927048Y-77144619D01*
X49974667Y-77239857D01*
X49974667Y-77382714D01*
X49927048Y-77477952D01*
X49879429Y-77525571D01*
X49784191Y-77573190D01*
X49403238Y-77573190D01*
X50403238Y-77525571D02*
X50736572Y-77525571D01*
X50879429Y-78049381D02*
X50403238Y-78049381D01*
X50403238Y-77049381D01*
X50879429Y-77049381D01*
X51641334Y-77525571D02*
X51308000Y-77525571D01*
X51308000Y-78049381D02*
X51308000Y-77049381D01*
X51784191Y-77049381D01*
X52308000Y-77049381D02*
X52308000Y-77287476D01*
X52069905Y-77192238D02*
X52308000Y-77287476D01*
X52546096Y-77192238D01*
X52165143Y-77477952D02*
X52308000Y-77287476D01*
X52450858Y-77477952D01*
X53069905Y-77049381D02*
X53069905Y-77287476D01*
X52831810Y-77192238D02*
X53069905Y-77287476D01*
X53308001Y-77192238D01*
X52927048Y-77477952D02*
X53069905Y-77287476D01*
X53212763Y-77477952D01*
X59118667Y-78303381D02*
X58785333Y-77827190D01*
X58547238Y-78303381D02*
X58547238Y-77303381D01*
X58928191Y-77303381D01*
X59023429Y-77351000D01*
X59071048Y-77398619D01*
X59118667Y-77493857D01*
X59118667Y-77636714D01*
X59071048Y-77731952D01*
X59023429Y-77779571D01*
X58928191Y-77827190D01*
X58547238Y-77827190D01*
X59547238Y-77779571D02*
X59880572Y-77779571D01*
X60023429Y-78303381D02*
X59547238Y-78303381D01*
X59547238Y-77303381D01*
X60023429Y-77303381D01*
X60785334Y-77779571D02*
X60452000Y-77779571D01*
X60452000Y-78303381D02*
X60452000Y-77303381D01*
X60928191Y-77303381D01*
X61452000Y-77303381D02*
X61452000Y-77541476D01*
X61213905Y-77446238D02*
X61452000Y-77541476D01*
X61690096Y-77446238D01*
X61309143Y-77731952D02*
X61452000Y-77541476D01*
X61594858Y-77731952D01*
X62213905Y-77303381D02*
X62213905Y-77541476D01*
X61975810Y-77446238D02*
X62213905Y-77541476D01*
X62452001Y-77446238D01*
X62071048Y-77731952D02*
X62213905Y-77541476D01*
X62356763Y-77731952D01*
X59372667Y-69667381D02*
X59039333Y-69191190D01*
X58801238Y-69667381D02*
X58801238Y-68667381D01*
X59182191Y-68667381D01*
X59277429Y-68715000D01*
X59325048Y-68762619D01*
X59372667Y-68857857D01*
X59372667Y-69000714D01*
X59325048Y-69095952D01*
X59277429Y-69143571D01*
X59182191Y-69191190D01*
X58801238Y-69191190D01*
X59801238Y-69143571D02*
X60134572Y-69143571D01*
X60277429Y-69667381D02*
X59801238Y-69667381D01*
X59801238Y-68667381D01*
X60277429Y-68667381D01*
X61039334Y-69143571D02*
X60706000Y-69143571D01*
X60706000Y-69667381D02*
X60706000Y-68667381D01*
X61182191Y-68667381D01*
X61706000Y-68667381D02*
X61706000Y-68905476D01*
X61467905Y-68810238D02*
X61706000Y-68905476D01*
X61944096Y-68810238D01*
X61563143Y-69095952D02*
X61706000Y-68905476D01*
X61848858Y-69095952D01*
X62467905Y-68667381D02*
X62467905Y-68905476D01*
X62229810Y-68810238D02*
X62467905Y-68905476D01*
X62706001Y-68810238D01*
X62325048Y-69095952D02*
X62467905Y-68905476D01*
X62610763Y-69095952D01*
X105334381Y-81002095D02*
X104334381Y-81002095D01*
X104334381Y-80621142D01*
X104382000Y-80525904D01*
X104429619Y-80478285D01*
X104524857Y-80430666D01*
X104667714Y-80430666D01*
X104762952Y-80478285D01*
X104810571Y-80525904D01*
X104858190Y-80621142D01*
X104858190Y-81002095D01*
X105334381Y-79478285D02*
X105334381Y-80049714D01*
X105334381Y-79764000D02*
X104334381Y-79764000D01*
X104477238Y-79859238D01*
X104572476Y-79954476D01*
X104620095Y-80049714D01*
X98476381Y-81002095D02*
X97476381Y-81002095D01*
X97476381Y-80621142D01*
X97524000Y-80525904D01*
X97571619Y-80478285D01*
X97666857Y-80430666D01*
X97809714Y-80430666D01*
X97904952Y-80478285D01*
X97952571Y-80525904D01*
X98000190Y-80621142D01*
X98000190Y-81002095D01*
X97571619Y-80049714D02*
X97524000Y-80002095D01*
X97476381Y-79906857D01*
X97476381Y-79668761D01*
X97524000Y-79573523D01*
X97571619Y-79525904D01*
X97666857Y-79478285D01*
X97762095Y-79478285D01*
X97904952Y-79525904D01*
X98476381Y-80097333D01*
X98476381Y-79478285D01*
X82982381Y-91162095D02*
X81982381Y-91162095D01*
X81982381Y-90781142D01*
X82030000Y-90685904D01*
X82077619Y-90638285D01*
X82172857Y-90590666D01*
X82315714Y-90590666D01*
X82410952Y-90638285D01*
X82458571Y-90685904D01*
X82506190Y-90781142D01*
X82506190Y-91162095D01*
X81982381Y-90257333D02*
X81982381Y-89638285D01*
X82363333Y-89971619D01*
X82363333Y-89828761D01*
X82410952Y-89733523D01*
X82458571Y-89685904D01*
X82553810Y-89638285D01*
X82791905Y-89638285D01*
X82887143Y-89685904D01*
X82934762Y-89733523D01*
X82982381Y-89828761D01*
X82982381Y-90114476D01*
X82934762Y-90209714D01*
X82887143Y-90257333D01*
X49363381Y-56133905D02*
X50172905Y-56133905D01*
X50268143Y-56086286D01*
X50315762Y-56038667D01*
X50363381Y-55943429D01*
X50363381Y-55752952D01*
X50315762Y-55657714D01*
X50268143Y-55610095D01*
X50172905Y-55562476D01*
X49363381Y-55562476D01*
X50363381Y-54562476D02*
X50363381Y-55133905D01*
X50363381Y-54848191D02*
X49363381Y-54848191D01*
X49506238Y-54943429D01*
X49601476Y-55038667D01*
X49649095Y-55133905D01*
X58507381Y-56133905D02*
X59316905Y-56133905D01*
X59412143Y-56086286D01*
X59459762Y-56038667D01*
X59507381Y-55943429D01*
X59507381Y-55752952D01*
X59459762Y-55657714D01*
X59412143Y-55610095D01*
X59316905Y-55562476D01*
X58507381Y-55562476D01*
X58602619Y-55133905D02*
X58555000Y-55086286D01*
X58507381Y-54991048D01*
X58507381Y-54752952D01*
X58555000Y-54657714D01*
X58602619Y-54610095D01*
X58697857Y-54562476D01*
X58793095Y-54562476D01*
X58935952Y-54610095D01*
X59507381Y-55181524D01*
X59507381Y-54562476D01*
X67651381Y-56133905D02*
X68460905Y-56133905D01*
X68556143Y-56086286D01*
X68603762Y-56038667D01*
X68651381Y-55943429D01*
X68651381Y-55752952D01*
X68603762Y-55657714D01*
X68556143Y-55610095D01*
X68460905Y-55562476D01*
X67651381Y-55562476D01*
X67651381Y-55181524D02*
X67651381Y-54562476D01*
X68032333Y-54895810D01*
X68032333Y-54752952D01*
X68079952Y-54657714D01*
X68127571Y-54610095D01*
X68222810Y-54562476D01*
X68460905Y-54562476D01*
X68556143Y-54610095D01*
X68603762Y-54657714D01*
X68651381Y-54752952D01*
X68651381Y-55038667D01*
X68603762Y-55133905D01*
X68556143Y-55181524D01*
X76541381Y-56133905D02*
X77350905Y-56133905D01*
X77446143Y-56086286D01*
X77493762Y-56038667D01*
X77541381Y-55943429D01*
X77541381Y-55752952D01*
X77493762Y-55657714D01*
X77446143Y-55610095D01*
X77350905Y-55562476D01*
X76541381Y-55562476D01*
X76874714Y-54657714D02*
X77541381Y-54657714D01*
X76493762Y-54895810D02*
X77208048Y-55133905D01*
X77208048Y-54514857D01*
X49363381Y-65277905D02*
X50172905Y-65277905D01*
X50268143Y-65230286D01*
X50315762Y-65182667D01*
X50363381Y-65087429D01*
X50363381Y-64896952D01*
X50315762Y-64801714D01*
X50268143Y-64754095D01*
X50172905Y-64706476D01*
X49363381Y-64706476D01*
X49363381Y-63754095D02*
X49363381Y-64230286D01*
X49839571Y-64277905D01*
X49791952Y-64230286D01*
X49744333Y-64135048D01*
X49744333Y-63896952D01*
X49791952Y-63801714D01*
X49839571Y-63754095D01*
X49934810Y-63706476D01*
X50172905Y-63706476D01*
X50268143Y-63754095D01*
X50315762Y-63801714D01*
X50363381Y-63896952D01*
X50363381Y-64135048D01*
X50315762Y-64230286D01*
X50268143Y-64277905D01*
X58507381Y-65277905D02*
X59316905Y-65277905D01*
X59412143Y-65230286D01*
X59459762Y-65182667D01*
X59507381Y-65087429D01*
X59507381Y-64896952D01*
X59459762Y-64801714D01*
X59412143Y-64754095D01*
X59316905Y-64706476D01*
X58507381Y-64706476D01*
X58507381Y-63801714D02*
X58507381Y-63992191D01*
X58555000Y-64087429D01*
X58602619Y-64135048D01*
X58745476Y-64230286D01*
X58935952Y-64277905D01*
X59316905Y-64277905D01*
X59412143Y-64230286D01*
X59459762Y-64182667D01*
X59507381Y-64087429D01*
X59507381Y-63896952D01*
X59459762Y-63801714D01*
X59412143Y-63754095D01*
X59316905Y-63706476D01*
X59078810Y-63706476D01*
X58983571Y-63754095D01*
X58935952Y-63801714D01*
X58888333Y-63896952D01*
X58888333Y-64087429D01*
X58935952Y-64182667D01*
X58983571Y-64230286D01*
X59078810Y-64277905D01*
X67651381Y-65277905D02*
X68460905Y-65277905D01*
X68556143Y-65230286D01*
X68603762Y-65182667D01*
X68651381Y-65087429D01*
X68651381Y-64896952D01*
X68603762Y-64801714D01*
X68556143Y-64754095D01*
X68460905Y-64706476D01*
X67651381Y-64706476D01*
X67651381Y-64325524D02*
X67651381Y-63658857D01*
X68651381Y-64087429D01*
X76541381Y-65277905D02*
X77350905Y-65277905D01*
X77446143Y-65230286D01*
X77493762Y-65182667D01*
X77541381Y-65087429D01*
X77541381Y-64896952D01*
X77493762Y-64801714D01*
X77446143Y-64754095D01*
X77350905Y-64706476D01*
X76541381Y-64706476D01*
X77541381Y-64182667D02*
X77541381Y-63992191D01*
X77493762Y-63896952D01*
X77446143Y-63849333D01*
X77303286Y-63754095D01*
X77112810Y-63706476D01*
X76731857Y-63706476D01*
X76636619Y-63754095D01*
X76589000Y-63801714D01*
X76541381Y-63896952D01*
X76541381Y-64087429D01*
X76589000Y-64182667D01*
X76636619Y-64230286D01*
X76731857Y-64277905D01*
X76969952Y-64277905D01*
X77065190Y-64230286D01*
X77112810Y-64182667D01*
X77160429Y-64087429D01*
X77160429Y-63896952D01*
X77112810Y-63801714D01*
X77065190Y-63754095D01*
X76969952Y-63706476D01*
X49363381Y-74898095D02*
X50172905Y-74898095D01*
X50268143Y-74850476D01*
X50315762Y-74802857D01*
X50363381Y-74707619D01*
X50363381Y-74517142D01*
X50315762Y-74421904D01*
X50268143Y-74374285D01*
X50172905Y-74326666D01*
X49363381Y-74326666D01*
X50363381Y-73326666D02*
X50363381Y-73898095D01*
X50363381Y-73612381D02*
X49363381Y-73612381D01*
X49506238Y-73707619D01*
X49601476Y-73802857D01*
X49649095Y-73898095D01*
X49363381Y-72707619D02*
X49363381Y-72612380D01*
X49411000Y-72517142D01*
X49458619Y-72469523D01*
X49553857Y-72421904D01*
X49744333Y-72374285D01*
X49982429Y-72374285D01*
X50172905Y-72421904D01*
X50268143Y-72469523D01*
X50315762Y-72517142D01*
X50363381Y-72612380D01*
X50363381Y-72707619D01*
X50315762Y-72802857D01*
X50268143Y-72850476D01*
X50172905Y-72898095D01*
X49982429Y-72945714D01*
X49744333Y-72945714D01*
X49553857Y-72898095D01*
X49458619Y-72850476D01*
X49411000Y-72802857D01*
X49363381Y-72707619D01*
X58507381Y-74898095D02*
X59316905Y-74898095D01*
X59412143Y-74850476D01*
X59459762Y-74802857D01*
X59507381Y-74707619D01*
X59507381Y-74517142D01*
X59459762Y-74421904D01*
X59412143Y-74374285D01*
X59316905Y-74326666D01*
X58507381Y-74326666D01*
X59507381Y-73326666D02*
X59507381Y-73898095D01*
X59507381Y-73612381D02*
X58507381Y-73612381D01*
X58650238Y-73707619D01*
X58745476Y-73802857D01*
X58793095Y-73898095D01*
X59507381Y-72374285D02*
X59507381Y-72945714D01*
X59507381Y-72660000D02*
X58507381Y-72660000D01*
X58650238Y-72755238D01*
X58745476Y-72850476D01*
X58793095Y-72945714D01*
X67651381Y-74898095D02*
X68460905Y-74898095D01*
X68556143Y-74850476D01*
X68603762Y-74802857D01*
X68651381Y-74707619D01*
X68651381Y-74517142D01*
X68603762Y-74421904D01*
X68556143Y-74374285D01*
X68460905Y-74326666D01*
X67651381Y-74326666D01*
X68651381Y-73326666D02*
X68651381Y-73898095D01*
X68651381Y-73612381D02*
X67651381Y-73612381D01*
X67794238Y-73707619D01*
X67889476Y-73802857D01*
X67937095Y-73898095D01*
X67746619Y-72945714D02*
X67699000Y-72898095D01*
X67651381Y-72802857D01*
X67651381Y-72564761D01*
X67699000Y-72469523D01*
X67746619Y-72421904D01*
X67841857Y-72374285D01*
X67937095Y-72374285D01*
X68079952Y-72421904D01*
X68651381Y-72993333D01*
X68651381Y-72374285D01*
X76541381Y-74898095D02*
X77350905Y-74898095D01*
X77446143Y-74850476D01*
X77493762Y-74802857D01*
X77541381Y-74707619D01*
X77541381Y-74517142D01*
X77493762Y-74421904D01*
X77446143Y-74374285D01*
X77350905Y-74326666D01*
X76541381Y-74326666D01*
X77541381Y-73326666D02*
X77541381Y-73898095D01*
X77541381Y-73612381D02*
X76541381Y-73612381D01*
X76684238Y-73707619D01*
X76779476Y-73802857D01*
X76827095Y-73898095D01*
X76541381Y-72993333D02*
X76541381Y-72374285D01*
X76922333Y-72707619D01*
X76922333Y-72564761D01*
X76969952Y-72469523D01*
X77017571Y-72421904D01*
X77112810Y-72374285D01*
X77350905Y-72374285D01*
X77446143Y-72421904D01*
X77493762Y-72469523D01*
X77541381Y-72564761D01*
X77541381Y-72850476D01*
X77493762Y-72945714D01*
X77446143Y-72993333D01*
X49363381Y-84042095D02*
X50172905Y-84042095D01*
X50268143Y-83994476D01*
X50315762Y-83946857D01*
X50363381Y-83851619D01*
X50363381Y-83661142D01*
X50315762Y-83565904D01*
X50268143Y-83518285D01*
X50172905Y-83470666D01*
X49363381Y-83470666D01*
X50363381Y-82470666D02*
X50363381Y-83042095D01*
X50363381Y-82756381D02*
X49363381Y-82756381D01*
X49506238Y-82851619D01*
X49601476Y-82946857D01*
X49649095Y-83042095D01*
X49696714Y-81613523D02*
X50363381Y-81613523D01*
X49315762Y-81851619D02*
X50030048Y-82089714D01*
X50030048Y-81470666D01*
X58507381Y-84042095D02*
X59316905Y-84042095D01*
X59412143Y-83994476D01*
X59459762Y-83946857D01*
X59507381Y-83851619D01*
X59507381Y-83661142D01*
X59459762Y-83565904D01*
X59412143Y-83518285D01*
X59316905Y-83470666D01*
X58507381Y-83470666D01*
X59507381Y-82470666D02*
X59507381Y-83042095D01*
X59507381Y-82756381D02*
X58507381Y-82756381D01*
X58650238Y-82851619D01*
X58745476Y-82946857D01*
X58793095Y-83042095D01*
X58507381Y-81565904D02*
X58507381Y-82042095D01*
X58983571Y-82089714D01*
X58935952Y-82042095D01*
X58888333Y-81946857D01*
X58888333Y-81708761D01*
X58935952Y-81613523D01*
X58983571Y-81565904D01*
X59078810Y-81518285D01*
X59316905Y-81518285D01*
X59412143Y-81565904D01*
X59459762Y-81613523D01*
X59507381Y-81708761D01*
X59507381Y-81946857D01*
X59459762Y-82042095D01*
X59412143Y-82089714D01*
X67651381Y-84042095D02*
X68460905Y-84042095D01*
X68556143Y-83994476D01*
X68603762Y-83946857D01*
X68651381Y-83851619D01*
X68651381Y-83661142D01*
X68603762Y-83565904D01*
X68556143Y-83518285D01*
X68460905Y-83470666D01*
X67651381Y-83470666D01*
X68651381Y-82470666D02*
X68651381Y-83042095D01*
X68651381Y-82756381D02*
X67651381Y-82756381D01*
X67794238Y-82851619D01*
X67889476Y-82946857D01*
X67937095Y-83042095D01*
X67651381Y-81613523D02*
X67651381Y-81804000D01*
X67699000Y-81899238D01*
X67746619Y-81946857D01*
X67889476Y-82042095D01*
X68079952Y-82089714D01*
X68460905Y-82089714D01*
X68556143Y-82042095D01*
X68603762Y-81994476D01*
X68651381Y-81899238D01*
X68651381Y-81708761D01*
X68603762Y-81613523D01*
X68556143Y-81565904D01*
X68460905Y-81518285D01*
X68222810Y-81518285D01*
X68127571Y-81565904D01*
X68079952Y-81613523D01*
X68032333Y-81708761D01*
X68032333Y-81899238D01*
X68079952Y-81994476D01*
X68127571Y-82042095D01*
X68222810Y-82089714D01*
X76541381Y-84042095D02*
X77350905Y-84042095D01*
X77446143Y-83994476D01*
X77493762Y-83946857D01*
X77541381Y-83851619D01*
X77541381Y-83661142D01*
X77493762Y-83565904D01*
X77446143Y-83518285D01*
X77350905Y-83470666D01*
X76541381Y-83470666D01*
X77541381Y-82470666D02*
X77541381Y-83042095D01*
X77541381Y-82756381D02*
X76541381Y-82756381D01*
X76684238Y-82851619D01*
X76779476Y-82946857D01*
X76827095Y-83042095D01*
X76541381Y-82137333D02*
X76541381Y-81470666D01*
X77541381Y-81899238D01*
X36865143Y-61380666D02*
X36912762Y-61428285D01*
X36960381Y-61571142D01*
X36960381Y-61666380D01*
X36912762Y-61809238D01*
X36817524Y-61904476D01*
X36722286Y-61952095D01*
X36531810Y-61999714D01*
X36388952Y-61999714D01*
X36198476Y-61952095D01*
X36103238Y-61904476D01*
X36008000Y-61809238D01*
X35960381Y-61666380D01*
X35960381Y-61571142D01*
X36008000Y-61428285D01*
X36055619Y-61380666D01*
X36960381Y-60428285D02*
X36960381Y-60999714D01*
X36960381Y-60714000D02*
X35960381Y-60714000D01*
X36103238Y-60809238D01*
X36198476Y-60904476D01*
X36246095Y-60999714D01*
X36865143Y-70524666D02*
X36912762Y-70572285D01*
X36960381Y-70715142D01*
X36960381Y-70810380D01*
X36912762Y-70953238D01*
X36817524Y-71048476D01*
X36722286Y-71096095D01*
X36531810Y-71143714D01*
X36388952Y-71143714D01*
X36198476Y-71096095D01*
X36103238Y-71048476D01*
X36008000Y-70953238D01*
X35960381Y-70810380D01*
X35960381Y-70715142D01*
X36008000Y-70572285D01*
X36055619Y-70524666D01*
X36055619Y-70143714D02*
X36008000Y-70096095D01*
X35960381Y-70000857D01*
X35960381Y-69762761D01*
X36008000Y-69667523D01*
X36055619Y-69619904D01*
X36150857Y-69572285D01*
X36246095Y-69572285D01*
X36388952Y-69619904D01*
X36960381Y-70191333D01*
X36960381Y-69572285D01*
X36865143Y-79668666D02*
X36912762Y-79716285D01*
X36960381Y-79859142D01*
X36960381Y-79954380D01*
X36912762Y-80097238D01*
X36817524Y-80192476D01*
X36722286Y-80240095D01*
X36531810Y-80287714D01*
X36388952Y-80287714D01*
X36198476Y-80240095D01*
X36103238Y-80192476D01*
X36008000Y-80097238D01*
X35960381Y-79954380D01*
X35960381Y-79859142D01*
X36008000Y-79716285D01*
X36055619Y-79668666D01*
X35960381Y-79335333D02*
X35960381Y-78716285D01*
X36341333Y-79049619D01*
X36341333Y-78906761D01*
X36388952Y-78811523D01*
X36436571Y-78763904D01*
X36531810Y-78716285D01*
X36769905Y-78716285D01*
X36865143Y-78763904D01*
X36912762Y-78811523D01*
X36960381Y-78906761D01*
X36960381Y-79192476D01*
X36912762Y-79287714D01*
X36865143Y-79335333D01*
X36865143Y-88812666D02*
X36912762Y-88860285D01*
X36960381Y-89003142D01*
X36960381Y-89098380D01*
X36912762Y-89241238D01*
X36817524Y-89336476D01*
X36722286Y-89384095D01*
X36531810Y-89431714D01*
X36388952Y-89431714D01*
X36198476Y-89384095D01*
X36103238Y-89336476D01*
X36008000Y-89241238D01*
X35960381Y-89098380D01*
X35960381Y-89003142D01*
X36008000Y-88860285D01*
X36055619Y-88812666D01*
X36293714Y-87955523D02*
X36960381Y-87955523D01*
X35912762Y-88193619D02*
X36627048Y-88431714D01*
X36627048Y-87812666D01*
X46771143Y-61380666D02*
X46818762Y-61428285D01*
X46866381Y-61571142D01*
X46866381Y-61666380D01*
X46818762Y-61809238D01*
X46723524Y-61904476D01*
X46628286Y-61952095D01*
X46437810Y-61999714D01*
X46294952Y-61999714D01*
X46104476Y-61952095D01*
X46009238Y-61904476D01*
X45914000Y-61809238D01*
X45866381Y-61666380D01*
X45866381Y-61571142D01*
X45914000Y-61428285D01*
X45961619Y-61380666D01*
X45866381Y-60475904D02*
X45866381Y-60952095D01*
X46342571Y-60999714D01*
X46294952Y-60952095D01*
X46247333Y-60856857D01*
X46247333Y-60618761D01*
X46294952Y-60523523D01*
X46342571Y-60475904D01*
X46437810Y-60428285D01*
X46675905Y-60428285D01*
X46771143Y-60475904D01*
X46818762Y-60523523D01*
X46866381Y-60618761D01*
X46866381Y-60856857D01*
X46818762Y-60952095D01*
X46771143Y-60999714D01*
X46771143Y-70524666D02*
X46818762Y-70572285D01*
X46866381Y-70715142D01*
X46866381Y-70810380D01*
X46818762Y-70953238D01*
X46723524Y-71048476D01*
X46628286Y-71096095D01*
X46437810Y-71143714D01*
X46294952Y-71143714D01*
X46104476Y-71096095D01*
X46009238Y-71048476D01*
X45914000Y-70953238D01*
X45866381Y-70810380D01*
X45866381Y-70715142D01*
X45914000Y-70572285D01*
X45961619Y-70524666D01*
X45866381Y-69667523D02*
X45866381Y-69858000D01*
X45914000Y-69953238D01*
X45961619Y-70000857D01*
X46104476Y-70096095D01*
X46294952Y-70143714D01*
X46675905Y-70143714D01*
X46771143Y-70096095D01*
X46818762Y-70048476D01*
X46866381Y-69953238D01*
X46866381Y-69762761D01*
X46818762Y-69667523D01*
X46771143Y-69619904D01*
X46675905Y-69572285D01*
X46437810Y-69572285D01*
X46342571Y-69619904D01*
X46294952Y-69667523D01*
X46247333Y-69762761D01*
X46247333Y-69953238D01*
X46294952Y-70048476D01*
X46342571Y-70096095D01*
X46437810Y-70143714D01*
X55915143Y-61380666D02*
X55962762Y-61428285D01*
X56010381Y-61571142D01*
X56010381Y-61666380D01*
X55962762Y-61809238D01*
X55867524Y-61904476D01*
X55772286Y-61952095D01*
X55581810Y-61999714D01*
X55438952Y-61999714D01*
X55248476Y-61952095D01*
X55153238Y-61904476D01*
X55058000Y-61809238D01*
X55010381Y-61666380D01*
X55010381Y-61571142D01*
X55058000Y-61428285D01*
X55105619Y-61380666D01*
X55010381Y-61047333D02*
X55010381Y-60380666D01*
X56010381Y-60809238D01*
X64805143Y-61380666D02*
X64852762Y-61428285D01*
X64900381Y-61571142D01*
X64900381Y-61666380D01*
X64852762Y-61809238D01*
X64757524Y-61904476D01*
X64662286Y-61952095D01*
X64471810Y-61999714D01*
X64328952Y-61999714D01*
X64138476Y-61952095D01*
X64043238Y-61904476D01*
X63948000Y-61809238D01*
X63900381Y-61666380D01*
X63900381Y-61571142D01*
X63948000Y-61428285D01*
X63995619Y-61380666D01*
X64328952Y-60809238D02*
X64281333Y-60904476D01*
X64233714Y-60952095D01*
X64138476Y-60999714D01*
X64090857Y-60999714D01*
X63995619Y-60952095D01*
X63948000Y-60904476D01*
X63900381Y-60809238D01*
X63900381Y-60618761D01*
X63948000Y-60523523D01*
X63995619Y-60475904D01*
X64090857Y-60428285D01*
X64138476Y-60428285D01*
X64233714Y-60475904D01*
X64281333Y-60523523D01*
X64328952Y-60618761D01*
X64328952Y-60809238D01*
X64376571Y-60904476D01*
X64424190Y-60952095D01*
X64519429Y-60999714D01*
X64709905Y-60999714D01*
X64805143Y-60952095D01*
X64852762Y-60904476D01*
X64900381Y-60809238D01*
X64900381Y-60618761D01*
X64852762Y-60523523D01*
X64805143Y-60475904D01*
X64709905Y-60428285D01*
X64519429Y-60428285D01*
X64424190Y-60475904D01*
X64376571Y-60523523D01*
X64328952Y-60618761D01*
X55915143Y-70524666D02*
X55962762Y-70572285D01*
X56010381Y-70715142D01*
X56010381Y-70810380D01*
X55962762Y-70953238D01*
X55867524Y-71048476D01*
X55772286Y-71096095D01*
X55581810Y-71143714D01*
X55438952Y-71143714D01*
X55248476Y-71096095D01*
X55153238Y-71048476D01*
X55058000Y-70953238D01*
X55010381Y-70810380D01*
X55010381Y-70715142D01*
X55058000Y-70572285D01*
X55105619Y-70524666D01*
X56010381Y-70048476D02*
X56010381Y-69858000D01*
X55962762Y-69762761D01*
X55915143Y-69715142D01*
X55772286Y-69619904D01*
X55581810Y-69572285D01*
X55200857Y-69572285D01*
X55105619Y-69619904D01*
X55058000Y-69667523D01*
X55010381Y-69762761D01*
X55010381Y-69953238D01*
X55058000Y-70048476D01*
X55105619Y-70096095D01*
X55200857Y-70143714D01*
X55438952Y-70143714D01*
X55534190Y-70096095D01*
X55581810Y-70048476D01*
X55629429Y-69953238D01*
X55629429Y-69762761D01*
X55581810Y-69667523D01*
X55534190Y-69619904D01*
X55438952Y-69572285D01*
X64805143Y-71000857D02*
X64852762Y-71048476D01*
X64900381Y-71191333D01*
X64900381Y-71286571D01*
X64852762Y-71429429D01*
X64757524Y-71524667D01*
X64662286Y-71572286D01*
X64471810Y-71619905D01*
X64328952Y-71619905D01*
X64138476Y-71572286D01*
X64043238Y-71524667D01*
X63948000Y-71429429D01*
X63900381Y-71286571D01*
X63900381Y-71191333D01*
X63948000Y-71048476D01*
X63995619Y-71000857D01*
X64900381Y-70048476D02*
X64900381Y-70619905D01*
X64900381Y-70334191D02*
X63900381Y-70334191D01*
X64043238Y-70429429D01*
X64138476Y-70524667D01*
X64186095Y-70619905D01*
X63900381Y-69429429D02*
X63900381Y-69334190D01*
X63948000Y-69238952D01*
X63995619Y-69191333D01*
X64090857Y-69143714D01*
X64281333Y-69096095D01*
X64519429Y-69096095D01*
X64709905Y-69143714D01*
X64805143Y-69191333D01*
X64852762Y-69238952D01*
X64900381Y-69334190D01*
X64900381Y-69429429D01*
X64852762Y-69524667D01*
X64805143Y-69572286D01*
X64709905Y-69619905D01*
X64519429Y-69667524D01*
X64281333Y-69667524D01*
X64090857Y-69619905D01*
X63995619Y-69572286D01*
X63948000Y-69524667D01*
X63900381Y-69429429D01*
X46771143Y-80144857D02*
X46818762Y-80192476D01*
X46866381Y-80335333D01*
X46866381Y-80430571D01*
X46818762Y-80573429D01*
X46723524Y-80668667D01*
X46628286Y-80716286D01*
X46437810Y-80763905D01*
X46294952Y-80763905D01*
X46104476Y-80716286D01*
X46009238Y-80668667D01*
X45914000Y-80573429D01*
X45866381Y-80430571D01*
X45866381Y-80335333D01*
X45914000Y-80192476D01*
X45961619Y-80144857D01*
X46866381Y-79192476D02*
X46866381Y-79763905D01*
X46866381Y-79478191D02*
X45866381Y-79478191D01*
X46009238Y-79573429D01*
X46104476Y-79668667D01*
X46152095Y-79763905D01*
X46866381Y-78240095D02*
X46866381Y-78811524D01*
X46866381Y-78525810D02*
X45866381Y-78525810D01*
X46009238Y-78621048D01*
X46104476Y-78716286D01*
X46152095Y-78811524D01*
X55915143Y-80144857D02*
X55962762Y-80192476D01*
X56010381Y-80335333D01*
X56010381Y-80430571D01*
X55962762Y-80573429D01*
X55867524Y-80668667D01*
X55772286Y-80716286D01*
X55581810Y-80763905D01*
X55438952Y-80763905D01*
X55248476Y-80716286D01*
X55153238Y-80668667D01*
X55058000Y-80573429D01*
X55010381Y-80430571D01*
X55010381Y-80335333D01*
X55058000Y-80192476D01*
X55105619Y-80144857D01*
X56010381Y-79192476D02*
X56010381Y-79763905D01*
X56010381Y-79478191D02*
X55010381Y-79478191D01*
X55153238Y-79573429D01*
X55248476Y-79668667D01*
X55296095Y-79763905D01*
X55105619Y-78811524D02*
X55058000Y-78763905D01*
X55010381Y-78668667D01*
X55010381Y-78430571D01*
X55058000Y-78335333D01*
X55105619Y-78287714D01*
X55200857Y-78240095D01*
X55296095Y-78240095D01*
X55438952Y-78287714D01*
X56010381Y-78859143D01*
X56010381Y-78240095D01*
X64805143Y-80144857D02*
X64852762Y-80192476D01*
X64900381Y-80335333D01*
X64900381Y-80430571D01*
X64852762Y-80573429D01*
X64757524Y-80668667D01*
X64662286Y-80716286D01*
X64471810Y-80763905D01*
X64328952Y-80763905D01*
X64138476Y-80716286D01*
X64043238Y-80668667D01*
X63948000Y-80573429D01*
X63900381Y-80430571D01*
X63900381Y-80335333D01*
X63948000Y-80192476D01*
X63995619Y-80144857D01*
X64900381Y-79192476D02*
X64900381Y-79763905D01*
X64900381Y-79478191D02*
X63900381Y-79478191D01*
X64043238Y-79573429D01*
X64138476Y-79668667D01*
X64186095Y-79763905D01*
X63900381Y-78859143D02*
X63900381Y-78240095D01*
X64281333Y-78573429D01*
X64281333Y-78430571D01*
X64328952Y-78335333D01*
X64376571Y-78287714D01*
X64471810Y-78240095D01*
X64709905Y-78240095D01*
X64805143Y-78287714D01*
X64852762Y-78335333D01*
X64900381Y-78430571D01*
X64900381Y-78716286D01*
X64852762Y-78811524D01*
X64805143Y-78859143D01*
X46771143Y-89288857D02*
X46818762Y-89336476D01*
X46866381Y-89479333D01*
X46866381Y-89574571D01*
X46818762Y-89717429D01*
X46723524Y-89812667D01*
X46628286Y-89860286D01*
X46437810Y-89907905D01*
X46294952Y-89907905D01*
X46104476Y-89860286D01*
X46009238Y-89812667D01*
X45914000Y-89717429D01*
X45866381Y-89574571D01*
X45866381Y-89479333D01*
X45914000Y-89336476D01*
X45961619Y-89288857D01*
X46866381Y-88336476D02*
X46866381Y-88907905D01*
X46866381Y-88622191D02*
X45866381Y-88622191D01*
X46009238Y-88717429D01*
X46104476Y-88812667D01*
X46152095Y-88907905D01*
X46199714Y-87479333D02*
X46866381Y-87479333D01*
X45818762Y-87717429D02*
X46533048Y-87955524D01*
X46533048Y-87336476D01*
X55915143Y-89288857D02*
X55962762Y-89336476D01*
X56010381Y-89479333D01*
X56010381Y-89574571D01*
X55962762Y-89717429D01*
X55867524Y-89812667D01*
X55772286Y-89860286D01*
X55581810Y-89907905D01*
X55438952Y-89907905D01*
X55248476Y-89860286D01*
X55153238Y-89812667D01*
X55058000Y-89717429D01*
X55010381Y-89574571D01*
X55010381Y-89479333D01*
X55058000Y-89336476D01*
X55105619Y-89288857D01*
X56010381Y-88336476D02*
X56010381Y-88907905D01*
X56010381Y-88622191D02*
X55010381Y-88622191D01*
X55153238Y-88717429D01*
X55248476Y-88812667D01*
X55296095Y-88907905D01*
X55010381Y-87431714D02*
X55010381Y-87907905D01*
X55486571Y-87955524D01*
X55438952Y-87907905D01*
X55391333Y-87812667D01*
X55391333Y-87574571D01*
X55438952Y-87479333D01*
X55486571Y-87431714D01*
X55581810Y-87384095D01*
X55819905Y-87384095D01*
X55915143Y-87431714D01*
X55962762Y-87479333D01*
X56010381Y-87574571D01*
X56010381Y-87812667D01*
X55962762Y-87907905D01*
X55915143Y-87955524D01*
X64805143Y-89288857D02*
X64852762Y-89336476D01*
X64900381Y-89479333D01*
X64900381Y-89574571D01*
X64852762Y-89717429D01*
X64757524Y-89812667D01*
X64662286Y-89860286D01*
X64471810Y-89907905D01*
X64328952Y-89907905D01*
X64138476Y-89860286D01*
X64043238Y-89812667D01*
X63948000Y-89717429D01*
X63900381Y-89574571D01*
X63900381Y-89479333D01*
X63948000Y-89336476D01*
X63995619Y-89288857D01*
X64900381Y-88336476D02*
X64900381Y-88907905D01*
X64900381Y-88622191D02*
X63900381Y-88622191D01*
X64043238Y-88717429D01*
X64138476Y-88812667D01*
X64186095Y-88907905D01*
X63900381Y-87479333D02*
X63900381Y-87669810D01*
X63948000Y-87765048D01*
X63995619Y-87812667D01*
X64138476Y-87907905D01*
X64328952Y-87955524D01*
X64709905Y-87955524D01*
X64805143Y-87907905D01*
X64852762Y-87860286D01*
X64900381Y-87765048D01*
X64900381Y-87574571D01*
X64852762Y-87479333D01*
X64805143Y-87431714D01*
X64709905Y-87384095D01*
X64471810Y-87384095D01*
X64376571Y-87431714D01*
X64328952Y-87479333D01*
X64281333Y-87574571D01*
X64281333Y-87765048D01*
X64328952Y-87860286D01*
X64376571Y-87907905D01*
X64471810Y-87955524D01*
X91343741Y-117474026D02*
X90867550Y-117807360D01*
X91343741Y-118045455D02*
X90343741Y-118045455D01*
X90343741Y-117664502D01*
X90391360Y-117569264D01*
X90438979Y-117521645D01*
X90534217Y-117474026D01*
X90677074Y-117474026D01*
X90772312Y-117521645D01*
X90819931Y-117569264D01*
X90867550Y-117664502D01*
X90867550Y-118045455D01*
X91343741Y-116521645D02*
X91343741Y-117093074D01*
X91343741Y-116807360D02*
X90343741Y-116807360D01*
X90486598Y-116902598D01*
X90581836Y-116997836D01*
X90629455Y-117093074D01*
X79438667Y-60777381D02*
X79105333Y-60301190D01*
X78867238Y-60777381D02*
X78867238Y-59777381D01*
X79248191Y-59777381D01*
X79343429Y-59825000D01*
X79391048Y-59872619D01*
X79438667Y-59967857D01*
X79438667Y-60110714D01*
X79391048Y-60205952D01*
X79343429Y-60253571D01*
X79248191Y-60301190D01*
X78867238Y-60301190D01*
X79867238Y-60253571D02*
X80200572Y-60253571D01*
X80343429Y-60777381D02*
X79867238Y-60777381D01*
X79867238Y-59777381D01*
X80343429Y-59777381D01*
X81105334Y-60253571D02*
X80772000Y-60253571D01*
X80772000Y-60777381D02*
X80772000Y-59777381D01*
X81248191Y-59777381D01*
X81772000Y-59777381D02*
X81772000Y-60015476D01*
X81533905Y-59920238D02*
X81772000Y-60015476D01*
X82010096Y-59920238D01*
X81629143Y-60205952D02*
X81772000Y-60015476D01*
X81914858Y-60205952D01*
X82533905Y-59777381D02*
X82533905Y-60015476D01*
X82295810Y-59920238D02*
X82533905Y-60015476D01*
X82772001Y-59920238D01*
X82391048Y-60205952D02*
X82533905Y-60015476D01*
X82676763Y-60205952D01*
X79438667Y-71699381D02*
X79105333Y-71223190D01*
X78867238Y-71699381D02*
X78867238Y-70699381D01*
X79248191Y-70699381D01*
X79343429Y-70747000D01*
X79391048Y-70794619D01*
X79438667Y-70889857D01*
X79438667Y-71032714D01*
X79391048Y-71127952D01*
X79343429Y-71175571D01*
X79248191Y-71223190D01*
X78867238Y-71223190D01*
X79867238Y-71175571D02*
X80200572Y-71175571D01*
X80343429Y-71699381D02*
X79867238Y-71699381D01*
X79867238Y-70699381D01*
X80343429Y-70699381D01*
X81105334Y-71175571D02*
X80772000Y-71175571D01*
X80772000Y-71699381D02*
X80772000Y-70699381D01*
X81248191Y-70699381D01*
X81772000Y-70699381D02*
X81772000Y-70937476D01*
X81533905Y-70842238D02*
X81772000Y-70937476D01*
X82010096Y-70842238D01*
X81629143Y-71127952D02*
X81772000Y-70937476D01*
X81914858Y-71127952D01*
X82533905Y-70699381D02*
X82533905Y-70937476D01*
X82295810Y-70842238D02*
X82533905Y-70937476D01*
X82772001Y-70842238D01*
X82391048Y-71127952D02*
X82533905Y-70937476D01*
X82676763Y-71127952D01*
X79438667Y-80843381D02*
X79105333Y-80367190D01*
X78867238Y-80843381D02*
X78867238Y-79843381D01*
X79248191Y-79843381D01*
X79343429Y-79891000D01*
X79391048Y-79938619D01*
X79438667Y-80033857D01*
X79438667Y-80176714D01*
X79391048Y-80271952D01*
X79343429Y-80319571D01*
X79248191Y-80367190D01*
X78867238Y-80367190D01*
X79867238Y-80319571D02*
X80200572Y-80319571D01*
X80343429Y-80843381D02*
X79867238Y-80843381D01*
X79867238Y-79843381D01*
X80343429Y-79843381D01*
X81105334Y-80319571D02*
X80772000Y-80319571D01*
X80772000Y-80843381D02*
X80772000Y-79843381D01*
X81248191Y-79843381D01*
X81772000Y-79843381D02*
X81772000Y-80081476D01*
X81533905Y-79986238D02*
X81772000Y-80081476D01*
X82010096Y-79986238D01*
X81629143Y-80271952D02*
X81772000Y-80081476D01*
X81914858Y-80271952D01*
X82533905Y-79843381D02*
X82533905Y-80081476D01*
X82295810Y-79986238D02*
X82533905Y-80081476D01*
X82772001Y-79986238D01*
X82391048Y-80271952D02*
X82533905Y-80081476D01*
X82676763Y-80271952D01*
X79692667Y-89987381D02*
X79359333Y-89511190D01*
X79121238Y-89987381D02*
X79121238Y-88987381D01*
X79502191Y-88987381D01*
X79597429Y-89035000D01*
X79645048Y-89082619D01*
X79692667Y-89177857D01*
X79692667Y-89320714D01*
X79645048Y-89415952D01*
X79597429Y-89463571D01*
X79502191Y-89511190D01*
X79121238Y-89511190D01*
X80121238Y-89463571D02*
X80454572Y-89463571D01*
X80597429Y-89987381D02*
X80121238Y-89987381D01*
X80121238Y-88987381D01*
X80597429Y-88987381D01*
X81359334Y-89463571D02*
X81026000Y-89463571D01*
X81026000Y-89987381D02*
X81026000Y-88987381D01*
X81502191Y-88987381D01*
X82026000Y-88987381D02*
X82026000Y-89225476D01*
X81787905Y-89130238D02*
X82026000Y-89225476D01*
X82264096Y-89130238D01*
X81883143Y-89415952D02*
X82026000Y-89225476D01*
X82168858Y-89415952D01*
X82787905Y-88987381D02*
X82787905Y-89225476D01*
X82549810Y-89130238D02*
X82787905Y-89225476D01*
X83026001Y-89130238D01*
X82645048Y-89415952D02*
X82787905Y-89225476D01*
X82930763Y-89415952D01*
X49974667Y-69159381D02*
X49641333Y-68683190D01*
X49403238Y-69159381D02*
X49403238Y-68159381D01*
X49784191Y-68159381D01*
X49879429Y-68207000D01*
X49927048Y-68254619D01*
X49974667Y-68349857D01*
X49974667Y-68492714D01*
X49927048Y-68587952D01*
X49879429Y-68635571D01*
X49784191Y-68683190D01*
X49403238Y-68683190D01*
X50403238Y-68635571D02*
X50736572Y-68635571D01*
X50879429Y-69159381D02*
X50403238Y-69159381D01*
X50403238Y-68159381D01*
X50879429Y-68159381D01*
X51641334Y-68635571D02*
X51308000Y-68635571D01*
X51308000Y-69159381D02*
X51308000Y-68159381D01*
X51784191Y-68159381D01*
X52308000Y-68159381D02*
X52308000Y-68397476D01*
X52069905Y-68302238D02*
X52308000Y-68397476D01*
X52546096Y-68302238D01*
X52165143Y-68587952D02*
X52308000Y-68397476D01*
X52450858Y-68587952D01*
X53069905Y-68159381D02*
X53069905Y-68397476D01*
X52831810Y-68302238D02*
X53069905Y-68397476D01*
X53308001Y-68302238D01*
X52927048Y-68587952D02*
X53069905Y-68397476D01*
X53212763Y-68587952D01*
X49974667Y-87447381D02*
X49641333Y-86971190D01*
X49403238Y-87447381D02*
X49403238Y-86447381D01*
X49784191Y-86447381D01*
X49879429Y-86495000D01*
X49927048Y-86542619D01*
X49974667Y-86637857D01*
X49974667Y-86780714D01*
X49927048Y-86875952D01*
X49879429Y-86923571D01*
X49784191Y-86971190D01*
X49403238Y-86971190D01*
X50403238Y-86923571D02*
X50736572Y-86923571D01*
X50879429Y-87447381D02*
X50403238Y-87447381D01*
X50403238Y-86447381D01*
X50879429Y-86447381D01*
X51641334Y-86923571D02*
X51308000Y-86923571D01*
X51308000Y-87447381D02*
X51308000Y-86447381D01*
X51784191Y-86447381D01*
X52308000Y-86447381D02*
X52308000Y-86685476D01*
X52069905Y-86590238D02*
X52308000Y-86685476D01*
X52546096Y-86590238D01*
X52165143Y-86875952D02*
X52308000Y-86685476D01*
X52450858Y-86875952D01*
X53069905Y-86447381D02*
X53069905Y-86685476D01*
X52831810Y-86590238D02*
X53069905Y-86685476D01*
X53308001Y-86590238D01*
X52927048Y-86875952D02*
X53069905Y-86685476D01*
X53212763Y-86875952D01*
X41846667Y-68905381D02*
X41513333Y-68429190D01*
X41275238Y-68905381D02*
X41275238Y-67905381D01*
X41656191Y-67905381D01*
X41751429Y-67953000D01*
X41799048Y-68000619D01*
X41846667Y-68095857D01*
X41846667Y-68238714D01*
X41799048Y-68333952D01*
X41751429Y-68381571D01*
X41656191Y-68429190D01*
X41275238Y-68429190D01*
X42275238Y-68381571D02*
X42608572Y-68381571D01*
X42751429Y-68905381D02*
X42275238Y-68905381D01*
X42275238Y-67905381D01*
X42751429Y-67905381D01*
X43513334Y-68381571D02*
X43180000Y-68381571D01*
X43180000Y-68905381D02*
X43180000Y-67905381D01*
X43656191Y-67905381D01*
X44180000Y-67905381D02*
X44180000Y-68143476D01*
X43941905Y-68048238D02*
X44180000Y-68143476D01*
X44418096Y-68048238D01*
X44037143Y-68333952D02*
X44180000Y-68143476D01*
X44322858Y-68333952D01*
X44941905Y-67905381D02*
X44941905Y-68143476D01*
X44703810Y-68048238D02*
X44941905Y-68143476D01*
X45180001Y-68048238D01*
X44799048Y-68333952D02*
X44941905Y-68143476D01*
X45084763Y-68333952D01*
X41846667Y-78049381D02*
X41513333Y-77573190D01*
X41275238Y-78049381D02*
X41275238Y-77049381D01*
X41656191Y-77049381D01*
X41751429Y-77097000D01*
X41799048Y-77144619D01*
X41846667Y-77239857D01*
X41846667Y-77382714D01*
X41799048Y-77477952D01*
X41751429Y-77525571D01*
X41656191Y-77573190D01*
X41275238Y-77573190D01*
X42275238Y-77525571D02*
X42608572Y-77525571D01*
X42751429Y-78049381D02*
X42275238Y-78049381D01*
X42275238Y-77049381D01*
X42751429Y-77049381D01*
X43513334Y-77525571D02*
X43180000Y-77525571D01*
X43180000Y-78049381D02*
X43180000Y-77049381D01*
X43656191Y-77049381D01*
X44180000Y-77049381D02*
X44180000Y-77287476D01*
X43941905Y-77192238D02*
X44180000Y-77287476D01*
X44418096Y-77192238D01*
X44037143Y-77477952D02*
X44180000Y-77287476D01*
X44322858Y-77477952D01*
X44941905Y-77049381D02*
X44941905Y-77287476D01*
X44703810Y-77192238D02*
X44941905Y-77287476D01*
X45180001Y-77192238D01*
X44799048Y-77477952D02*
X44941905Y-77287476D01*
X45084763Y-77477952D01*
X41846667Y-87447381D02*
X41513333Y-86971190D01*
X41275238Y-87447381D02*
X41275238Y-86447381D01*
X41656191Y-86447381D01*
X41751429Y-86495000D01*
X41799048Y-86542619D01*
X41846667Y-86637857D01*
X41846667Y-86780714D01*
X41799048Y-86875952D01*
X41751429Y-86923571D01*
X41656191Y-86971190D01*
X41275238Y-86971190D01*
X42275238Y-86923571D02*
X42608572Y-86923571D01*
X42751429Y-87447381D02*
X42275238Y-87447381D01*
X42275238Y-86447381D01*
X42751429Y-86447381D01*
X43513334Y-86923571D02*
X43180000Y-86923571D01*
X43180000Y-87447381D02*
X43180000Y-86447381D01*
X43656191Y-86447381D01*
X44180000Y-86447381D02*
X44180000Y-86685476D01*
X43941905Y-86590238D02*
X44180000Y-86685476D01*
X44418096Y-86590238D01*
X44037143Y-86875952D02*
X44180000Y-86685476D01*
X44322858Y-86875952D01*
X44941905Y-86447381D02*
X44941905Y-86685476D01*
X44703810Y-86590238D02*
X44941905Y-86685476D01*
X45180001Y-86590238D01*
X44799048Y-86875952D02*
X44941905Y-86685476D01*
X45084763Y-86875952D01*
M02*
